<?xml version="1.0" encoding="UTF-8" standalone="no"?>
<!DOCTYPE svg PUBLIC "-//W3C//DTD SVG 1.1//EN"
 "http://www.w3.org/Graphics/SVG/1.1/DTD/svg11.dtd">
<!-- Generated by graphviz version 2.43.0 (0)
 -->
<!-- Title: %3 Pages: 1 -->
<svg width="170pt" height="355pt"
 viewBox="0.00 0.00 170.00 355.00" xmlns="http://www.w3.org/2000/svg" xmlns:xlink="http://www.w3.org/1999/xlink">
<g id="graph0" class="graph" transform="scale(1 1) rotate(0) translate(4 351)">
<title>%3</title>
<polygon fill="white" stroke="transparent" points="-4,4 -4,-351 166,-351 166,4 -4,4"/>
<text text-anchor="middle" x="81" y="-7.8" font-family="Times,serif" font-size="14.00">Successors</text>
<!-- r -->
<g id="node1" class="node">
<title>r</title>
<ellipse fill="none" stroke="black" cx="63" cy="-329" rx="27" ry="18"/>
<text text-anchor="middle" x="63" y="-325.3" font-family="Times,serif" font-size="14.00">r</text>
</g>
<!-- a -->
<g id="node2" class="node">
<title>a</title>
<ellipse fill="none" stroke="black" cx="27" cy="-257" rx="27" ry="18"/>
<text text-anchor="middle" x="27" y="-253.3" font-family="Times,serif" font-size="14.00">a</text>
</g>
<!-- r&#45;&gt;a -->
<g id="edge1" class="edge">
<title>r&#45;&gt;a</title>
<path fill="none" stroke="black" d="M54.65,-311.76C50.29,-303.28 44.85,-292.71 39.96,-283.2"/>
<polygon fill="black" stroke="black" points="42.99,-281.44 35.3,-274.15 36.77,-284.64 42.99,-281.44"/>
</g>
<!-- b -->
<g id="node3" class="node">
<title>b</title>
<ellipse fill="none" stroke="black" cx="99" cy="-257" rx="27" ry="18"/>
<text text-anchor="middle" x="99" y="-253.3" font-family="Times,serif" font-size="14.00">b</text>
</g>
<!-- r&#45;&gt;b -->
<g id="edge2" class="edge">
<title>r&#45;&gt;b</title>
<path fill="none" stroke="black" d="M71.35,-311.76C75.71,-303.28 81.15,-292.71 86.04,-283.2"/>
<polygon fill="black" stroke="black" points="89.23,-284.64 90.7,-274.15 83.01,-281.44 89.23,-284.64"/>
</g>
<!-- c -->
<g id="node4" class="node">
<title>c</title>
<ellipse fill="none" stroke="black" cx="27" cy="-185" rx="27" ry="18"/>
<text text-anchor="middle" x="27" y="-181.3" font-family="Times,serif" font-size="14.00">c</text>
</g>
<!-- a&#45;&gt;c -->
<g id="edge3" class="edge">
<title>a&#45;&gt;c</title>
<path fill="none" stroke="black" d="M27,-238.7C27,-230.98 27,-221.71 27,-213.11"/>
<polygon fill="black" stroke="black" points="30.5,-213.1 27,-203.1 23.5,-213.1 30.5,-213.1"/>
</g>
<!-- b&#45;&gt;c -->
<g id="edge4" class="edge">
<title>b&#45;&gt;c</title>
<path fill="none" stroke="black" d="M84.43,-241.83C74.25,-231.94 60.48,-218.55 48.97,-207.36"/>
<polygon fill="black" stroke="black" points="51.41,-204.85 41.8,-200.38 46.53,-209.87 51.41,-204.85"/>
</g>
<!-- d -->
<g id="node5" class="node">
<title>d</title>
<ellipse fill="none" stroke="black" cx="99" cy="-185" rx="27" ry="18"/>
<text text-anchor="middle" x="99" y="-181.3" font-family="Times,serif" font-size="14.00">d</text>
</g>
<!-- b&#45;&gt;d -->
<g id="edge5" class="edge">
<title>b&#45;&gt;d</title>
<path fill="none" stroke="black" d="M93.16,-239.41C92.3,-231.51 92.05,-221.85 92.41,-212.94"/>
<polygon fill="black" stroke="black" points="95.9,-213.18 93.12,-202.96 88.92,-212.68 95.9,-213.18"/>
</g>
<!-- c&#45;&gt;d -->
<g id="edge6" class="edge">
<title>c&#45;&gt;d</title>
<path fill="none" stroke="black" d="M54,-185C56.61,-185 59.23,-185 61.84,-185"/>
<polygon fill="black" stroke="black" points="61.93,-188.5 71.93,-185 61.93,-181.5 61.93,-188.5"/>
</g>
<!-- d&#45;&gt;b -->
<g id="edge7" class="edge">
<title>d&#45;&gt;b</title>
<path fill="none" stroke="black" d="M104.88,-202.96C105.71,-210.83 105.95,-220.37 105.58,-229.19"/>
<polygon fill="black" stroke="black" points="102.07,-229.18 104.84,-239.41 109.06,-229.69 102.07,-229.18"/>
</g>
<!-- e -->
<g id="node6" class="node">
<title>e</title>
<ellipse fill="none" stroke="black" cx="63" cy="-113" rx="27" ry="18"/>
<text text-anchor="middle" x="63" y="-109.3" font-family="Times,serif" font-size="14.00">e</text>
</g>
<!-- d&#45;&gt;e -->
<g id="edge8" class="edge">
<title>d&#45;&gt;e</title>
<path fill="none" stroke="black" d="M90.65,-167.76C86.29,-159.28 80.85,-148.71 75.96,-139.2"/>
<polygon fill="black" stroke="black" points="78.99,-137.44 71.3,-130.15 72.77,-140.64 78.99,-137.44"/>
</g>
<!-- f -->
<g id="node7" class="node">
<title>f</title>
<ellipse fill="none" stroke="black" cx="135" cy="-113" rx="27" ry="18"/>
<text text-anchor="middle" x="135" y="-109.3" font-family="Times,serif" font-size="14.00">f</text>
</g>
<!-- d&#45;&gt;f -->
<g id="edge9" class="edge">
<title>d&#45;&gt;f</title>
<path fill="none" stroke="black" d="M107.35,-167.76C111.71,-159.28 117.15,-148.71 122.04,-139.2"/>
<polygon fill="black" stroke="black" points="125.23,-140.64 126.7,-130.15 119.01,-137.44 125.23,-140.64"/>
</g>
<!-- g -->
<g id="node8" class="node">
<title>g</title>
<ellipse fill="none" stroke="black" cx="99" cy="-41" rx="27" ry="18"/>
<text text-anchor="middle" x="99" y="-37.3" font-family="Times,serif" font-size="14.00">g</text>
</g>
<!-- e&#45;&gt;g -->
<g id="edge10" class="edge">
<title>e&#45;&gt;g</title>
<path fill="none" stroke="black" d="M71.35,-95.76C75.71,-87.28 81.15,-76.71 86.04,-67.2"/>
<polygon fill="black" stroke="black" points="89.23,-68.64 90.7,-58.15 83.01,-65.44 89.23,-68.64"/>
</g>
<!-- f&#45;&gt;g -->
<g id="edge11" class="edge">
<title>f&#45;&gt;g</title>
<path fill="none" stroke="black" d="M126.65,-95.76C122.29,-87.28 116.85,-76.71 111.96,-67.2"/>
<polygon fill="black" stroke="black" points="114.99,-65.44 107.3,-58.15 108.77,-68.64 114.99,-65.44"/>
</g>
</g>
</svg>
