<?xml version="1.0" standalone="yes"?>

<svg version="1.1" viewBox="0.0 0.0 1280.0 960.0" fill="none" stroke="none" stroke-linecap="square" stroke-miterlimit="10" xmlns="http://www.w3.org/2000/svg" xmlns:xlink="http://www.w3.org/1999/xlink"><clipPath id="p.0"><path d="m0 0l1280.0 0l0 960.0l-1280.0 0l0 -960.0z" clip-rule="nonzero"></path></clipPath><g clip-path="url(#p.0)"><path fill="#000000" fill-opacity="0.0" d="m0 0l1280.0 0l0 960.0l-1280.0 0z" fill-rule="evenodd"></path><path fill="#000000" fill-opacity="0.0" d="m6.0 -0.6824147l188.0 0l0 44.0l-188.0 0z" fill-rule="evenodd"></path><path fill="#000000" d="m16.390625 26.237583l0 -13.59375l5.109375 0q1.546875 0 2.484375 0.40625q0.953125 0.40625 1.484375 1.265625q0.53125 0.859375 0.53125 1.796875q0 0.875 -0.46875 1.65625q-0.46875 0.765625 -1.4375 1.234375q1.234375 0.359375 1.890625 1.234375q0.671875 0.875 0.671875 2.0625q0 0.953125 -0.40625 1.78125q-0.390625 0.8125 -0.984375 1.265625q-0.59375 0.4375 -1.5 0.671875q-0.890625 0.21875 -2.1875 0.21875l-5.1875 0zm1.796875 -7.890625l2.9375 0q1.203125 0 1.71875 -0.15625q0.6875 -0.203125 1.03125 -0.671875q0.359375 -0.46875 0.359375 -1.1875q0 -0.671875 -0.328125 -1.1875q-0.328125 -0.515625 -0.9375 -0.703125q-0.59375 -0.203125 -2.0625 -0.203125l-2.71875 0l0 4.109375zm0 6.28125l3.390625 0q0.875 0 1.21875 -0.0625q0.625 -0.109375 1.046875 -0.359375q0.421875 -0.265625 0.6875 -0.765625q0.265625 -0.5 0.265625 -1.140625q0 -0.765625 -0.390625 -1.328125q-0.390625 -0.5625 -1.078125 -0.78125q-0.6875 -0.234375 -1.984375 -0.234375l-3.15625 0l0 4.671875zm10.490448 1.609375l0 -9.859375l1.5 0l0 1.5q0.578125 -1.046875 1.0625 -1.375q0.484375 -0.34375 1.078125 -0.34375q0.84375 0 1.71875 0.546875l-0.578125 1.546875q-0.609375 -0.359375 -1.234375 -0.359375q-0.546875 0 -0.984375 0.328125q-0.421875 0.328125 -0.609375 0.90625q-0.28125 0.890625 -0.28125 1.953125l0 5.15625l-1.671875 0zm5.603302 -4.921875q0 -2.734375 1.53125 -4.0625q1.265625 -1.09375 3.09375 -1.09375q2.03125 0 3.3125 1.34375q1.296875 1.328125 1.296875 3.671875q0 1.90625 -0.578125 3.0q-0.5625 1.078125 -1.65625 1.6875q-1.078125 0.59375 -2.375 0.59375q-2.0625 0 -3.34375 -1.328125q-1.28125 -1.328125 -1.28125 -3.8125zm1.71875 0q0 1.890625 0.828125 2.828125q0.828125 0.9375 2.078125 0.9375q1.25 0 2.0625 -0.9375q0.828125 -0.953125 0.828125 -2.890625q0 -1.828125 -0.828125 -2.765625q-0.828125 -0.9375 -2.0625 -0.9375q-1.25 0 -2.078125 0.9375q-0.828125 0.9375 -0.828125 2.828125zm15.719467 3.703125q-0.9375 0.796875 -1.796875 1.125q-0.859375 0.3125 -1.84375 0.3125q-1.609375 0 -2.484375 -0.78125q-0.875 -0.796875 -0.875 -2.03125q0 -0.734375 0.328125 -1.328125q0.328125 -0.59375 0.859375 -0.953125q0.53125 -0.359375 1.203125 -0.546875q0.5 -0.140625 1.484375 -0.25q2.03125 -0.25 2.984375 -0.578125q0 -0.34375 0 -0.4375q0 -1.015625 -0.46875 -1.4375q-0.640625 -0.5625 -1.90625 -0.5625q-1.171875 0 -1.734375 0.40625q-0.5625 0.40625 -0.828125 1.46875l-1.640625 -0.234375q0.234375 -1.046875 0.734375 -1.6875q0.515625 -0.640625 1.46875 -0.984375q0.96875 -0.359375 2.25 -0.359375q1.265625 0 2.046875 0.296875q0.78125 0.296875 1.15625 0.75q0.375 0.453125 0.515625 1.140625q0.09375 0.421875 0.09375 1.53125l0 2.234375q0 2.328125 0.09375 2.953125q0.109375 0.609375 0.4375 1.171875l-1.75 0q-0.265625 -0.515625 -0.328125 -1.21875zm-0.140625 -3.71875q-0.90625 0.359375 -2.734375 0.625q-1.03125 0.140625 -1.453125 0.328125q-0.421875 0.1875 -0.65625 0.546875q-0.234375 0.359375 -0.234375 0.796875q0 0.671875 0.5 1.125q0.515625 0.4375 1.484375 0.4375q0.96875 0 1.71875 -0.421875q0.75 -0.4375 1.109375 -1.15625q0.265625 -0.578125 0.265625 -1.671875l0 -0.609375zm10.469467 4.9375l0 -1.25q-0.9375 1.46875 -2.75 1.46875q-1.171875 0 -2.171875 -0.640625q-0.984375 -0.65625 -1.53125 -1.8125q-0.53125 -1.171875 -0.53125 -2.6875q0 -1.46875 0.484375 -2.671875q0.5 -1.203125 1.46875 -1.84375q0.984375 -0.640625 2.203125 -0.640625q0.890625 0 1.578125 0.375q0.703125 0.375 1.140625 0.984375l0 -4.875l1.65625 0l0 13.59375l-1.546875 0zm-5.28125 -4.921875q0 1.890625 0.796875 2.828125q0.8125 0.9375 1.890625 0.9375q1.09375 0 1.859375 -0.890625q0.765625 -0.890625 0.765625 -2.734375q0 -2.015625 -0.78125 -2.953125q-0.78125 -0.953125 -1.921875 -0.953125q-1.109375 0 -1.859375 0.90625q-0.75 0.90625 -0.75 2.859375zm15.703842 1.3125l1.640625 0.21875q-0.265625 1.6875 -1.375 2.65625q-1.109375 0.953125 -2.734375 0.953125q-2.015625 0 -3.25 -1.3125q-1.21875 -1.328125 -1.21875 -3.796875q0 -1.59375 0.515625 -2.78125q0.53125 -1.203125 1.609375 -1.796875q1.09375 -0.609375 2.359375 -0.609375q1.609375 0 2.625 0.8125q1.015625 0.8125 1.3125 2.3125l-1.625 0.25q-0.234375 -1.0 -0.828125 -1.5q-0.59375 -0.5 -1.421875 -0.5q-1.265625 0 -2.0625 0.90625q-0.78125 0.90625 -0.78125 2.859375q0 1.984375 0.765625 2.890625q0.765625 0.890625 1.984375 0.890625q0.984375 0 1.640625 -0.59375q0.65625 -0.609375 0.84375 -1.859375zm9.328125 2.390625q-0.9375 0.796875 -1.796875 1.125q-0.859375 0.3125 -1.84375 0.3125q-1.609375 0 -2.484375 -0.78125q-0.875 -0.796875 -0.875 -2.03125q0 -0.734375 0.328125 -1.328125q0.328125 -0.59375 0.859375 -0.953125q0.53125 -0.359375 1.203125 -0.546875q0.5 -0.140625 1.484375 -0.25q2.03125 -0.25 2.984375 -0.578125q0 -0.34375 0 -0.4375q0 -1.015625 -0.46875 -1.4375q-0.640625 -0.5625 -1.90625 -0.5625q-1.171875 0 -1.734375 0.40625q-0.5625 0.40625 -0.828125 1.46875l-1.640625 -0.234375q0.234375 -1.046875 0.734375 -1.6875q0.515625 -0.640625 1.46875 -0.984375q0.96875 -0.359375 2.25 -0.359375q1.265625 0 2.046875 0.296875q0.78125 0.296875 1.15625 0.75q0.375 0.453125 0.515625 1.140625q0.09375 0.421875 0.09375 1.53125l0 2.234375q0 2.328125 0.09375 2.953125q0.109375 0.609375 0.4375 1.171875l-1.75 0q-0.265625 -0.515625 -0.328125 -1.21875zm-0.140625 -3.71875q-0.90625 0.359375 -2.734375 0.625q-1.03125 0.140625 -1.453125 0.328125q-0.421875 0.1875 -0.65625 0.546875q-0.234375 0.359375 -0.234375 0.796875q0 0.671875 0.5 1.125q0.515625 0.4375 1.484375 0.4375q0.96875 0 1.71875 -0.421875q0.75 -0.4375 1.109375 -1.15625q0.265625 -0.578125 0.265625 -1.671875l0 -0.609375zm3.4069672 2.0l1.65625 -0.265625q0.140625 1.0 0.765625 1.53125q0.640625 0.515625 1.78125 0.515625q1.15625 0 1.703125 -0.46875q0.5625 -0.46875 0.5625 -1.09375q0 -0.5625 -0.484375 -0.890625q-0.34375 -0.21875 -1.703125 -0.5625q-1.84375 -0.46875 -2.5625 -0.796875q-0.703125 -0.34375 -1.078125 -0.9375q-0.359375 -0.609375 -0.359375 -1.328125q0 -0.65625 0.296875 -1.21875q0.3125 -0.5625 0.828125 -0.9375q0.390625 -0.28125 1.0625 -0.484375q0.671875 -0.203125 1.4375 -0.203125q1.171875 0 2.046875 0.34375q0.875 0.328125 1.28125 0.90625q0.421875 0.5625 0.578125 1.515625l-1.625 0.21875q-0.109375 -0.75 -0.65625 -1.171875q-0.53125 -0.4375 -1.5 -0.4375q-1.15625 0 -1.640625 0.390625q-0.484375 0.375 -0.484375 0.875q0 0.328125 0.203125 0.59375q0.203125 0.265625 0.640625 0.4375q0.25 0.09375 1.46875 0.4375q1.765625 0.46875 2.46875 0.765625q0.703125 0.296875 1.09375 0.875q0.40625 0.578125 0.40625 1.4375q0 0.828125 -0.484375 1.578125q-0.484375 0.734375 -1.40625 1.140625q-0.921875 0.390625 -2.078125 0.390625q-1.921875 0 -2.9375 -0.796875q-1.0 -0.796875 -1.28125 -2.359375zm13.65625 1.4375l0.234375 1.484375q-0.703125 0.140625 -1.265625 0.140625q-0.90625 0 -1.40625 -0.28125q-0.5 -0.296875 -0.703125 -0.75q-0.203125 -0.46875 -0.203125 -1.984375l0 -5.65625l-1.234375 0l0 -1.3125l1.234375 0l0 -2.4375l1.65625 -1.0l0 3.4375l1.6875 0l0 1.3125l-1.6875 0l0 5.75q0 0.71875 0.078125 0.921875q0.09375 0.203125 0.296875 0.328125q0.203125 0.125 0.578125 0.125q0.265625 0 0.734375 -0.078125zm6.3197327 -2.875l1.6875 -0.140625q0.125 1.015625 0.5625 1.671875q0.4375 0.65625 1.359375 1.0625q0.9375 0.40625 2.09375 0.40625q1.03125 0 1.8125 -0.3125q0.796875 -0.3125 1.1875 -0.84375q0.390625 -0.53125 0.390625 -1.15625q0 -0.640625 -0.375 -1.109375q-0.375 -0.484375 -1.234375 -0.8125q-0.546875 -0.21875 -2.421875 -0.65625q-1.875 -0.453125 -2.625 -0.859375q-0.96875 -0.515625 -1.453125 -1.265625q-0.46875 -0.75 -0.46875 -1.6875q0 -1.03125 0.578125 -1.921875q0.59375 -0.90625 1.703125 -1.359375q1.125 -0.46875 2.5 -0.46875q1.515625 0 2.671875 0.484375q1.15625 0.484375 1.765625 1.4375q0.625 0.9375 0.671875 2.140625l-1.71875 0.125q-0.140625 -1.28125 -0.953125 -1.9375q-0.796875 -0.671875 -2.359375 -0.671875q-1.625 0 -2.375 0.609375q-0.75 0.59375 -0.75 1.4375q0 0.734375 0.53125 1.203125q0.515625 0.46875 2.703125 0.96875q2.203125 0.5 3.015625 0.875q1.1875 0.546875 1.75 1.390625q0.578125 0.828125 0.578125 1.921875q0 1.09375 -0.625 2.0625q-0.625 0.953125 -1.796875 1.484375q-1.15625 0.53125 -2.609375 0.53125q-1.84375 0 -3.09375 -0.53125q-1.25 -0.546875 -1.96875 -1.625q-0.703125 -1.078125 -0.734375 -2.453125zm16.490448 2.875l0.234375 1.484375q-0.703125 0.140625 -1.265625 0.140625q-0.90625 0 -1.40625 -0.28125q-0.5 -0.296875 -0.703125 -0.75q-0.203125 -0.46875 -0.203125 -1.984375l0 -5.65625l-1.234375 0l0 -1.3125l1.234375 0l0 -2.4375l1.65625 -1.0l0 3.4375l1.6875 0l0 1.3125l-1.6875 0l0 5.75q0 0.71875 0.078125 0.921875q0.09375 0.203125 0.296875 0.328125q0.203125 0.125 0.578125 0.125q0.265625 0 0.734375 -0.078125zm1.5114288 1.5l0 -9.859375l1.5 0l0 1.5q0.578125 -1.046875 1.0625 -1.375q0.484375 -0.34375 1.078125 -0.34375q0.84375 0 1.71875 0.546875l-0.578125 1.546875q-0.609375 -0.359375 -1.234375 -0.359375q-0.546875 0 -0.984375 0.328125q-0.421875 0.328125 -0.609375 0.90625q-0.28125 0.890625 -0.28125 1.953125l0 5.15625l-1.671875 0zm12.978302 -3.171875l1.71875 0.21875q-0.40625 1.5 -1.515625 2.34375q-1.09375 0.828125 -2.8125 0.828125q-2.15625 0 -3.421875 -1.328125q-1.265625 -1.328125 -1.265625 -3.734375q0 -2.484375 1.265625 -3.859375q1.28125 -1.375 3.328125 -1.375q1.984375 0 3.234375 1.34375q1.25 1.34375 1.25 3.796875q0 0.140625 -0.015625 0.4375l-7.34375 0q0.09375 1.625 0.921875 2.484375q0.828125 0.859375 2.0625 0.859375q0.90625 0 1.546875 -0.46875q0.65625 -0.484375 1.046875 -1.546875zm-5.484375 -2.703125l5.5 0q-0.109375 -1.234375 -0.625 -1.859375q-0.796875 -0.96875 -2.078125 -0.96875q-1.140625 0 -1.9375 0.78125q-0.78125 0.765625 -0.859375 2.046875zm15.547592 4.65625q-0.9375 0.796875 -1.796875 1.125q-0.859375 0.3125 -1.84375 0.3125q-1.609375 0 -2.484375 -0.78125q-0.875 -0.796875 -0.875 -2.03125q0 -0.734375 0.328125 -1.328125q0.328125 -0.59375 0.859375 -0.953125q0.53125 -0.359375 1.203125 -0.546875q0.5 -0.140625 1.484375 -0.25q2.03125 -0.25 2.984375 -0.578125q0 -0.34375 0 -0.4375q0 -1.015625 -0.46875 -1.4375q-0.640625 -0.5625 -1.90625 -0.5625q-1.171875 0 -1.734375 0.40625q-0.5625 0.40625 -0.828125 1.46875l-1.640625 -0.234375q0.234375 -1.046875 0.734375 -1.6875q0.515625 -0.640625 1.46875 -0.984375q0.96875 -0.359375 2.25 -0.359375q1.265625 0 2.046875 0.296875q0.78125 0.296875 1.15625 0.75q0.375 0.453125 0.515625 1.140625q0.09375 0.421875 0.09375 1.53125l0 2.234375q0 2.328125 0.09375 2.953125q0.109375 0.609375 0.4375 1.171875l-1.75 0q-0.265625 -0.515625 -0.328125 -1.21875zm-0.140625 -3.71875q-0.90625 0.359375 -2.734375 0.625q-1.03125 0.140625 -1.453125 0.328125q-0.421875 0.1875 -0.65625 0.546875q-0.234375 0.359375 -0.234375 0.796875q0 0.671875 0.5 1.125q0.515625 0.4375 1.484375 0.4375q0.96875 0 1.71875 -0.421875q0.75 -0.4375 1.109375 -1.15625q0.265625 -0.578125 0.265625 -1.671875l0 -0.609375zm4.078842 4.9375l0 -9.859375l1.5 0l0 1.390625q0.453125 -0.71875 1.21875 -1.15625q0.78125 -0.453125 1.765625 -0.453125q1.09375 0 1.796875 0.453125q0.703125 0.453125 0.984375 1.28125q1.171875 -1.734375 3.046875 -1.734375q1.46875 0 2.25 0.8125q0.796875 0.8125 0.796875 2.5l0 6.765625l-1.671875 0l0 -6.203125q0 -1.0 -0.15625 -1.4375q-0.15625 -0.453125 -0.59375 -0.71875q-0.421875 -0.265625 -1.0 -0.265625q-1.03125 0 -1.71875 0.6875q-0.6875 0.6875 -0.6875 2.21875l0 5.71875l-1.671875 0l0 -6.40625q0 -1.109375 -0.40625 -1.65625q-0.40625 -0.5625 -1.34375 -0.5625q-0.703125 0 -1.3125 0.375q-0.59375 0.359375 -0.859375 1.078125q-0.265625 0.71875 -0.265625 2.0625l0 5.109375l-1.671875 0z" fill-rule="nonzero"></path><path fill="#cfe2f3" d="m198.36351 84.98688l45.95276 0l0 44.0l-45.95276 0z" fill-rule="evenodd"></path><path stroke="#000000" stroke-width="1.0" stroke-linejoin="round" stroke-linecap="butt" d="m198.36351 84.98688l45.95276 0l0 44.0l-45.95276 0z" fill-rule="evenodd"></path><path fill="#000000" fill-opacity="0.0" d="m18.177166 86.26247l140.0315 0l0 41.448822l-140.0315 0z" fill-rule="evenodd"></path><path fill="#000000" d="m32.09904 113.182465l0 -12.0l-4.46875 0l0 -1.59375l10.765625 0l0 1.59375l-4.5 0l0 12.0l-1.796875 0zm7.708481 0l0 -9.859375l1.5 0l0 1.5q0.578125 -1.046875 1.0625 -1.375q0.484375 -0.34375 1.078125 -0.34375q0.84375 0 1.71875 0.546875l-0.578125 1.546875q-0.609375 -0.359375 -1.234375 -0.359375q-0.546875 0 -0.984375 0.328125q-0.421875 0.328125 -0.609375 0.90625q-0.28125 0.890625 -0.28125 1.953125l0 5.15625l-1.671875 0zm12.665802 -1.21875q-0.9375 0.796875 -1.796875 1.125q-0.859375 0.3125 -1.84375 0.3125q-1.609375 0 -2.484375 -0.78125q-0.875 -0.796875 -0.875 -2.03125q0 -0.734375 0.328125 -1.328125q0.328125 -0.59375 0.859375 -0.953125q0.53125 -0.359375 1.203125 -0.546875q0.5 -0.140625 1.484375 -0.25q2.03125 -0.25 2.984375 -0.578125q0 -0.34375 0 -0.4375q0 -1.015625 -0.46875 -1.4375q-0.640625 -0.5625 -1.90625 -0.5625q-1.171875 0 -1.734375 0.40625q-0.5625 0.40625 -0.828125 1.46875l-1.640625 -0.234375q0.234375 -1.046875 0.734375 -1.6875q0.515625 -0.640625 1.46875 -0.984375q0.96875 -0.359375 2.25 -0.359375q1.265625 0 2.046875 0.296875q0.78125 0.296875 1.15625 0.75q0.375 0.453125 0.515625 1.140625q0.09375 0.421875 0.09375 1.53125l0 2.234375q0 2.328125 0.09375 2.953125q0.109375 0.609375 0.4375 1.171875l-1.75 0q-0.265625 -0.515625 -0.328125 -1.21875zm-0.140625 -3.71875q-0.90625 0.359375 -2.734375 0.625q-1.03125 0.140625 -1.453125 0.328125q-0.421875 0.1875 -0.65625 0.546875q-0.234375 0.359375 -0.234375 0.796875q0 0.671875 0.5 1.125q0.515625 0.4375 1.484375 0.4375q0.96875 0 1.71875 -0.421875q0.75 -0.4375 1.109375 -1.15625q0.265625 -0.578125 0.265625 -1.671875l0 -0.609375zm4.078842 4.9375l0 -9.859375l1.5 0l0 1.40625q1.09375 -1.625 3.140625 -1.625q0.890625 0 1.640625 0.328125q0.75 0.3125 1.109375 0.84375q0.3749962 0.515625 0.5312462 1.21875q0.09375 0.46875 0.09375 1.625l0 6.0625l-1.6718712 0l0 -6.0q0 -1.015625 -0.203125 -1.515625q-0.1875 -0.515625 -0.6875 -0.8125q-0.5 -0.296875 -1.171875 -0.296875q-1.0625 0 -1.84375 0.671875q-0.765625 0.671875 -0.765625 2.578125l0 5.375l-1.671875 0zm9.703838 -2.9375l1.65625 -0.265625q0.140625 1.0 0.765625 1.53125q0.640625 0.515625 1.78125 0.515625q1.15625 0 1.703125 -0.46875q0.5625 -0.46875 0.5625 -1.09375q0 -0.5625 -0.484375 -0.890625q-0.34375 -0.21875 -1.703125 -0.5625q-1.84375 -0.46875 -2.5625 -0.796875q-0.703125 -0.34375 -1.078125 -0.9375q-0.359375 -0.609375 -0.359375 -1.328125q0 -0.65625 0.296875 -1.21875q0.3125 -0.5625 0.828125 -0.9375q0.390625 -0.28125 1.0625 -0.484375q0.671875 -0.203125 1.4375 -0.203125q1.171875 0 2.046875 0.34375q0.875 0.328125 1.28125 0.90625q0.421875 0.5625 0.578125 1.515625l-1.625 0.21875q-0.109375 -0.75 -0.65625 -1.171875q-0.53125 -0.4375 -1.5 -0.4375q-1.15625 0 -1.640625 0.390625q-0.484375 0.375 -0.484375 0.875q0 0.328125 0.203125 0.59375q0.203125 0.265625 0.640625 0.4375q0.25 0.09375 1.46875 0.4375q1.765625 0.46875 2.46875 0.765625q0.703125 0.296875 1.09375 0.875q0.40625 0.578125 0.40625 1.4375q0 0.828125 -0.484375 1.578125q-0.484375 0.734375 -1.40625 1.140625q-0.921875 0.390625 -2.078125 0.390625q-1.921875 0 -2.9375 -0.796875q-1.0 -0.796875 -1.28125 -2.359375zm10.40625 2.9375l0 -8.546875l-1.484375 0l0 -1.3125l1.484375 0l0 -1.046875q0 -0.984375 0.171875 -1.46875q0.234375 -0.65625 0.84375 -1.046875q0.609375 -0.40625 1.703125 -0.40625q0.703125 0 1.5625 0.15625l-0.25 1.46875q-0.515625 -0.09375 -0.984375 -0.09375q-0.765625 0 -1.078125 0.328125q-0.3125 0.3125 -0.3125 1.203125l0 0.90625l1.921875 0l0 1.3125l-1.921875 0l0 8.546875l-1.65625 0zm4.152054 -4.921875q0 -2.734375 1.53125 -4.0625q1.265625 -1.09375 3.09375 -1.09375q2.03125 0 3.3125 1.34375q1.296875 1.328125 1.296875 3.671875q0 1.90625 -0.578125 3.0q-0.5625 1.078125 -1.65625 1.6875q-1.078125 0.59375 -2.375 0.59375q-2.0625 0 -3.34375 -1.328125q-1.28125 -1.328125 -1.28125 -3.8125zm1.71875 0q0 1.890625 0.828125 2.828125q0.828125 0.9375 2.078125 0.9375q1.25 0 2.0625 -0.9375q0.828125 -0.953125 0.828125 -2.890625q0 -1.828125 -0.828125 -2.765625q-0.828125 -0.9375 -2.0625 -0.9375q-1.25 0 -2.078125 0.9375q-0.828125 0.9375 -0.828125 2.828125zm9.266342 4.921875l0 -9.859375l1.5 0l0 1.5q0.578125 -1.046875 1.0625 -1.375q0.484375 -0.34375 1.078125 -0.34375q0.84375 0 1.71875 0.546875l-0.578125 1.546875q-0.609375 -0.359375 -1.234375 -0.359375q-0.546875 0 -0.984375 0.328125q-0.421875 0.328125 -0.609375 0.90625q-0.28125 0.890625 -0.28125 1.953125l0 5.15625l-1.671875 0zm6.228302 0l0 -9.859375l1.5 0l0 1.390625q0.453125 -0.71875 1.21875 -1.15625q0.78125 -0.453125 1.765625 -0.453125q1.09375 0 1.796875 0.453125q0.703125 0.453125 0.984375 1.28125q1.171875 -1.734375 3.046875 -1.734375q1.46875 0 2.25 0.8125q0.796875 0.8125 0.796875 2.5l0 6.765625l-1.671875 0l0 -6.203125q0 -1.0 -0.15625 -1.4375q-0.15625 -0.453125 -0.59375 -0.71875q-0.421875 -0.265625 -1.0 -0.265625q-1.03125 0 -1.71875 0.6875q-0.6875 0.6875 -0.6875 2.21875l0 5.71875l-1.671875 0l0 -6.40625q0 -1.109375 -0.40625 -1.65625q-0.40625 -0.5625 -1.34375 -0.5625q-0.703125 0 -1.3125 0.375q-0.59375 0.359375 -0.859375 1.078125q-0.265625 0.71875 -0.265625 2.0625l0 5.109375l-1.671875 0zm22.290802 -3.171875l1.71875 0.21875q-0.40625 1.5 -1.515625 2.34375q-1.09375 0.828125 -2.8125 0.828125q-2.15625 0 -3.421875 -1.328125q-1.265625 -1.328125 -1.265625 -3.734375q0 -2.484375 1.265625 -3.859375q1.28125 -1.375 3.328125 -1.375q1.984375 0 3.234375 1.34375q1.25 1.34375 1.25 3.796875q0 0.140625 -0.015625 0.4375l-7.34375 0q0.09375 1.625 0.921875 2.484375q0.828125 0.859375 2.0625 0.859375q0.90625 0 1.546875 -0.46875q0.65625 -0.484375 1.046875 -1.546875zm-5.484375 -2.703125l5.5 0q-0.109375 -1.234375 -0.625 -1.859375q-0.796875 -0.96875 -2.078125 -0.96875q-1.140625 0 -1.9375 0.78125q-0.78125 0.765625 -0.859375 2.046875zm9.094467 5.875l0 -9.859375l1.5 0l0 1.5q0.578125 -1.046875 1.0625 -1.375q0.484375 -0.34375 1.078125 -0.34375q0.8437576 0 1.7187576 0.546875l-0.578125 1.546875q-0.6093826 -0.359375 -1.2343826 -0.359375q-0.546875 0 -0.984375 0.328125q-0.421875 0.328125 -0.609375 0.90625q-0.28125 0.890625 -0.28125 1.953125l0 5.15625l-1.671875 0z" fill-rule="nonzero"></path><path fill="#000000" fill-opacity="0.0" d="m6.0026245 158.98425l188.0 0l0 44.0l-188.0 0z" fill-rule="evenodd"></path><path fill="#000000" d="m19.5495 177.1855q1.828125 0 2.78125 0.953125q0.96875 0.953125 0.96875 3.234375l0 4.53125l-1.453125 0l0 -1.3125q-0.78125 1.515625 -2.90625 1.515625q-1.421875 0 -2.21875 -0.640625q-0.796875 -0.640625 -0.796875 -1.703125q0 -0.90625 0.578125 -1.578125q0.578125 -0.671875 1.546875 -1.03125q0.984375 -0.359375 2.15625 -0.359375q1.0625 0 1.921875 0.109375q-0.109375 -1.4375 -0.75 -2.015625q-0.640625 -0.59375 -1.921875 -0.59375q-0.625 0 -1.21875 0.25q-0.578125 0.234375 -1.0625 0.703125l-0.65625 -0.859375q1.1875 -1.203125 3.03125 -1.203125zm-0.484375 7.890625q1.390625 0 2.1875 -0.796875q0.796875 -0.8125 0.875 -2.34375q-0.84375 -0.140625 -1.8125 -0.140625q-1.40625 0 -2.234375 0.46875q-0.828125 0.46875 -0.828125 1.421875q0 1.390625 1.8125 1.390625zm10.546875 -4.1875q1.609375 0.484375 2.265625 1.0625q0.65625 0.5625 0.65625 1.46875q0 1.15625 -0.90625 1.921875q-0.890625 0.75 -2.609375 0.75q-2.171875 0 -3.625 -1.34375l0.75 -1.265625l0.015625 -0.015625l0.015625 0.015625q0.578125 0.75 1.1875 1.125q0.625 0.359375 1.6875 0.359375q1.015625 0 1.59375 -0.359375q0.578125 -0.359375 0.578125 -1.0q0 -0.53125 -0.46875 -0.890625q-0.46875 -0.359375 -1.6875 -0.75q-3.203125 -0.90625 -3.203125 -2.640625q0 -1.0 0.8125 -1.578125q0.8125 -0.578125 2.328125 -0.578125q1.15625 0 1.9375 0.328125q0.796875 0.328125 1.453125 1.015625l-0.765625 0.9375l-0.015625 0.015625q-0.390625 -0.59375 -1.109375 -0.9375q-0.71875 -0.34375 -1.46875 -0.34375q-0.796875 0 -1.3125 0.28125q-0.515625 0.28125 -0.515625 0.78125q0 0.46875 0.515625 0.859375q0.53125 0.390625 1.890625 0.78125zm1.796875 -1.390625q0 -0.09375 0.140625 0.03125l-0.0625 0.0625l-0.078125 -0.09375zm0.203125 -0.03125q0.046875 0.078125 0.03125 0.09375q0 0.015625 -0.046875 0q-0.03125 -0.015625 -0.046875 -0.03125l0.0625 -0.0625zm-5.25 3.9375q0 0.078125 -0.171875 0l0.0625 -0.09375l0.109375 0.078125l0 0.015625zm-0.203125 0.0625q-0.0625 -0.09375 -0.046875 -0.09375q0.03125 0 0.078125 0.03125l-0.03125 0.0625zm8.390625 -9.1875l3.3125 0q1.9375 0 2.890625 0.765625q0.96875 0.75 0.96875 2.046875q0 0.859375 -0.46875 1.578125q-0.453125 0.71875 -1.25 1.0q0.96875 0.34375 1.578125 1.171875q0.609375 0.828125 0.609375 1.796875q0 1.53125 -1.09375 2.40625q-1.078125 0.859375 -3.265625 0.859375l-3.28125 0l0 -11.625zm3.125 4.8125q2.734375 0 2.734375 -1.84375q0 -0.84375 -0.625 -1.34375q-0.609375 -0.515625 -1.90625 -0.515625l-2.03125 0l0 3.703125l1.828125 0zm0.390625 5.671875q2.734375 0 2.734375 -2.203125q0 -2.359375 -3.0625 -2.359375l-1.890625 0l0 4.5625l2.21875 0zm12.875 -5.609375l0 0.015625q-0.546875 -0.5 -0.921875 -0.671875q-0.359375 -0.171875 -0.84375 -0.171875q-0.671875 0 -1.265625 0.34375q-0.59375 0.328125 -0.96875 1.015625q-0.375 0.671875 -0.375 1.703125l0 4.53125l-1.359375 0l0 -8.546875l1.40625 0l-0.046875 1.578125q0.359375 -0.84375 1.09375 -1.3125q0.734375 -0.46875 1.609375 -0.46875q1.375 0 2.265625 0.9375l-0.59375 1.046875zm0 0.015625q0.125 0.109375 0.0625 0.09375q-0.0625 -0.015625 -0.109375 -0.03125l0.046875 -0.0625zm-0.203125 0.0625q0 -0.0625 0.046875 -0.046875q0.0625 0 0.109375 0.046875l-0.03125 0.09375l-0.125 -0.078125l0 -0.015625zm6.25 6.828125q-1.140625 0 -2.046875 -0.5625q-0.890625 -0.5625 -1.390625 -1.5625q-0.5 -1.015625 -0.5 -2.296875q0 -1.296875 0.5 -2.296875q0.5 -1.015625 1.390625 -1.578125q0.90625 -0.578125 2.046875 -0.578125q1.125 0 2.015625 0.578125q0.90625 0.5625 1.40625 1.578125q0.5 1.0 0.5 2.296875q0 1.28125 -0.5 2.296875q-0.5 1.0 -1.40625 1.5625q-0.890625 0.5625 -2.015625 0.5625zm0 -1.125q0.71875 0 1.28125 -0.421875q0.578125 -0.4375 0.90625 -1.1875q0.328125 -0.765625 0.328125 -1.71875q0 -1.453125 -0.71875 -2.375q-0.703125 -0.921875 -1.796875 -0.921875q-1.109375 0 -1.828125 0.921875q-0.703125 0.921875 -0.703125 2.375q0 0.953125 0.328125 1.71875q0.328125 0.75 0.890625 1.1875q0.578125 0.421875 1.3125 0.421875zm9.203125 -7.75q1.828125 0 2.78125 0.953125q0.96875 0.953125 0.96875 3.234375l0 4.53125l-1.453125 0l0 -1.3125q-0.78125 1.515625 -2.90625 1.515625q-1.421875 0 -2.21875 -0.640625q-0.796875 -0.640625 -0.796875 -1.703125q0 -0.90625 0.578125 -1.578125q0.578125 -0.671875 1.546875 -1.03125q0.984375 -0.359375 2.15625 -0.359375q1.0625 0 1.921875 0.109375q-0.109375 -1.4375 -0.75 -2.015625q-0.640625 -0.59375 -1.921875 -0.59375q-0.625 0 -1.21875 0.25q-0.578125 0.234375 -1.0625 0.703125l-0.65625 -0.859375q1.1875 -1.203125 3.03125 -1.203125zm-0.484375 7.890625q1.390625 0 2.1875 -0.796875q0.796875 -0.8125 0.875 -2.34375q-0.84375 -0.140625 -1.8125 -0.140625q-1.40625 0 -2.234375 0.46875q-0.828125 0.46875 -0.828125 1.421875q0 1.390625 1.8125 1.390625zm9.625 1.015625q-0.90625 0 -1.71875 -0.515625q-0.796875 -0.515625 -1.296875 -1.53125q-0.5 -1.03125 -0.5 -2.484375q0 -1.484375 0.515625 -2.46875q0.53125 -0.984375 1.34375 -1.453125q0.828125 -0.484375 1.734375 -0.484375q0.859375 0 1.5 0.390625q0.640625 0.390625 0.984375 1.078125l0 -5.125l1.421875 0l0 0.125q-0.109375 0.125 -0.140625 0.25q-0.03125 0.125 -0.03125 0.453125l0.015625 10.25q0 0.453125 0.03125 0.75q0.03125 0.28125 0.15625 0.578125l-1.328125 0q-0.125 -0.296875 -0.15625 -0.578125q-0.03125 -0.296875 -0.03125 -0.75q-0.40625 0.71875 -1.046875 1.125q-0.640625 0.390625 -1.453125 0.390625zm0.21875 -1.171875q1.15625 0 1.6875 -0.90625q0.546875 -0.921875 0.546875 -2.421875q0 -1.515625 -0.59375 -2.421875q-0.578125 -0.921875 -1.765625 -0.921875q-1.109375 0 -1.71875 0.84375q-0.59375 0.828125 -0.59375 2.265625q0 1.640625 0.625 2.609375q0.625 0.953125 1.8125 0.953125zm10.140625 -0.015625q1.28125 0 2.21875 -1.046875l0.78125 0.90625q-1.25 1.34375 -3.078125 1.34375q-1.234375 0 -2.203125 -0.578125q-0.96875 -0.578125 -1.515625 -1.59375q-0.546875 -1.015625 -0.546875 -2.28125q0 -1.265625 0.546875 -2.265625q0.546875 -1.015625 1.515625 -1.59375q0.96875 -0.578125 2.1875 -0.578125q1.03125 0 1.859375 0.421875q0.84375 0.40625 1.375 1.15625l-0.84375 0.828125l-0.015625 0.015625q-0.546875 -0.71875 -1.125 -1.0q-0.5625 -0.296875 -1.390625 -0.296875q-0.734375 0 -1.359375 0.40625q-0.625 0.40625 -1.0 1.140625q-0.375 0.71875 -0.375 1.671875q0 0.953125 0.375 1.71875q0.390625 0.765625 1.0625 1.203125q0.6875 0.421875 1.53125 0.421875zm2.078125 -5.25q0 -0.109375 0.15625 0.015625l-0.0625 0.078125l-0.09375 -0.09375zm0.203125 -0.015625q0.09375 0.125 0.046875 0.09375q-0.046875 -0.046875 -0.09375 -0.0625l0.046875 -0.03125zm6.203125 -2.453125q1.828125 0 2.78125 0.953125q0.96875 0.953125 0.96875 3.234375l0 4.53125l-1.453125 0l0 -1.3125q-0.78125 1.515625 -2.90625 1.515625q-1.421875 0 -2.21875 -0.640625q-0.796875 -0.640625 -0.796875 -1.703125q0 -0.90625 0.578125 -1.578125q0.578125 -0.671875 1.546875 -1.03125q0.984375 -0.359375 2.15625 -0.359375q1.0625 0 1.921875 0.109375q-0.109375 -1.4375 -0.75 -2.015625q-0.640625 -0.59375 -1.921875 -0.59375q-0.625 0 -1.21875 0.25q-0.578125 0.234375 -1.0625 0.703125l-0.65625 -0.859375q1.1875 -1.203125 3.03125 -1.203125zm-0.484375 7.890625q1.390625 0 2.1875 -0.796875q0.796875 -0.8125 0.875 -2.34375q-0.84375 -0.140625 -1.8125 -0.140625q-1.40625 0 -2.234375 0.46875q-0.828125 0.46875 -0.828125 1.421875q0 1.390625 1.8125 1.390625zm10.546875 -4.1875q1.609375 0.484375 2.265625 1.0625q0.65625 0.5625 0.65625 1.46875q0 1.15625 -0.90625 1.921875q-0.890625 0.75 -2.609375 0.75q-2.171875 0 -3.625 -1.34375l0.75 -1.265625l0.015625 -0.015625l0.015625 0.015625q0.578125 0.75 1.1875 1.125q0.625 0.359375 1.6875 0.359375q1.015625 0 1.59375 -0.359375q0.578125 -0.359375 0.578125 -1.0q0 -0.53125 -0.46875 -0.890625q-0.46875 -0.359375 -1.6875 -0.75q-3.203125 -0.90625 -3.203125 -2.640625q0 -1.0 0.8125 -1.578125q0.8125 -0.578125 2.328125 -0.578125q1.15625 0 1.9375 0.328125q0.796875 0.328125 1.453125 1.015625l-0.765625 0.9375l-0.015625 0.015625q-0.390625 -0.59375 -1.109375 -0.9375q-0.71875 -0.34375 -1.46875 -0.34375q-0.796875 0 -1.3125 0.28125q-0.515625 0.28125 -0.515625 0.78125q0 0.46875 0.515625 0.859375q0.53125 0.390625 1.890625 0.78125zm1.796875 -1.390625q0 -0.09375 0.140625 0.03125l-0.0625 0.0625l-0.078125 -0.09375zm0.203125 -0.03125q0.046875 0.078125 0.03125 0.09375q0 0.015625 -0.046875 0q-0.03125 -0.015625 -0.046875 -0.03125l0.0625 -0.0625zm-5.25 3.9375q0 0.078125 -0.171875 0l0.0625 -0.09375l0.109375 0.078125l0 0.015625zm-0.203125 0.0625q-0.0625 -0.09375 -0.046875 -0.09375q0.03125 0 0.078125 0.03125l-0.03125 0.0625zm15.78125 1.65625q-1.234375 0.90625 -2.703125 0.90625q-1.421875 0 -2.015625 -0.84375q-0.578125 -0.859375 -0.578125 -2.8125q0 -0.3125 0.03125 -1.09375l0.171875 -2.796875l-1.875 0l0 -1.109375l1.953125 0l0.125 -2.265625l1.5 -0.25l0.1875 -0.015625l0.015625 0.109375q-0.125 0.1875 -0.203125 0.328125q-0.0625 0.125 -0.078125 0.40625l-0.203125 1.6875l2.828125 0l0 1.109375l-2.90625 0l-0.171875 2.890625q-0.03125 0.75 -0.03125 0.984375q0 1.5 0.34375 2.03125q0.34375 0.53125 1.109375 0.53125q0.5625 0 1.03125 -0.203125q0.46875 -0.21875 1.0625 -0.65625l0.40625 1.0625zm6.609375 -5.640625q1.65625 0.6875 2.28125 1.421875q0.640625 0.734375 0.640625 1.828125q0 0.859375 -0.421875 1.625q-0.40625 0.765625 -1.296875 1.25q-0.875 0.484375 -2.15625 0.484375q-2.265625 0 -3.640625 -1.46875l0.671875 -1.1875l0 -0.015625q0.015625 0 0.015625 0.015625q0 0 0 0q0.515625 0.671875 1.296875 1.078125q0.796875 0.40625 1.84375 0.40625q1.03125 0 1.71875 -0.578125q0.6875 -0.578125 0.6875 -1.421875q0 -0.546875 -0.21875 -0.90625q-0.21875 -0.359375 -0.78125 -0.71875q-0.546875 -0.359375 -1.671875 -0.84375q-1.71875 -0.671875 -2.453125 -1.515625q-0.734375 -0.859375 -0.734375 -1.9375q0 -1.296875 0.953125 -2.078125q0.953125 -0.78125 2.59375 -0.78125q0.953125 0 1.78125 0.390625q0.828125 0.375 1.4375 1.0625l-0.71875 0.96875l-0.015625 0.015625q-0.5625 -0.765625 -1.171875 -1.0625q-0.609375 -0.296875 -1.515625 -0.296875q-0.90625 0 -1.453125 0.5q-0.546875 0.484375 -0.546875 1.1875q0 0.546875 0.234375 0.953125q0.234375 0.390625 0.84375 0.78125q0.625 0.375 1.796875 0.84375zm1.59375 -2.875q0 -0.046875 0.078125 0q0.078125 0.03125 0.09375 0.03125l-0.046875 0.0625l-0.125 -0.0625l0 -0.03125zm0.21875 -0.03125q0.109375 0.15625 0.03125 0.109375q-0.0625 -0.046875 -0.078125 -0.046875l0.046875 -0.0625zm-5.53125 6.796875q0 0.046875 -0.078125 0.015625q-0.0625 -0.046875 -0.09375 -0.046875l0.046875 -0.0625l0.125 0.0625l0 0.03125zm-0.203125 0.046875q-0.109375 -0.140625 0.03125 -0.078125l-0.03125 0.078125zm15.96875 1.703125q-1.234375 0.90625 -2.703125 0.90625q-1.421875 0 -2.015625 -0.84375q-0.578125 -0.859375 -0.578125 -2.8125q0 -0.3125 0.03125 -1.09375l0.171875 -2.796875l-1.875 0l0 -1.109375l1.953125 0l0.125 -2.265625l1.5 -0.25l0.1875 -0.015625l0.015625 0.109375q-0.125 0.1875 -0.203125 0.328125q-0.0625 0.125 -0.078125 0.40625l-0.203125 1.6875l2.828125 0l0 1.109375l-2.90625 0l-0.171875 2.890625q-0.03125 0.75 -0.03125 0.984375q0 1.5 0.34375 2.03125q0.34375 0.53125 1.109375 0.53125q0.5625 0 1.03125 -0.203125q0.46875 -0.21875 1.0625 -0.65625l0.40625 1.0625zm9.0 -5.96875l0 0.015625q-0.546875 -0.5 -0.921875 -0.671875q-0.359375 -0.171875 -0.84375 -0.171875q-0.671875 0 -1.265625 0.34375q-0.59375 0.328125 -0.96875 1.015625q-0.375 0.671875 -0.375 1.703125l0 4.53125l-1.359375 0l0 -8.546875l1.40625 0l-0.046875 1.578125q0.359375 -0.84375 1.09375 -1.3125q0.734375 -0.46875 1.609375 -0.46875q1.375 0 2.265625 0.9375l-0.59375 1.046875zm0 0.015625q0.125 0.109375 0.0625 0.09375q-0.0625 -0.015625 -0.109375 -0.03125l0.046875 -0.0625zm-0.203125 0.0625q0 -0.0625 0.046875 -0.046875q0.0625 0 0.109375 0.046875l-0.03125 0.09375l-0.125 -0.078125l0 -0.015625zm6.65625 6.859375q-1.90625 0 -3.03125 -1.15625q-1.125 -1.15625 -1.125 -3.265625q0 -1.40625 0.515625 -2.421875q0.515625 -1.015625 1.40625 -1.546875q0.890625 -0.53125 1.984375 -0.53125q1.546875 0 2.5 1.03125q0.96875 1.03125 0.96875 3.015625q0 0.203125 -0.03125 0.625l-6.0625 0q0.078125 1.5625 0.875 2.375q0.796875 0.796875 2.03125 0.796875q1.34375 0 2.203125 -0.953125l0.75 0.71875q-1.078125 1.3125 -2.984375 1.3125zm1.859375 -5.296875q0 -1.203125 -0.609375 -1.890625q-0.59375 -0.703125 -1.59375 -0.703125q-0.921875 0 -1.625 0.65625q-0.6875 0.640625 -0.859375 1.9375l4.6875 0zm6.9375 -3.609375q1.828125 0 2.78125 0.953125q0.96875 0.953125 0.96875 3.234375l0 4.53125l-1.453125 0l0 -1.3125q-0.78125 1.515625 -2.90625 1.515625q-1.421875 0 -2.21875 -0.640625q-0.796875 -0.640625 -0.796875 -1.703125q0 -0.90625 0.578125 -1.578125q0.578125 -0.671875 1.546875 -1.03125q0.984375 -0.359375 2.15625 -0.359375q1.0625 0 1.921875 0.109375q-0.109375 -1.4375 -0.75 -2.015625q-0.640625 -0.59375 -1.921875 -0.59375q-0.625 0 -1.21875 0.25q-0.578125 0.234375 -1.0625 0.703125l-0.65625 -0.859375q1.1875 -1.203125 3.03125 -1.203125zm-0.484375 7.890625q1.390625 0 2.1875 -0.796875q0.796875 -0.8125 0.875 -2.34375q-0.84375 -0.140625 -1.8125 -0.140625q-1.40625 0 -2.234375 0.46875q-0.828125 0.46875 -0.828125 1.421875q0 1.390625 1.8125 1.390625zm5.96875 -7.703125l1.234375 0l0 0.84375q0.296875 -0.46875 0.765625 -0.75q0.46875 -0.296875 0.96875 -0.296875q0.5625 0 0.984375 0.359375q0.421875 0.359375 0.53125 0.890625q0.234375 -0.5625 0.75 -0.90625q0.53125 -0.34375 1.171875 -0.34375q0.84375 0 1.25 0.609375q0.421875 0.609375 0.390625 1.578125l0 6.546875l-1.234375 0l0 -6.046875q0 -1.0625 -0.203125 -1.375q-0.203125 -0.328125 -0.59375 -0.328125q-0.34375 0 -0.65625 0.328125q-0.3125 0.3125 -0.515625 0.8125q-0.1875 0.484375 -0.1875 0.96875l0 5.640625l-1.25 0l0 -5.9375q0 -1.046875 -0.203125 -1.40625q-0.1875 -0.359375 -0.734375 -0.359375q-0.28125 0 -0.578125 0.25q-0.28125 0.25 -0.46875 0.71875q-0.1875 0.453125 -0.1875 1.046875l0 5.6875l-1.234375 0l0 -8.53125z" fill-rule="nonzero"></path><path fill="#cfe2f3" d="m198.36351 106.98688l22.97638 -22.0l22.97638 22.0l-22.97638 22.0z" fill-rule="evenodd"></path><path stroke="#000000" stroke-width="1.0" stroke-linejoin="round" stroke-linecap="butt" d="m198.36351 106.98688l22.97638 -22.0l22.97638 22.0l-22.97638 22.0z" fill-rule="evenodd"></path><path fill="#cfe2f3" d="m198.36226 16.425175l22.976318 -15.831999l22.976334 15.831999l-8.776169 25.616714l-28.400314 0z" fill-rule="evenodd"></path><path stroke="#000000" stroke-width="1.0" stroke-linejoin="round" stroke-linecap="butt" d="m198.36226 16.425175l22.976318 -15.831999l22.976334 15.831999l-8.776169 25.616714l-28.400314 0z" fill-rule="evenodd"></path><path fill="#cfe2f3" d="m127.814964 235.48294l45.95275 0l0 44.0l-45.95275 0z" fill-rule="evenodd"></path><path stroke="#000000" stroke-width="1.0" stroke-linejoin="round" stroke-linecap="butt" d="m127.814964 235.48294l45.95275 0l0 44.0l-45.95275 0z" fill-rule="evenodd"></path><path fill="#cfe2f3" d="m198.81496 235.48294l45.95276 0l0 44.0l-45.95276 0z" fill-rule="evenodd"></path><path stroke="#000000" stroke-width="1.0" stroke-linejoin="round" stroke-linecap="butt" d="m198.81496 235.48294l45.95276 0l0 44.0l-45.95276 0z" fill-rule="evenodd"></path><path fill="#cfe2f3" d="m269.81497 235.48294l45.95276 0l0 44.0l-45.95276 0z" fill-rule="evenodd"></path><path stroke="#000000" stroke-width="1.0" stroke-linejoin="round" stroke-linecap="butt" d="m269.81497 235.48294l45.95276 0l0 44.0l-45.95276 0z" fill-rule="evenodd"></path><path fill="#000000" fill-opacity="0.0" d="m207.5925 202.98415l-56.7874 32.503937" fill-rule="evenodd"></path><path stroke="#000000" stroke-width="1.0" stroke-linejoin="round" stroke-linecap="butt" d="m207.5925 202.98415l-56.7874 32.503937" fill-rule="evenodd"></path><path fill="#000000" fill-opacity="0.0" d="m221.79265 202.98425l0 32.503937" fill-rule="evenodd"></path><path stroke="#000000" stroke-width="1.0" stroke-linejoin="round" stroke-linecap="butt" d="m221.79265 202.98425l0 32.503937" fill-rule="evenodd"></path><path fill="#000000" fill-opacity="0.0" d="m235.9928 202.98415l56.787415 32.503937" fill-rule="evenodd"></path><path stroke="#000000" stroke-width="1.0" stroke-linejoin="round" stroke-linecap="butt" d="m235.9928 202.98415l56.787415 32.503937" fill-rule="evenodd"></path><path fill="#cfe2f3" d="m198.81631 175.79071l22.976334 -16.806458l22.976334 16.806458l-8.776184 27.193436l-28.4003 0z" fill-rule="evenodd"></path><path stroke="#000000" stroke-width="1.0" stroke-linejoin="round" stroke-linecap="butt" d="m198.81631 175.79071l22.976334 -16.806458l22.976334 16.806458l-8.776184 27.193436l-28.4003 0z" fill-rule="evenodd"></path><path fill="#000000" fill-opacity="0.0" d="m219.99934 160.01312c-1.0 -3.3333282 -5.5 -3.3333282 -6.0 -20.0c-0.5 -16.666664 1.6666718 -63.666664 3.0 -80.0c1.3333282 -16.333332 4.1666718 -15.0 5.0 -18.0" fill-rule="evenodd"></path><path stroke="#000000" stroke-width="1.0" stroke-linejoin="round" stroke-linecap="butt" d="m219.99934 160.01312c-1.0 -3.3333282 -5.5 -3.3333282 -6.0 -20.0c-0.5 -16.666664 1.6666718 -63.666664 3.0 -80.0c1.3333282 -16.333332 4.1666718 -15.0 5.0 -18.0" fill-rule="evenodd"></path></g></svg>

