<?xml version="1.0" encoding="UTF-8" standalone="no"?>
<svg
   xmlns:dc="http://purl.org/dc/elements/1.1/"
   xmlns:cc="http://creativecommons.org/ns#"
   xmlns:rdf="http://www.w3.org/1999/02/22-rdf-syntax-ns#"
   xmlns:svg="http://www.w3.org/2000/svg"
   xmlns="http://www.w3.org/2000/svg"
   xmlns:sodipodi="http://sodipodi.sourceforge.net/DTD/sodipodi-0.dtd"
   xmlns:inkscape="http://www.inkscape.org/namespaces/inkscape"
   version="1.1"
   viewBox="0 0 310.26773 280.66534"
   stroke-miterlimit="10"
   id="svg3924"
   sodipodi:docname="as_broadcast.svg"
   width="310.26773"
   height="280.66534"
   style="fill:none;stroke:none;stroke-linecap:square;stroke-miterlimit:10"
   inkscape:version="0.92.2 5c3e80d, 2017-08-06">
  <metadata
     id="metadata3930">
    <rdf:RDF>
      <cc:Work
         rdf:about="">
        <dc:format>image/svg+xml</dc:format>
        <dc:type
           rdf:resource="http://purl.org/dc/dcmitype/StillImage" />
      </cc:Work>
    </rdf:RDF>
  </metadata>
  <defs
     id="defs3928" />
  <sodipodi:namedview
     pagecolor="#ffffff"
     bordercolor="#666666"
     borderopacity="1"
     objecttolerance="10"
     gridtolerance="10"
     guidetolerance="10"
     inkscape:pageopacity="0"
     inkscape:pageshadow="2"
     inkscape:window-width="3840"
     inkscape:window-height="2087"
     id="namedview3926"
     showgrid="false"
     inkscape:zoom="1.9479167"
     inkscape:cx="634"
     inkscape:cy="-62.771379"
     inkscape:window-x="0"
     inkscape:window-y="0"
     inkscape:window-maximized="1"
     inkscape:current-layer="svg3924" />
  <clipPath
     id="p.0">
    <path
       d="M 0,0 H 1280 V 960 H 0 Z"
       id="path3861"
       inkscape:connector-curvature="0"
       style="clip-rule:nonzero" />
  </clipPath>
  <path
     style="fill:#000000;fill-opacity:0;fill-rule:evenodd"
     inkscape:connector-curvature="0"
     id="path3864"
     d="M -6,0.6824147 H 1274 V 960.68241 H -6 Z" />
  <path
     style="fill:#000000;fill-opacity:0;fill-rule:evenodd"
     inkscape:connector-curvature="0"
     id="path3866"
     d="M 0,0 H 188 V 44 H 0 Z" />
  <path
     style="fill:#000000;fill-rule:nonzero"
     inkscape:connector-curvature="0"
     id="path3868"
     d="M 10.390625,26.919998 V 13.326248 H 15.5 q 1.546875,0 2.484375,0.40625 0.953125,0.40625 1.484375,1.265625 Q 20,15.857498 20,16.794998 q 0,0.875 -0.46875,1.65625 -0.46875,0.765625 -1.4375,1.234375 1.234375,0.359375 1.890625,1.234375 0.671875,0.875 0.671875,2.0625 0,0.953125 -0.40625,1.78125 -0.390625,0.8125 -0.984375,1.265625 -0.59375,0.4375 -1.5,0.671875 -0.890625,0.21875 -2.1875,0.21875 z M 12.1875,19.029373 h 2.9375 q 1.203125,0 1.71875,-0.15625 0.6875,-0.203125 1.03125,-0.671875 0.359375,-0.46875 0.359375,-1.1875 0,-0.671875 -0.328125,-1.1875 -0.328125,-0.515625 -0.9375,-0.703125 -0.59375,-0.203125 -2.0625,-0.203125 H 12.1875 Z m 0,6.28125 h 3.390625 q 0.875,0 1.21875,-0.0625 0.625,-0.109375 1.046875,-0.359375 0.421875,-0.265625 0.6875,-0.765625 0.265625,-0.5 0.265625,-1.140625 0,-0.765625 -0.390625,-1.328125 -0.390625,-0.5625 -1.078125,-0.78125 -0.6875,-0.234375 -1.984375,-0.234375 H 12.1875 Z m 10.490448,1.609375 v -9.859375 h 1.5 v 1.5 q 0.578125,-1.046875 1.0625,-1.375 0.484375,-0.34375 1.078125,-0.34375 0.84375,0 1.71875,0.546875 l -0.578125,1.546875 q -0.609375,-0.359375 -1.234375,-0.359375 -0.546875,0 -0.984375,0.328125 -0.421875,0.328125 -0.609375,0.90625 -0.28125,0.890625 -0.28125,1.953125 v 5.15625 z m 5.603302,-4.921875 q 0,-2.734375 1.53125,-4.0625 1.265625,-1.09375 3.09375,-1.09375 2.03125,0 3.3125,1.34375 1.296875,1.328125 1.296875,3.671875 0,1.90625 -0.578125,3 -0.5625,1.078125 -1.65625,1.6875 -1.078125,0.59375 -2.375,0.59375 -2.0625,0 -3.34375,-1.328125 -1.28125,-1.328125 -1.28125,-3.8125 z m 1.71875,0 q 0,1.890625 0.828125,2.828125 0.828125,0.9375 2.078125,0.9375 1.25,0 2.0625,-0.9375 0.828125,-0.953125 0.828125,-2.890625 0,-1.828125 -0.828125,-2.765625 -0.828125,-0.9375 -2.0625,-0.9375 -1.25,0 -2.078125,0.9375 Q 30,20.107498 30,21.998123 Z m 15.719467,3.703125 q -0.9375,0.796875 -1.796875,1.125 -0.859375,0.3125 -1.84375,0.3125 -1.609375,0 -2.484375,-0.78125 -0.875,-0.796875 -0.875,-2.03125 0,-0.734375 0.328125,-1.328125 0.328125,-0.59375 0.859375,-0.953125 0.53125,-0.359375 1.203125,-0.546875 0.5,-0.140625 1.484375,-0.25 2.03125,-0.25 2.984375,-0.578125 0,-0.34375 0,-0.4375 0,-1.015625 -0.46875,-1.4375 -0.640625,-0.5625 -1.90625,-0.5625 -1.171875,0 -1.734375,0.40625 -0.5625,0.40625 -0.828125,1.46875 l -1.640625,-0.234375 q 0.234375,-1.046875 0.734375,-1.6875 0.515625,-0.640625 1.46875,-0.984375 0.96875,-0.359375 2.25,-0.359375 1.265625,0 2.046875,0.296875 0.78125,0.296875 1.15625,0.75 0.375,0.453125 0.515625,1.140625 0.09375,0.421875 0.09375,1.53125 v 2.234375 q 0,2.328125 0.09375,2.953125 0.109375,0.609375 0.4375,1.171875 h -1.75 q -0.265625,-0.515625 -0.328125,-1.21875 z m -0.140625,-3.71875 q -0.90625,0.359375 -2.734375,0.625 -1.03125,0.140625 -1.453125,0.328125 -0.421875,0.1875 -0.65625,0.546875 -0.234375,0.359375 -0.234375,0.796875 0,0.671875 0.5,1.125 0.515625,0.4375 1.484375,0.4375 0.96875,0 1.71875,-0.421875 0.75,-0.4375 1.109375,-1.15625 0.265625,-0.578125 0.265625,-1.671875 z m 10.469467,4.9375 v -1.25 q -0.9375,1.46875 -2.75,1.46875 -1.171875,0 -2.171875,-0.640625 -0.984375,-0.65625 -1.53125,-1.8125 -0.53125,-1.171875 -0.53125,-2.6875 0,-1.46875 0.484375,-2.671875 0.5,-1.203125 1.46875,-1.84375 0.984375,-0.640625 2.203125,-0.640625 0.890625,0 1.578125,0.375 0.703125,0.375 1.140625,0.984375 v -4.875 h 1.65625 v 13.59375 z m -5.28125,-4.921875 q 0,1.890625 0.796875,2.828125 0.8125,0.9375 1.890625,0.9375 1.09375,0 1.859375,-0.890625 0.765625,-0.890625 0.765625,-2.734375 0,-2.015625 -0.78125,-2.953125 -0.78125,-0.953125 -1.921875,-0.953125 -1.109375,0 -1.859375,0.90625 -0.75,0.90625 -0.75,2.859375 z m 15.703842,1.3125 1.640625,0.21875 q -0.265625,1.6875 -1.375,2.65625 -1.109375,0.953125 -2.734375,0.953125 -2.015625,0 -3.25,-1.3125 -1.21875,-1.328125 -1.21875,-3.796875 0,-1.59375 0.515625,-2.78125 0.53125,-1.203125 1.609375,-1.796875 1.09375,-0.609375 2.359375,-0.609375 1.609375,0 2.625,0.8125 1.015625,0.8125 1.3125,2.3125 l -1.625,0.25 q -0.234375,-1 -0.828125,-1.5 -0.59375,-0.5 -1.421875,-0.5 -1.265625,0 -2.0625,0.90625 -0.78125,0.90625 -0.78125,2.859375 0,1.984375 0.765625,2.890625 0.765625,0.890625 1.984375,0.890625 0.984375,0 1.640625,-0.59375 0.65625,-0.609375 0.84375,-1.859375 z m 9.328125,2.390625 q -0.9375,0.796875 -1.796875,1.125 -0.859375,0.3125 -1.84375,0.3125 -1.609375,0 -2.484375,-0.78125 -0.875,-0.796875 -0.875,-2.03125 0,-0.734375 0.328125,-1.328125 0.328125,-0.59375 0.859375,-0.953125 0.53125,-0.359375 1.203125,-0.546875 0.5,-0.140625 1.484375,-0.25 2.03125,-0.25 2.984375,-0.578125 0,-0.34375 0,-0.4375 0,-1.015625 -0.46875,-1.4375 -0.640625,-0.5625 -1.90625,-0.5625 -1.171875,0 -1.734375,0.40625 -0.5625,0.40625 -0.828125,1.46875 l -1.640625,-0.234375 q 0.234375,-1.046875 0.734375,-1.6875 0.515625,-0.640625 1.46875,-0.984375 0.96875,-0.359375 2.25,-0.359375 1.265625,0 2.046875,0.296875 0.78125,0.296875 1.15625,0.75 0.375,0.453125 0.515625,1.140625 0.09375,0.421875 0.09375,1.53125 v 2.234375 q 0,2.328125 0.09375,2.953125 0.109375,0.609375 0.4375,1.171875 h -1.75 q -0.265625,-0.515625 -0.328125,-1.21875 z m -0.140625,-3.71875 q -0.90625,0.359375 -2.734375,0.625 -1.03125,0.140625 -1.453125,0.328125 -0.421875,0.1875 -0.65625,0.546875 -0.234375,0.359375 -0.234375,0.796875 0,0.671875 0.5,1.125 0.515625,0.4375 1.484375,0.4375 0.96875,0 1.71875,-0.421875 0.75,-0.4375 1.109375,-1.15625 0.265625,-0.578125 0.265625,-1.671875 z m 3.406967,2 1.65625,-0.265625 q 0.140625,1 0.765625,1.53125 0.640625,0.515625 1.78125,0.515625 1.15625,0 1.703125,-0.46875 0.5625,-0.46875 0.5625,-1.09375 0,-0.5625 -0.484375,-0.890625 -0.34375,-0.21875 -1.703125,-0.5625 -1.84375,-0.46875 -2.5625,-0.796875 -0.703125,-0.34375 -1.078125,-0.9375 -0.359375,-0.609375 -0.359375,-1.328125 0,-0.65625 0.296875,-1.21875 0.3125,-0.5625 0.828125,-0.9375 0.390625,-0.28125 1.0625,-0.484375 0.671875,-0.203125 1.4375,-0.203125 1.171875,0 2.046875,0.34375 0.875,0.328125 1.28125,0.90625 0.421875,0.5625 0.578125,1.515625 l -1.625,0.21875 q -0.109375,-0.75 -0.65625,-1.171875 -0.53125,-0.4375 -1.5,-0.4375 -1.15625,0 -1.640625,0.390625 -0.484375,0.375 -0.484375,0.875 0,0.328125 0.203125,0.59375 0.203125,0.265625 0.640625,0.4375 0.25,0.09375 1.46875,0.4375 1.765625,0.46875 2.46875,0.765625 0.703125,0.296875 1.09375,0.875 0.40625,0.578125 0.40625,1.4375 0,0.828125 -0.484375,1.578125 -0.484375,0.734375 -1.40625,1.140625 -0.921875,0.390625 -2.078125,0.390625 -1.921875,0 -2.9375,-0.796875 -1,-0.796875 -1.28125,-2.359375 z m 13.65625,1.4375 0.234375,1.484375 q -0.703125,0.140625 -1.265625,0.140625 -0.90625,0 -1.40625,-0.28125 -0.5,-0.296875 -0.703125,-0.75 -0.203125,-0.46875 -0.203125,-1.984375 v -5.65625 h -1.234375 v -1.3125 h 1.234375 v -2.4375 l 1.65625,-1 v 3.4375 h 1.6875 v 1.3125 h -1.6875 v 5.75 q 0,0.71875 0.07813,0.921875 0.09375,0.203125 0.296875,0.328125 0.203125,0.125 0.578125,0.125 0.265625,0 0.734375,-0.07813 z m 6.319732,-2.875 1.6875,-0.140625 q 0.125,1.015625 0.5625,1.671875 0.4375,0.65625 1.35938,1.0625 0.9375,0.40625 2.09375,0.40625 1.03125,0 1.8125,-0.3125 0.79687,-0.3125 1.1875,-0.84375 0.39062,-0.53125 0.39062,-1.15625 0,-0.640625 -0.375,-1.109375 -0.375,-0.484375 -1.23437,-0.8125 -0.54688,-0.21875 -2.42188,-0.65625 -1.875,-0.453125 -2.625,-0.859375 -0.96875,-0.515625 -1.45312,-1.265625 -0.46875,-0.75 -0.46875,-1.6875 0,-1.03125 0.57812,-1.921875 0.59375,-0.90625 1.70313,-1.359375 1.125,-0.46875 2.5,-0.46875 1.51562,0 2.67187,0.484375 1.15625,0.484375 1.76563,1.4375 0.625,0.9375 0.67187,2.140625 l -1.71875,0.125 q -0.14062,-1.28125 -0.95312,-1.9375 -0.79688,-0.671875 -2.35938,-0.671875 -1.625,0 -2.375,0.609375 -0.75,0.59375 -0.75,1.4375 0,0.734375 0.53125,1.203125 0.51563,0.46875 2.70313,0.96875 2.20312,0.5 3.01562,0.875 1.1875,0.546875 1.75,1.390625 0.57813,0.828125 0.57813,1.921875 0,1.09375 -0.625,2.0625 -0.625,0.953125 -1.79688,1.484375 -1.15625,0.53125 -2.60937,0.53125 -1.84375,0 -3.09375,-0.53125 -1.25,-0.546875 -1.96875,-1.625 -0.70313,-1.078125 -0.73438,-2.453125 z m 16.49045,2.875 0.23437,1.484375 q -0.70312,0.140625 -1.26562,0.140625 -0.90625,0 -1.40625,-0.28125 -0.5,-0.296875 -0.70313,-0.75 -0.20312,-0.46875 -0.20312,-1.984375 v -5.65625 h -1.23438 v -1.3125 h 1.23438 v -2.4375 l 1.65625,-1 v 3.4375 h 1.6875 v 1.3125 h -1.6875 v 5.75 q 0,0.71875 0.0781,0.921875 0.0937,0.203125 0.29688,0.328125 0.20312,0.125 0.57812,0.125 0.26563,0 0.73438,-0.07813 z m 1.51143,1.5 v -9.859375 h 1.5 v 1.5 q 0.57812,-1.046875 1.0625,-1.375 0.48437,-0.34375 1.07812,-0.34375 0.84375,0 1.71875,0.546875 l -0.57812,1.546875 q -0.60938,-0.359375 -1.23438,-0.359375 -0.54687,0 -0.98437,0.328125 -0.42188,0.328125 -0.60938,0.90625 -0.28125,0.890625 -0.28125,1.953125 v 5.15625 z m 12.9783,-3.171875 1.71875,0.21875 q -0.40625,1.5 -1.51563,2.34375 -1.09375,0.828125 -2.8125,0.828125 -2.15625,0 -3.42187,-1.328125 -1.26563,-1.328125 -1.26563,-3.734375 0,-2.484375 1.26563,-3.859375 1.28125,-1.375 3.32812,-1.375 1.98438,0 3.23438,1.34375 1.25,1.34375 1.25,3.796875 0,0.140625 -0.0156,0.4375 h -7.34375 q 0.0937,1.625 0.92188,2.484375 0.82812,0.859375 2.0625,0.859375 0.90625,0 1.54687,-0.46875 0.65625,-0.484375 1.04688,-1.546875 z m -5.48438,-2.703125 h 5.5 q -0.10937,-1.234375 -0.625,-1.859375 -0.79687,-0.96875 -2.07812,-0.96875 -1.14063,0 -1.9375,0.78125 -0.78125,0.765625 -0.85938,2.046875 z m 15.5476,4.65625 q -0.9375,0.796875 -1.79688,1.125 -0.85937,0.3125 -1.84375,0.3125 -1.60937,0 -2.48437,-0.78125 -0.875,-0.796875 -0.875,-2.03125 0,-0.734375 0.32812,-1.328125 0.32813,-0.59375 0.85938,-0.953125 0.53125,-0.359375 1.20312,-0.546875 0.5,-0.140625 1.48438,-0.25 2.03125,-0.25 2.98437,-0.578125 0,-0.34375 0,-0.4375 0,-1.015625 -0.46875,-1.4375 -0.64062,-0.5625 -1.90625,-0.5625 -1.17187,0 -1.73437,0.40625 -0.5625,0.40625 -0.82813,1.46875 L 133.366,19.873123 q 0.23437,-1.046875 0.73437,-1.6875 0.51563,-0.640625 1.46875,-0.984375 0.96875,-0.359375 2.25,-0.359375 1.26563,0 2.04688,0.296875 0.78125,0.296875 1.15625,0.75 0.375,0.453125 0.51562,1.140625 0.0937,0.421875 0.0937,1.53125 v 2.234375 q 0,2.328125 0.0937,2.953125 0.10938,0.609375 0.4375,1.171875 h -1.75 q -0.26562,-0.515625 -0.32812,-1.21875 z m -0.14063,-3.71875 q -0.90625,0.359375 -2.73437,0.625 -1.03125,0.140625 -1.45313,0.328125 -0.42187,0.1875 -0.65625,0.546875 -0.23437,0.359375 -0.23437,0.796875 0,0.671875 0.5,1.125 0.51562,0.4375 1.48437,0.4375 0.96875,0 1.71875,-0.421875 0.75,-0.4375 1.10938,-1.15625 0.26562,-0.578125 0.26562,-1.671875 z m 4.07884,4.9375 v -9.859375 h 1.5 v 1.390625 q 0.45313,-0.71875 1.21875,-1.15625 0.78125,-0.453125 1.76563,-0.453125 1.09375,0 1.79687,0.453125 0.70313,0.453125 0.98438,1.28125 1.17187,-1.734375 3.04687,-1.734375 1.46875,0 2.25,0.8125 0.79688,0.8125 0.79688,2.5 v 6.765625 h -1.67188 v -6.203125 q 0,-1 -0.15625,-1.4375 -0.15625,-0.453125 -0.59375,-0.71875 -0.42187,-0.265625 -1,-0.265625 -1.03125,0 -1.71875,0.6875 -0.6875,0.6875 -0.6875,2.21875 v 5.71875 h -1.67187 v -6.40625 q 0,-1.109375 -0.40625,-1.65625 -0.40625,-0.5625 -1.34375,-0.5625 -0.70313,0 -1.3125,0.375 -0.59375,0.359375 -0.85938,1.078125 -0.26562,0.71875 -0.26562,2.0625 v 5.109375 z" />
  <path
     style="fill:#cfe2f3;fill-rule:evenodd"
     inkscape:connector-curvature="0"
     id="path3870"
     d="m 192.36351,85.669295 h 45.95276 v 43.999995 h -45.95276 z" />
  <path
     style="fill-rule:evenodd;stroke:#000000;stroke-width:1;stroke-linecap:butt;stroke-linejoin:round"
     inkscape:connector-curvature="0"
     id="path3872"
     d="m 192.36351,85.669295 h 45.95276 v 43.999995 h -45.95276 z" />
  <path
     style="fill:#000000;fill-opacity:0;fill-rule:evenodd"
     inkscape:connector-curvature="0"
     id="path3874"
     d="M 12.177166,86.944885 H 152.20867 V 128.3937 H 12.177166 Z" />
  <path
     style="fill:#000000;fill-rule:nonzero"
     inkscape:connector-curvature="0"
     id="path3876"
     d="m 26.09904,113.86487 v -12 h -4.46875 v -1.59374 h 10.765625 v 1.59374 h -4.5 v 12 z m 7.708481,0 v -9.85937 h 1.5 v 1.5 q 0.578125,-1.04688 1.0625,-1.375 0.484375,-0.34375 1.078125,-0.34375 0.84375,0 1.71875,0.54687 l -0.578125,1.54688 q -0.609375,-0.35938 -1.234375,-0.35938 -0.546875,0 -0.984375,0.32813 -0.421875,0.32812 -0.609375,0.90625 -0.28125,0.89062 -0.28125,1.95312 v 5.15625 z m 12.665802,-1.21875 q -0.9375,0.79688 -1.796875,1.125 -0.859375,0.3125 -1.84375,0.3125 -1.609375,0 -2.484375,-0.78125 -0.875,-0.79687 -0.875,-2.03125 0,-0.73437 0.328125,-1.32812 0.328125,-0.59375 0.859375,-0.95313 0.53125,-0.35937 1.203125,-0.54687 0.5,-0.14063 1.484375,-0.25 2.03125,-0.25 2.984375,-0.57813 0,-0.34375 0,-0.4375 0,-1.01562 -0.46875,-1.4375 -0.640625,-0.5625 -1.90625,-0.5625 -1.171875,0 -1.734375,0.40625 -0.5625,0.40625 -0.828125,1.46875 L 39.754573,106.818 q 0.234375,-1.04688 0.734375,-1.6875 0.515625,-0.64063 1.46875,-0.98438 0.96875,-0.35937 2.25,-0.35937 1.265625,0 2.046875,0.29687 0.78125,0.29688 1.15625,0.75 0.375,0.45313 0.515625,1.14063 0.09375,0.42187 0.09375,1.53125 v 2.23437 q 0,2.32813 0.09375,2.95313 0.109375,0.60937 0.4375,1.17187 h -1.75 q -0.265625,-0.51562 -0.328125,-1.21875 z m -0.140625,-3.71875 q -0.90625,0.35938 -2.734375,0.625 -1.03125,0.14063 -1.453125,0.32813 -0.421875,0.1875 -0.65625,0.54687 -0.234375,0.35938 -0.234375,0.79688 0,0.67187 0.5,1.125 0.515625,0.4375 1.484375,0.4375 0.96875,0 1.71875,-0.42188 0.75,-0.4375 1.109375,-1.15625 0.265625,-0.57812 0.265625,-1.67187 z m 4.078842,4.9375 v -9.85937 h 1.5 v 1.40625 q 1.09375,-1.625 3.140625,-1.625 0.890625,0 1.640625,0.32812 0.75,0.3125 1.109375,0.84375 0.374996,0.51563 0.531246,1.21875 0.09375,0.46875 0.09375,1.625 v 6.0625 H 56.75529 v -6 q 0,-1.01562 -0.203125,-1.51562 -0.1875,-0.51563 -0.6875,-0.8125 -0.5,-0.29688 -1.171875,-0.29688 -1.0625,0 -1.84375,0.67188 -0.765625,0.67187 -0.765625,2.57812 v 5.375 z m 9.703838,-2.9375 1.65625,-0.26562 q 0.140625,1 0.765625,1.53125 0.640625,0.51562 1.78125,0.51562 1.15625,0 1.703125,-0.46875 0.5625,-0.46875 0.5625,-1.09375 0,-0.5625 -0.484375,-0.89062 -0.34375,-0.21875 -1.703125,-0.5625 -1.84375,-0.46875 -2.5625,-0.79688 -0.703125,-0.34375 -1.078125,-0.9375 -0.359375,-0.60937 -0.359375,-1.32812 0,-0.65625 0.296875,-1.21875 0.3125,-0.5625 0.828125,-0.9375 0.390625,-0.28125 1.0625,-0.48438 0.671875,-0.20312 1.4375,-0.20312 1.171875,0 2.046875,0.34375 0.875,0.32812 1.28125,0.90625 0.421875,0.5625 0.578125,1.51562 l -1.625,0.21875 q -0.109375,-0.75 -0.65625,-1.17187 -0.53125,-0.4375 -1.5,-0.4375 -1.15625,0 -1.640625,0.39062 -0.484375,0.375 -0.484375,0.875 0,0.32813 0.203125,0.59375 0.203125,0.26563 0.640625,0.4375 0.25,0.0937 1.46875,0.4375 1.765625,0.46875 2.46875,0.76563 0.703125,0.29687 1.09375,0.875 0.40625,0.57812 0.40625,1.4375 0,0.82812 -0.484375,1.57812 -0.484375,0.73438 -1.40625,1.14063 -0.921875,0.39062 -2.078125,0.39062 -1.921875,0 -2.9375,-0.79687 -1,-0.79688 -1.28125,-2.35938 z m 10.40625,2.9375 V 105.318 h -1.484375 v -1.3125 h 1.484375 v -1.04688 q 0,-0.98437 0.171875,-1.46875 0.234375,-0.65625 0.84375,-1.04687 0.609375,-0.40625 1.703125,-0.40625 0.703125,0 1.5625,0.15625 l -0.25,1.46875 q -0.515625,-0.0937 -0.984375,-0.0937 -0.765625,0 -1.078125,0.32812 -0.3125,0.3125 -0.3125,1.20313 v 0.90625 h 1.921875 v 1.3125 h -1.921875 v 8.54687 z m 4.152054,-4.92187 q 0,-2.73438 1.53125,-4.0625 1.265625,-1.09375 3.09375,-1.09375 2.03125,0 3.3125,1.34375 1.296875,1.32812 1.296875,3.67187 0,1.90625 -0.578125,3 -0.5625,1.07813 -1.65625,1.6875 -1.078125,0.59375 -2.375,0.59375 -2.0625,0 -3.34375,-1.32812 -1.28125,-1.32813 -1.28125,-3.8125 z m 1.71875,0 q 0,1.89062 0.828125,2.82812 0.828125,0.9375 2.078125,0.9375 1.25,0 2.0625,-0.9375 0.828125,-0.95312 0.828125,-2.89062 0,-1.82813 -0.828125,-2.76563 -0.828125,-0.9375 -2.0625,-0.9375 -1.25,0 -2.078125,0.9375 -0.828125,0.9375 -0.828125,2.82813 z m 9.266342,4.92187 v -9.85937 h 1.5 v 1.5 q 0.578125,-1.04688 1.0625,-1.375 0.484375,-0.34375 1.078125,-0.34375 0.84375,0 1.71875,0.54687 l -0.578125,1.54688 q -0.609375,-0.35938 -1.234375,-0.35938 -0.546875,0 -0.984375,0.32813 -0.421875,0.32812 -0.609375,0.90625 -0.28125,0.89062 -0.28125,1.95312 v 5.15625 z m 6.228302,0 v -9.85937 h 1.5 v 1.39062 q 0.453125,-0.71875 1.218754,-1.15625 0.78125,-0.45312 1.76562,-0.45312 1.09375,0 1.79688,0.45312 0.70312,0.45313 0.98437,1.28125 1.17188,-1.73437 3.04688,-1.73437 1.46875,0 2.25,0.8125 0.79687,0.8125 0.79687,2.5 v 6.76562 h -1.67187 v -6.20312 q 0,-1 -0.15625,-1.4375 -0.15625,-0.45313 -0.59375,-0.71875 -0.42188,-0.26563 -1,-0.26563 -1.03125,0 -1.71875,0.6875 -0.6875,0.6875 -0.6875,2.21875 v 5.71875 h -1.67188 v -6.40625 q 0,-1.10937 -0.40625,-1.65625 -0.40625,-0.5625 -1.34375,-0.5625 -0.70312,0 -1.3125,0.375 -0.59375,0.35938 -0.859374,1.07813 -0.265625,0.71875 -0.265625,2.0625 v 5.10937 z m 22.290804,-3.17187 1.71875,0.21875 q -0.40625,1.5 -1.51563,2.34375 -1.09375,0.82812 -2.8125,0.82812 -2.15625,0 -3.42187,-1.32812 -1.26563,-1.32813 -1.26563,-3.73438 0,-2.48437 1.26563,-3.85937 1.28125,-1.375 3.32812,-1.375 1.98438,0 3.23438,1.34375 1.25,1.34375 1.25,3.79687 0,0.14063 -0.0156,0.4375 h -7.34375 q 0.0937,1.625 0.92188,2.48438 0.82812,0.85937 2.0625,0.85937 0.90625,0 1.54687,-0.46875 0.65625,-0.48437 1.04688,-1.54687 z m -5.48438,-2.70313 h 5.5 q -0.10937,-1.23437 -0.625,-1.85937 -0.79687,-0.96875 -2.07812,-0.96875 -1.14063,0 -1.9375,0.78125 -0.78125,0.76562 -0.85938,2.04687 z m 9.09447,5.875 v -9.85937 h 1.5 v 1.5 q 0.57813,-1.04688 1.0625,-1.375 0.48438,-0.34375 1.07813,-0.34375 0.84375,0 1.71875,0.54687 l -0.57812,1.54688 q -0.60938,-0.35938 -1.23438,-0.35938 -0.54688,0 -0.98438,0.32813 -0.42187,0.32812 -0.60937,0.90625 -0.28125,0.89062 -0.28125,1.95312 v 5.15625 z" />
  <path
     style="fill:#000000;fill-opacity:0;fill-rule:evenodd"
     inkscape:connector-curvature="0"
     id="path3878"
     d="M 0.0026245,159.66666 H 188.00262 v 44 H 0.0026245 Z" />
  <path
     style="fill:#000000;fill-rule:nonzero"
     inkscape:connector-curvature="0"
     id="path3880"
     d="m 13.5495,177.86791 q 1.828125,0 2.78125,0.95312 0.96875,0.95313 0.96875,3.23438 v 4.53125 h -1.453125 v -1.3125 q -0.78125,1.51562 -2.90625,1.51562 -1.421875,0 -2.21875,-0.64062 -0.796875,-0.64063 -0.796875,-1.70313 0,-0.90625 0.578125,-1.57812 0.578125,-0.67188 1.546875,-1.03125 0.984375,-0.35938 2.15625,-0.35938 1.0625,0 1.921875,0.10938 -0.109375,-1.4375 -0.75,-2.01563 -0.640625,-0.59375 -1.921875,-0.59375 -0.625,0 -1.21875,0.25 -0.578125,0.23438 -1.0625,0.70313 l -0.65625,-0.85938 q 1.1875,-1.20312 3.03125,-1.20312 z m -0.484375,7.89062 q 1.390625,0 2.1875,-0.79687 0.796875,-0.8125 0.875,-2.34375 -0.84375,-0.14063 -1.8125,-0.14063 -1.40625,0 -2.234375,0.46875 -0.828125,0.46875 -0.828125,1.42188 0,1.39062 1.8125,1.39062 z M 23.612,181.57103 q 1.609375,0.48438 2.265625,1.0625 0.65625,0.5625 0.65625,1.46875 0,1.15625 -0.90625,1.92188 -0.890625,0.75 -2.609375,0.75 -2.171875,0 -3.625,-1.34375 l 0.75,-1.26563 0.01563,-0.0156 0.01563,0.0156 q 0.578125,0.75 1.1875,1.125 0.625,0.35938 1.6875,0.35938 1.015625,0 1.59375,-0.35938 0.578125,-0.35937 0.578125,-1 0,-0.53125 -0.46875,-0.89062 -0.46875,-0.35938 -1.6875,-0.75 -3.203135,-0.90625 -3.203135,-2.64063 0,-1 0.8125,-1.57812 0.8125,-0.57813 2.328125,-0.57813 1.15625,0 1.9375,0.32813 0.796875,0.32812 1.453125,1.01562 l -0.765625,0.9375 -0.01563,0.0156 q -0.390625,-0.59375 -1.109375,-0.9375 -0.71875,-0.34375 -1.46875,-0.34375 -0.796875,0 -1.3125,0.28125 -0.515625,0.28125 -0.515625,0.78125 0,0.46875 0.515625,0.85937 0.53125,0.39063 1.890625,0.78125 z m 1.796875,-1.39062 q 0,-0.0937 0.140625,0.0312 l -0.0625,0.0625 z m 0.203125,-0.0312 q 0.04687,0.0781 0.03125,0.0937 0,0.0156 -0.04687,0 -0.03125,-0.0156 -0.04687,-0.0312 z m -5.25,3.9375 q 0,0.0781 -0.171875,0 l 0.0625,-0.0937 0.109375,0.0781 z m -0.203125,0.0625 q -0.0625,-0.0937 -0.04687,-0.0937 0.03125,0 0.07813,0.0312 z m 8.390625,-9.1875 h 3.3125 q 1.9375,0 2.890625,0.76562 0.96875,0.75 0.96875,2.04688 0,0.85937 -0.46875,1.57812 -0.453125,0.71875 -1.25,1 0.96875,0.34375 1.578125,1.17188 0.609375,0.82812 0.609375,1.79687 0,1.53125 -1.09375,2.40625 -1.078125,0.85938 -3.265625,0.85938 H 28.5495 Z m 3.125,4.8125 q 2.734375,0 2.734375,-1.84375 0,-0.84375 -0.625,-1.34375 -0.609375,-0.51563 -1.90625,-0.51563 h -2.03125 v 3.70313 z m 0.390625,5.67187 q 2.734375,0 2.734375,-2.20312 0,-2.35938 -3.0625,-2.35938 h -1.890625 v 4.5625 z m 12.875,-5.60937 v 0.0156 q -0.546875,-0.5 -0.921875,-0.67187 -0.359375,-0.17188 -0.84375,-0.17188 -0.671875,0 -1.265625,0.34375 -0.59375,0.32813 -0.96875,1.01563 -0.375,0.67187 -0.375,1.70312 v 4.53125 H 39.20575 v -8.5469 H 40.612 l -0.04687,1.57812 q 0.359375,-0.84375 1.09375,-1.3125 0.734375,-0.46875 1.609375,-0.46875 1.375,0 2.265625,0.9375 z m 0,0.0156 q 0.125,0.10938 0.0625,0.0937 -0.0625,-0.0156 -0.109375,-0.0312 z m -0.203125,0.0625 q 0,-0.0625 0.04687,-0.0469 0.0625,0 0.109375,0.0469 l -0.03125,0.0937 -0.125,-0.0781 z m 6.25,6.82813 q -1.140625,0 -2.046875,-0.5625 -0.890625,-0.5625 -1.390625,-1.5625 -0.5,-1.01563 -0.5,-2.29688 0,-1.29687 0.5,-2.29687 0.5,-1.01563 1.390625,-1.57813 0.90625,-0.57812 2.046875,-0.57812 1.125,0 2.015625,0.57812 0.90625,0.5625 1.40625,1.57813 0.5,1 0.5,2.29687 0,1.28125 -0.5,2.29688 -0.5,1 -1.40625,1.5625 -0.890625,0.5625 -2.015625,0.5625 z m 0,-1.125 q 0.71875,0 1.28125,-0.42188 0.578125,-0.4375 0.90625,-1.1875 0.328125,-0.76562 0.328125,-1.71875 0,-1.45312 -0.71875,-2.375 -0.703125,-0.92187 -1.796875,-0.92187 -1.109375,0 -1.828125,0.92187 -0.703125,0.92188 -0.703125,2.375 0,0.95313 0.328125,1.71875 0.328125,0.75 0.890625,1.1875 0.578125,0.42188 1.3125,0.42188 z m 9.203125,-7.75 q 1.828125,0 2.78125,0.95312 0.96875,0.95313 0.96875,3.23438 v 4.53125 H 62.487 v -1.3125 q -0.78125,1.51562 -2.90625,1.51562 -1.421875,0 -2.21875,-0.64062 -0.796875,-0.64063 -0.796875,-1.70313 0,-0.90625 0.578125,-1.57812 0.578125,-0.67188 1.546875,-1.03125 0.984375,-0.35938 2.15625,-0.35938 1.0625,0 1.921875,0.10938 -0.109375,-1.4375 -0.75,-2.01563 -0.640625,-0.59375 -1.921875,-0.59375 -0.625,0 -1.21875,0.25 -0.578125,0.23438 -1.0625,0.70313 l -0.65625,-0.85938 q 1.1875,-1.20312 3.03125,-1.20312 z m -0.484375,7.89062 q 1.390625,0 2.1875,-0.79687 0.796875,-0.8125 0.875,-2.34375 -0.84375,-0.14063 -1.8125,-0.14063 -1.40625,0 -2.234375,0.46875 -0.828125,0.46875 -0.828125,1.42188 0,1.39062 1.8125,1.39062 z m 9.625,1.01563 q -0.90625,0 -1.71875,-0.51563 -0.796875,-0.51562 -1.296875,-1.53125 -0.5,-1.03125 -0.5,-2.48437 0,-1.48438 0.515625,-2.46875 0.53125,-0.98438 1.34375,-1.45313 0.828125,-0.48437 1.734375,-0.48437 0.859375,0 1.5,0.39062 0.640625,0.39063 0.984375,1.07813 v -5.125 h 1.421875 v 0.125 q -0.109375,0.125 -0.140625,0.25 -0.03125,0.125 -0.03125,0.45312 l 0.01563,10.25 q 0,0.45313 0.03125,0.75 0.03125,0.28125 0.15625,0.57813 h -1.32813 q -0.125,-0.29688 -0.15625,-0.57813 -0.03125,-0.29687 -0.03125,-0.75 -0.40625,0.71875 -1.046875,1.125 -0.640625,0.39063 -1.453125,0.39063 z m 0.21875,-1.17188 q 1.15625,0 1.6875,-0.90625 0.546875,-0.92187 0.546875,-2.42187 0,-1.51563 -0.59375,-2.42188 -0.578125,-0.9219 -1.765625,-0.9219 -1.109375,0 -1.71875,0.84375 -0.59375,0.82812 -0.59375,2.26562 0,1.64063 0.625,2.60938 0.625,0.95312 1.8125,0.95312 z m 10.140625,-0.0156 q 1.28125,0 2.21875,-1.04688 l 0.78125,0.90625 q -1.25,1.34375 -3.078125,1.34375 -1.234375,0 -2.203125,-0.57812 -0.96875,-0.57813 -1.515625,-1.59375 -0.546875,-1.01563 -0.546875,-2.28125 0,-1.26563 0.546875,-2.26563 0.546875,-1.01562 1.515625,-1.59375 0.96875,-0.57812 2.1875,-0.57812 1.03125,0 1.859375,0.42187 0.84375,0.40625 1.375,1.15625 l -0.84375,0.82813 -0.01563,0.0156 q -0.546875,-0.71875 -1.125,-1 -0.5625,-0.29687 -1.390625,-0.29687 -0.734375,0 -1.359375,0.40625 -0.625,0.40625 -1,1.14062 -0.375,0.71875 -0.375,1.67188 0,0.95312 0.375,1.71875 0.390625,0.76562 1.0625,1.20312 0.6875,0.42188 1.53125,0.42188 z m 2.078125,-5.25 q 0,-0.10938 0.15625,0.0156 l -0.0625,0.0781 z m 0.203125,-0.0156 q 0.09375,0.125 0.04687,0.0937 -0.04687,-0.0469 -0.09375,-0.0625 z m 6.203125,-2.4532 q 1.828125,0 2.78125,0.95312 0.96875,0.95313 0.96875,3.23438 v 4.53125 h -1.453125 v -1.3125 q -0.78125,1.51562 -2.90625,1.51562 -1.421875,0 -2.21875,-0.64062 -0.796875,-0.64063 -0.796875,-1.70313 0,-0.90625 0.578125,-1.57812 0.578125,-0.67188 1.546875,-1.03125 0.984375,-0.35938 2.15625,-0.35938 1.0625,0 1.921875,0.10938 -0.109375,-1.4375 -0.75,-2.01563 -0.640625,-0.59375 -1.921875,-0.59375 -0.625,0 -1.21875,0.25 -0.578125,0.23438 -1.0625,0.70313 l -0.65625,-0.85938 q 1.1875,-1.20312 3.03125,-1.20312 z m -0.484375,7.89062 q 1.390625,0 2.1875,-0.79687 0.796875,-0.8125 0.875,-2.34375 -0.84375,-0.14063 -1.8125,-0.14063 -1.40625,0 -2.234375,0.46875 -0.828125,0.46875 -0.828125,1.42188 0,1.39062 1.8125,1.39062 z M 98.237,181.57103 q 1.60937,0.48438 2.26562,1.0625 0.65625,0.5625 0.65625,1.46875 0,1.15625 -0.90625,1.92188 -0.89062,0.75 -2.60937,0.75 -2.17188,0 -3.625,-1.34375 l 0.75,-1.26563 0.0156,-0.0156 0.0156,0.0156 q 0.57812,0.75 1.1875,1.125 0.625,0.35938 1.6875,0.35938 1.01562,0 1.59375,-0.35938 0.57812,-0.35937 0.57812,-1 0,-0.53125 -0.46875,-0.89062 -0.46875,-0.35938 -1.6875,-0.75 -3.20312,-0.90625 -3.20312,-2.64063 0,-1 0.8125,-1.57812 0.8125,-0.57813 2.32812,-0.57813 1.15625,0 1.9375,0.32813 0.79688,0.32812 1.45313,1.01562 l -0.76563,0.9375 -0.0156,0.0156 q -0.39063,-0.59375 -1.10938,-0.9375 -0.71875,-0.34375 -1.46875,-0.34375 -0.79687,0 -1.3125,0.28125 -0.51562,0.28125 -0.51562,0.78125 0,0.46875 0.51562,0.85937 0.53125,0.39063 1.89063,0.78125 z m 1.79687,-1.39062 q 0,-0.0937 0.14063,0.0312 l -0.0625,0.0625 z m 0.20313,-0.0312 q 0.0469,0.0781 0.0312,0.0937 0,0.0156 -0.0469,0 -0.0312,-0.0156 -0.0469,-0.0312 z m -5.25,3.9375 q 0,0.0781 -0.17188,0 l 0.0625,-0.0937 0.10938,0.0781 z m -0.20313,0.0625 q -0.0625,-0.0937 -0.0469,-0.0937 0.0312,0 0.0781,0.0312 z m 15.78125,1.65625 q -1.23437,0.90625 -2.70312,0.90625 -1.42188,0 -2.01563,-0.84375 -0.57812,-0.85938 -0.57812,-2.8125 0,-0.3125 0.0312,-1.09375 l 0.17187,-2.79688 h -1.875 v -1.10942 h 1.95313 l 0.125,-2.26563 1.5,-0.25 0.1875,-0.0156 0.0156,0.10937 q -0.125,0.1875 -0.20312,0.32813 -0.0625,0.125 -0.0781,0.40625 l -0.20312,1.6875 h 2.82812 v 1.10937 h -2.90625 l -0.17187,2.89063 q -0.0312,0.75 -0.0312,0.98437 0,1.5 0.34375,2.03125 0.34375,0.53125 1.10937,0.53125 0.5625,0 1.03125,-0.20312 0.46875,-0.21875 1.0625,-0.65625 z m 6.60938,-5.64063 q 1.65625,0.6875 2.28125,1.42188 0.64062,0.73437 0.64062,1.82812 0,0.85938 -0.42187,1.625 -0.40625,0.76563 -1.29688,1.25 -0.875,0.48438 -2.15625,0.48438 -2.26562,0 -3.64062,-1.46875 l 0.67187,-1.1875 v -0.0156 q 0.0156,0 0.0156,0.0156 0,0 0,0 0.51562,0.67187 1.29687,1.07812 0.79688,0.40625 1.84375,0.40625 1.03125,0 1.71875,-0.57812 0.6875,-0.57813 0.6875,-1.42188 0,-0.54687 -0.21875,-0.90625 -0.21875,-0.35937 -0.78125,-0.71875 -0.54687,-0.35937 -1.67187,-0.84375 -1.71875,-0.67187 -2.45313,-1.51562 -0.73437,-0.85938 -0.73437,-1.9375 0,-1.29688 0.95312,-2.07813 0.95313,-0.78125 2.59375,-0.78125 0.95313,0 1.78125,0.39063 0.82813,0.375 1.4375,1.0625 l -0.71875,0.96875 -0.0156,0.0156 q -0.5625,-0.76562 -1.17188,-1.0625 -0.60937,-0.29687 -1.51562,-0.29687 -0.90625,0 -1.45313,0.5 -0.54687,0.48437 -0.54687,1.1875 0,0.54687 0.23437,0.95312 0.23438,0.39063 0.84375,0.78125 0.625,0.375 1.79688,0.84375 z m 1.59375,-2.875 q 0,-0.0469 0.0781,0 0.0781,0.0312 0.0937,0.0312 l -0.0469,0.0625 -0.125,-0.0625 z m 0.21875,-0.0312 q 0.10937,0.15625 0.0312,0.10938 -0.0625,-0.0469 -0.0781,-0.0469 z m -5.53125,6.79688 q 0,0.0469 -0.0781,0.0156 -0.0625,-0.0469 -0.0937,-0.0469 l 0.0469,-0.0625 0.125,0.0625 z m -0.20313,0.0469 q -0.10937,-0.14062 0.0312,-0.0781 z m 15.96875,1.70313 q -1.23437,0.90625 -2.70312,0.90625 -1.42188,0 -2.01563,-0.84375 -0.57812,-0.85938 -0.57812,-2.8125 0,-0.3125 0.0312,-1.09375 l 0.17187,-2.79688 h -1.875 v -1.1095 h 1.95313 l 0.125,-2.26563 1.5,-0.25 0.1875,-0.0156 0.0156,0.10937 q -0.125,0.1875 -0.20312,0.32813 -0.0625,0.125 -0.0781,0.40625 l -0.20312,1.6875 h 2.82812 v 1.10937 h -2.90625 l -0.17187,2.89063 q -0.0312,0.75 -0.0312,0.98437 0,1.5 0.34375,2.03125 0.34375,0.53125 1.10937,0.53125 0.5625,0 1.03125,-0.20312 0.46875,-0.21875 1.0625,-0.65625 z m 9,-5.96875 v 0.0156 q -0.54687,-0.5 -0.92187,-0.67187 -0.35938,-0.17188 -0.84375,-0.17188 -0.67188,0 -1.26563,0.34375 -0.59375,0.32813 -0.96875,1.01563 -0.375,0.67187 -0.375,1.70312 v 4.53125 H 132.487 v -8.54698 h 1.40625 l -0.0469,1.57812 q 0.35938,-0.84375 1.09375,-1.3125 0.73438,-0.46875 1.60938,-0.46875 1.375,0 2.26562,0.9375 z m 0,0.0156 q 0.125,0.10938 0.0625,0.0937 -0.0625,-0.0156 -0.10937,-0.0312 z m -0.20312,0.0625 q 0,-0.0625 0.0469,-0.0469 0.0625,0 0.10938,0.0469 l -0.0312,0.0937 -0.125,-0.0781 z m 6.65625,6.85938 q -1.90625,0 -3.03125,-1.15625 -1.125,-1.15625 -1.125,-3.26563 0,-1.40625 0.51562,-2.42187 0.51563,-1.01563 1.40625,-1.54688 0.89063,-0.53125 1.98438,-0.53125 1.54687,0 2.5,1.03125 0.96875,1.03125 0.96875,3.01563 0,0.20312 -0.0312,0.625 h -6.0625 q 0.0781,1.5625 0.875,2.375 0.79687,0.79687 2.03125,0.79687 1.34375,0 2.20312,-0.95312 l 0.75,0.71875 q -1.07812,1.3125 -2.98437,1.3125 z m 1.85937,-5.29688 q 0,-1.20312 -0.60937,-1.89062 -0.59375,-0.70313 -1.59375,-0.70313 -0.92188,0 -1.625,0.65625 -0.6875,0.64063 -0.85938,1.9375 z m 6.9375,-3.60937 q 1.82813,0 2.78125,0.95312 0.96875,0.95313 0.96875,3.23438 v 4.53125 h -1.45312 v -1.3125 q -0.78125,1.51562 -2.90625,1.51562 -1.42188,0 -2.21875,-0.64062 -0.79688,-0.64063 -0.79688,-1.70313 0,-0.90625 0.57813,-1.57812 0.57812,-0.67188 1.54687,-1.03125 0.98438,-0.35938 2.15625,-0.35938 1.0625,0 1.92188,0.10938 -0.10938,-1.4375 -0.75,-2.01563 -0.64063,-0.59375 -1.92188,-0.59375 -0.625,0 -1.21875,0.25 -0.57812,0.23438 -1.0625,0.70313 l -0.65625,-0.85938 q 1.1875,-1.20312 3.03125,-1.20312 z m -0.48437,7.89062 q 1.39062,0 2.1875,-0.79687 0.79687,-0.8125 0.875,-2.34375 -0.84375,-0.14063 -1.8125,-0.14063 -1.40625,0 -2.23438,0.46875 -0.82812,0.46875 -0.82812,1.42188 0,1.39062 1.8125,1.39062 z m 5.96875,-7.70312 h 1.23437 v 0.84375 q 0.29688,-0.46875 0.76563,-0.75 0.46875,-0.29688 0.96875,-0.29688 0.5625,0 0.98437,0.35938 0.42188,0.35937 0.53125,0.89062 0.23438,-0.5625 0.75,-0.90625 0.53125,-0.34375 1.17188,-0.34375 0.84375,0 1.25,0.60938 0.42187,0.60937 0.39062,1.57812 v 6.54688 h -1.23437 v -6.04688 q 0,-1.0625 -0.20313,-1.375 -0.20312,-0.32812 -0.59375,-0.32812 -0.34375,0 -0.65625,0.32812 -0.3125,0.3125 -0.51562,0.8125 -0.1875,0.48438 -0.1875,0.96875 v 5.64063 h -1.25 v -5.9375 q 0,-1.04688 -0.20313,-1.40625 -0.1875,-0.35938 -0.73437,-0.35938 -0.28125,0 -0.57813,0.25 -0.28125,0.25 -0.46875,0.71875 -0.1875,0.45313 -0.1875,1.04688 v 5.6875 h -1.23437 z" />
  <path
     style="fill:#cfe2f3;fill-rule:evenodd"
     inkscape:connector-curvature="0"
     id="path3882"
     d="m 192.36351,107.66929 22.97638,-21.999995 22.97638,21.999995 -22.97638,22 z" />
  <path
     style="fill-rule:evenodd;stroke:#000000;stroke-width:1;stroke-linecap:butt;stroke-linejoin:round"
     inkscape:connector-curvature="0"
     id="path3884"
     d="m 192.36351,107.66929 22.97638,-21.999995 22.97638,21.999995 -22.97638,22 z" />
  <path
     style="fill:#cfe2f3;fill-rule:evenodd"
     inkscape:connector-curvature="0"
     id="path3886"
     d="M 192.36226,17.10759 215.33858,1.2755907 238.31491,17.10759 229.53874,42.724304 h -28.40031 z" />
  <path
     style="fill-rule:evenodd;stroke:#000000;stroke-width:1;stroke-linecap:butt;stroke-linejoin:round"
     inkscape:connector-curvature="0"
     id="path3888"
     d="M 192.36226,17.10759 215.33858,1.2755907 238.31491,17.10759 229.53874,42.724304 h -28.40031 z" />
  <path
     style="fill:#cfe2f3;fill-rule:evenodd"
     inkscape:connector-curvature="0"
     id="path3890"
     d="m 121.81496,236.16535 h 45.95275 v 44 h -45.95275 z" />
  <path
     style="fill-rule:evenodd;stroke:#000000;stroke-width:1;stroke-linecap:butt;stroke-linejoin:round"
     inkscape:connector-curvature="0"
     id="path3892"
     d="m 121.81496,236.16535 h 45.95275 v 44 h -45.95275 z" />
  <path
     style="fill:#cfe2f3;fill-rule:evenodd"
     inkscape:connector-curvature="0"
     id="path3894"
     d="m 192.81496,236.16535 h 45.95276 v 44 h -45.95276 z" />
  <path
     style="fill-rule:evenodd;stroke:#000000;stroke-width:1;stroke-linecap:butt;stroke-linejoin:round"
     inkscape:connector-curvature="0"
     id="path3896"
     d="m 192.81496,236.16535 h 45.95276 v 44 h -45.95276 z" />
  <path
     style="fill:#cfe2f3;fill-rule:evenodd"
     inkscape:connector-curvature="0"
     id="path3898"
     d="m 263.81497,236.16535 h 45.95276 v 44 h -45.95276 z" />
  <path
     style="fill-rule:evenodd;stroke:#000000;stroke-width:1;stroke-linecap:butt;stroke-linejoin:round"
     inkscape:connector-curvature="0"
     id="path3900"
     d="m 263.81497,236.16535 h 45.95276 v 44 h -45.95276 z" />
  <path
     style="fill:#000000;fill-opacity:0;fill-rule:evenodd"
     inkscape:connector-curvature="0"
     id="path3902"
     d="M 201.5925,203.66656 144.8051,236.1705" />
  <path
     style="fill-rule:evenodd;stroke:#000000;stroke-width:1;stroke-linecap:butt;stroke-linejoin:round"
     inkscape:connector-curvature="0"
     id="path3904"
     d="M 201.5925,203.66656 144.8051,236.1705" />
  <path
     style="fill:#000000;fill-opacity:0;fill-rule:evenodd"
     inkscape:connector-curvature="0"
     id="path3906"
     d="M 215.79265,203.66666 V 236.1706" />
  <path
     style="fill-rule:evenodd;stroke:#000000;stroke-width:1;stroke-linecap:butt;stroke-linejoin:round"
     inkscape:connector-curvature="0"
     id="path3908"
     d="M 215.79265,203.66666 V 236.1706" />
  <path
     style="fill:#000000;fill-opacity:0;fill-rule:evenodd"
     inkscape:connector-curvature="0"
     id="path3910"
     d="m 229.9928,203.66656 56.78741,32.50394" />
  <path
     style="fill-rule:evenodd;stroke:#000000;stroke-width:1;stroke-linecap:butt;stroke-linejoin:round"
     inkscape:connector-curvature="0"
     id="path3912"
     d="m 229.9928,203.66656 56.78741,32.50394" />
  <path
     style="fill:#cfe2f3;fill-rule:evenodd"
     inkscape:connector-curvature="0"
     id="path3914"
     d="m 192.81631,176.47312 22.97633,-16.80646 22.97634,16.80646 -8.77619,27.19344 h -28.4003 z" />
  <path
     style="fill-rule:evenodd;stroke:#000000;stroke-width:1;stroke-linecap:butt;stroke-linejoin:round"
     inkscape:connector-curvature="0"
     id="path3916"
     d="m 192.81631,176.47312 22.97633,-16.80646 22.97634,16.80646 -8.77619,27.19344 h -28.4003 z" />
  <path
     style="fill:#000000;fill-opacity:0;fill-rule:evenodd"
     inkscape:connector-curvature="0"
     id="path3918"
     d="m 213.99934,160.69553 c -1,-3.33333 -5.5,-3.33333 -6,-20 -0.5,-16.66666 1.66667,-63.666659 3,-79.999995 1.33333,-16.333332 4.16667,-15 5,-18" />
  <path
     style="fill-rule:evenodd;stroke:#000000;stroke-width:1;stroke-linecap:butt;stroke-linejoin:round"
     inkscape:connector-curvature="0"
     id="path3920"
     d="m 213.99934,160.69553 c -1,-3.33333 -5.5,-3.33333 -6,-20 -0.5,-16.66666 1.66667,-63.666659 3,-79.999995 1.33333,-16.333332 4.16667,-15 5,-18" />
</svg>
