<?xml version="1.0" encoding="UTF-8" standalone="no"?>
<svg
   xmlns:dc="http://purl.org/dc/elements/1.1/"
   xmlns:cc="http://creativecommons.org/ns#"
   xmlns:rdf="http://www.w3.org/1999/02/22-rdf-syntax-ns#"
   xmlns:svg="http://www.w3.org/2000/svg"
   xmlns="http://www.w3.org/2000/svg"
   xmlns:sodipodi="http://sodipodi.sourceforge.net/DTD/sodipodi-0.dtd"
   xmlns:inkscape="http://www.inkscape.org/namespaces/inkscape"
   version="1.1"
   viewBox="0 0 389.20865 204.16667"
   stroke-miterlimit="10"
   id="svg4074"
   sodipodi:docname="broadcast_transformer.svg"
   width="389.20865"
   height="204.16667"
   style="fill:none;stroke:none;stroke-linecap:square;stroke-miterlimit:10"
   inkscape:version="0.92.2 5c3e80d, 2017-08-06">
  <metadata
     id="metadata4080">
    <rdf:RDF>
      <cc:Work
         rdf:about="">
        <dc:format>image/svg+xml</dc:format>
        <dc:type
           rdf:resource="http://purl.org/dc/dcmitype/StillImage" />
      </cc:Work>
    </rdf:RDF>
  </metadata>
  <defs
     id="defs4078" />
  <sodipodi:namedview
     pagecolor="#ffffff"
     bordercolor="#666666"
     borderopacity="1"
     objecttolerance="10"
     gridtolerance="10"
     guidetolerance="10"
     inkscape:pageopacity="0"
     inkscape:pageshadow="2"
     inkscape:window-width="1673"
     inkscape:window-height="1181"
     id="namedview4076"
     showgrid="false"
     inkscape:zoom="0.24583333"
     inkscape:cx="634"
     inkscape:cy="-276.51575"
     inkscape:window-x="1050"
     inkscape:window-y="514"
     inkscape:window-maximized="0"
     inkscape:current-layer="svg4074" />
  <clipPath
     id="p.0">
    <path
       d="M 0,0 H 1280 V 960 H 0 Z"
       id="path4019"
       inkscape:connector-curvature="0"
       style="clip-rule:nonzero" />
  </clipPath>
  <path
     style="fill:#000000;fill-opacity:0;fill-rule:evenodd"
     inkscape:connector-curvature="0"
     id="path4022"
     d="M -6,0.6824147 H 1274 V 960.68241 H -6 Z" />
  <path
     style="fill:#000000;fill-opacity:0;fill-rule:evenodd"
     inkscape:connector-curvature="0"
     id="path4024"
     d="M 0,0 H 188 V 44 H 0 Z" />
  <path
     style="fill:#000000;fill-rule:nonzero"
     inkscape:connector-curvature="0"
     id="path4026"
     d="M 10.390625,26.919998 V 13.326248 H 15.5 q 1.546875,0 2.484375,0.40625 0.953125,0.40625 1.484375,1.265625 Q 20,15.857498 20,16.794998 q 0,0.875 -0.46875,1.65625 -0.46875,0.765625 -1.4375,1.234375 1.234375,0.359375 1.890625,1.234375 0.671875,0.875 0.671875,2.0625 0,0.953125 -0.40625,1.78125 -0.390625,0.8125 -0.984375,1.265625 -0.59375,0.4375 -1.5,0.671875 -0.890625,0.21875 -2.1875,0.21875 z M 12.1875,19.029373 h 2.9375 q 1.203125,0 1.71875,-0.15625 0.6875,-0.203125 1.03125,-0.671875 0.359375,-0.46875 0.359375,-1.1875 0,-0.671875 -0.328125,-1.1875 -0.328125,-0.515625 -0.9375,-0.703125 -0.59375,-0.203125 -2.0625,-0.203125 H 12.1875 Z m 0,6.28125 h 3.390625 q 0.875,0 1.21875,-0.0625 0.625,-0.109375 1.046875,-0.359375 0.421875,-0.265625 0.6875,-0.765625 0.265625,-0.5 0.265625,-1.140625 0,-0.765625 -0.390625,-1.328125 -0.390625,-0.5625 -1.078125,-0.78125 -0.6875,-0.234375 -1.984375,-0.234375 H 12.1875 Z m 10.490448,1.609375 v -9.859375 h 1.5 v 1.5 q 0.578125,-1.046875 1.0625,-1.375 0.484375,-0.34375 1.078125,-0.34375 0.84375,0 1.71875,0.546875 l -0.578125,1.546875 q -0.609375,-0.359375 -1.234375,-0.359375 -0.546875,0 -0.984375,0.328125 -0.421875,0.328125 -0.609375,0.90625 -0.28125,0.890625 -0.28125,1.953125 v 5.15625 z m 5.603302,-4.921875 q 0,-2.734375 1.53125,-4.0625 1.265625,-1.09375 3.09375,-1.09375 2.03125,0 3.3125,1.34375 1.296875,1.328125 1.296875,3.671875 0,1.90625 -0.578125,3 -0.5625,1.078125 -1.65625,1.6875 -1.078125,0.59375 -2.375,0.59375 -2.0625,0 -3.34375,-1.328125 -1.28125,-1.328125 -1.28125,-3.8125 z m 1.71875,0 q 0,1.890625 0.828125,2.828125 0.828125,0.9375 2.078125,0.9375 1.25,0 2.0625,-0.9375 0.828125,-0.953125 0.828125,-2.890625 0,-1.828125 -0.828125,-2.765625 -0.828125,-0.9375 -2.0625,-0.9375 -1.25,0 -2.078125,0.9375 Q 30,20.107498 30,21.998123 Z m 15.719467,3.703125 q -0.9375,0.796875 -1.796875,1.125 -0.859375,0.3125 -1.84375,0.3125 -1.609375,0 -2.484375,-0.78125 -0.875,-0.796875 -0.875,-2.03125 0,-0.734375 0.328125,-1.328125 0.328125,-0.59375 0.859375,-0.953125 0.53125,-0.359375 1.203125,-0.546875 0.5,-0.140625 1.484375,-0.25 2.03125,-0.25 2.984375,-0.578125 0,-0.34375 0,-0.4375 0,-1.015625 -0.46875,-1.4375 -0.640625,-0.5625 -1.90625,-0.5625 -1.171875,0 -1.734375,0.40625 -0.5625,0.40625 -0.828125,1.46875 l -1.640625,-0.234375 q 0.234375,-1.046875 0.734375,-1.6875 0.515625,-0.640625 1.46875,-0.984375 0.96875,-0.359375 2.25,-0.359375 1.265625,0 2.046875,0.296875 0.78125,0.296875 1.15625,0.75 0.375,0.453125 0.515625,1.140625 0.09375,0.421875 0.09375,1.53125 v 2.234375 q 0,2.328125 0.09375,2.953125 0.109375,0.609375 0.4375,1.171875 h -1.75 q -0.265625,-0.515625 -0.328125,-1.21875 z m -0.140625,-3.71875 q -0.90625,0.359375 -2.734375,0.625 -1.03125,0.140625 -1.453125,0.328125 -0.421875,0.1875 -0.65625,0.546875 -0.234375,0.359375 -0.234375,0.796875 0,0.671875 0.5,1.125 0.515625,0.4375 1.484375,0.4375 0.96875,0 1.71875,-0.421875 0.75,-0.4375 1.109375,-1.15625 0.265625,-0.578125 0.265625,-1.671875 z m 10.469467,4.9375 v -1.25 q -0.9375,1.46875 -2.75,1.46875 -1.171875,0 -2.171875,-0.640625 -0.984375,-0.65625 -1.53125,-1.8125 -0.53125,-1.171875 -0.53125,-2.6875 0,-1.46875 0.484375,-2.671875 0.5,-1.203125 1.46875,-1.84375 0.984375,-0.640625 2.203125,-0.640625 0.890625,0 1.578125,0.375 0.703125,0.375 1.140625,0.984375 v -4.875 h 1.65625 v 13.59375 z m -5.28125,-4.921875 q 0,1.890625 0.796875,2.828125 0.8125,0.9375 1.890625,0.9375 1.09375,0 1.859375,-0.890625 0.765625,-0.890625 0.765625,-2.734375 0,-2.015625 -0.78125,-2.953125 -0.78125,-0.953125 -1.921875,-0.953125 -1.109375,0 -1.859375,0.90625 -0.75,0.90625 -0.75,2.859375 z m 15.703842,1.3125 1.640625,0.21875 q -0.265625,1.6875 -1.375,2.65625 -1.109375,0.953125 -2.734375,0.953125 -2.015625,0 -3.25,-1.3125 -1.21875,-1.328125 -1.21875,-3.796875 0,-1.59375 0.515625,-2.78125 0.53125,-1.203125 1.609375,-1.796875 1.09375,-0.609375 2.359375,-0.609375 1.609375,0 2.625,0.8125 1.015625,0.8125 1.3125,2.3125 l -1.625,0.25 q -0.234375,-1 -0.828125,-1.5 -0.59375,-0.5 -1.421875,-0.5 -1.265625,0 -2.0625,0.90625 -0.78125,0.90625 -0.78125,2.859375 0,1.984375 0.765625,2.890625 0.765625,0.890625 1.984375,0.890625 0.984375,0 1.640625,-0.59375 0.65625,-0.609375 0.84375,-1.859375 z m 9.328125,2.390625 q -0.9375,0.796875 -1.796875,1.125 -0.859375,0.3125 -1.84375,0.3125 -1.609375,0 -2.484375,-0.78125 -0.875,-0.796875 -0.875,-2.03125 0,-0.734375 0.328125,-1.328125 0.328125,-0.59375 0.859375,-0.953125 0.53125,-0.359375 1.203125,-0.546875 0.5,-0.140625 1.484375,-0.25 2.03125,-0.25 2.984375,-0.578125 0,-0.34375 0,-0.4375 0,-1.015625 -0.46875,-1.4375 -0.640625,-0.5625 -1.90625,-0.5625 -1.171875,0 -1.734375,0.40625 -0.5625,0.40625 -0.828125,1.46875 l -1.640625,-0.234375 q 0.234375,-1.046875 0.734375,-1.6875 0.515625,-0.640625 1.46875,-0.984375 0.96875,-0.359375 2.25,-0.359375 1.265625,0 2.046875,0.296875 0.78125,0.296875 1.15625,0.75 0.375,0.453125 0.515625,1.140625 0.09375,0.421875 0.09375,1.53125 v 2.234375 q 0,2.328125 0.09375,2.953125 0.109375,0.609375 0.4375,1.171875 h -1.75 q -0.265625,-0.515625 -0.328125,-1.21875 z m -0.140625,-3.71875 q -0.90625,0.359375 -2.734375,0.625 -1.03125,0.140625 -1.453125,0.328125 -0.421875,0.1875 -0.65625,0.546875 -0.234375,0.359375 -0.234375,0.796875 0,0.671875 0.5,1.125 0.515625,0.4375 1.484375,0.4375 0.96875,0 1.71875,-0.421875 0.75,-0.4375 1.109375,-1.15625 0.265625,-0.578125 0.265625,-1.671875 z m 3.406967,2 1.65625,-0.265625 q 0.140625,1 0.765625,1.53125 0.640625,0.515625 1.78125,0.515625 1.15625,0 1.703125,-0.46875 0.5625,-0.46875 0.5625,-1.09375 0,-0.5625 -0.484375,-0.890625 -0.34375,-0.21875 -1.703125,-0.5625 -1.84375,-0.46875 -2.5625,-0.796875 -0.703125,-0.34375 -1.078125,-0.9375 -0.359375,-0.609375 -0.359375,-1.328125 0,-0.65625 0.296875,-1.21875 0.3125,-0.5625 0.828125,-0.9375 0.390625,-0.28125 1.0625,-0.484375 0.671875,-0.203125 1.4375,-0.203125 1.171875,0 2.046875,0.34375 0.875,0.328125 1.28125,0.90625 0.421875,0.5625 0.578125,1.515625 l -1.625,0.21875 q -0.109375,-0.75 -0.65625,-1.171875 -0.53125,-0.4375 -1.5,-0.4375 -1.15625,0 -1.640625,0.390625 -0.484375,0.375 -0.484375,0.875 0,0.328125 0.203125,0.59375 0.203125,0.265625 0.640625,0.4375 0.25,0.09375 1.46875,0.4375 1.765625,0.46875 2.46875,0.765625 0.703125,0.296875 1.09375,0.875 0.40625,0.578125 0.40625,1.4375 0,0.828125 -0.484375,1.578125 -0.484375,0.734375 -1.40625,1.140625 -0.921875,0.390625 -2.078125,0.390625 -1.921875,0 -2.9375,-0.796875 -1,-0.796875 -1.28125,-2.359375 z m 13.65625,1.4375 0.234375,1.484375 q -0.703125,0.140625 -1.265625,0.140625 -0.90625,0 -1.40625,-0.28125 -0.5,-0.296875 -0.703125,-0.75 -0.203125,-0.46875 -0.203125,-1.984375 v -5.65625 h -1.234375 v -1.3125 h 1.234375 v -2.4375 l 1.65625,-1 v 3.4375 h 1.6875 v 1.3125 h -1.6875 v 5.75 q 0,0.71875 0.07813,0.921875 0.09375,0.203125 0.296875,0.328125 0.203125,0.125 0.578125,0.125 0.265625,0 0.734375,-0.07813 z m 6.319732,-2.875 1.6875,-0.140625 q 0.125,1.015625 0.5625,1.671875 0.4375,0.65625 1.35938,1.0625 0.9375,0.40625 2.09375,0.40625 1.03125,0 1.8125,-0.3125 0.79687,-0.3125 1.1875,-0.84375 0.39062,-0.53125 0.39062,-1.15625 0,-0.640625 -0.375,-1.109375 -0.375,-0.484375 -1.23437,-0.8125 -0.54688,-0.21875 -2.42188,-0.65625 -1.875,-0.453125 -2.625,-0.859375 -0.96875,-0.515625 -1.45312,-1.265625 -0.46875,-0.75 -0.46875,-1.6875 0,-1.03125 0.57812,-1.921875 0.59375,-0.90625 1.70313,-1.359375 1.125,-0.46875 2.5,-0.46875 1.51562,0 2.67187,0.484375 1.15625,0.484375 1.76563,1.4375 0.625,0.9375 0.67187,2.140625 l -1.71875,0.125 q -0.14062,-1.28125 -0.95312,-1.9375 -0.79688,-0.671875 -2.35938,-0.671875 -1.625,0 -2.375,0.609375 -0.75,0.59375 -0.75,1.4375 0,0.734375 0.53125,1.203125 0.51563,0.46875 2.70313,0.96875 2.20312,0.5 3.01562,0.875 1.1875,0.546875 1.75,1.390625 0.57813,0.828125 0.57813,1.921875 0,1.09375 -0.625,2.0625 -0.625,0.953125 -1.79688,1.484375 -1.15625,0.53125 -2.60937,0.53125 -1.84375,0 -3.09375,-0.53125 -1.25,-0.546875 -1.96875,-1.625 -0.70313,-1.078125 -0.73438,-2.453125 z m 16.49045,2.875 0.23437,1.484375 q -0.70312,0.140625 -1.26562,0.140625 -0.90625,0 -1.40625,-0.28125 -0.5,-0.296875 -0.70313,-0.75 -0.20312,-0.46875 -0.20312,-1.984375 v -5.65625 h -1.23438 v -1.3125 h 1.23438 v -2.4375 l 1.65625,-1 v 3.4375 h 1.6875 v 1.3125 h -1.6875 v 5.75 q 0,0.71875 0.0781,0.921875 0.0937,0.203125 0.29688,0.328125 0.20312,0.125 0.57812,0.125 0.26563,0 0.73438,-0.07813 z m 1.51143,1.5 v -9.859375 h 1.5 v 1.5 q 0.57812,-1.046875 1.0625,-1.375 0.48437,-0.34375 1.07812,-0.34375 0.84375,0 1.71875,0.546875 l -0.57812,1.546875 q -0.60938,-0.359375 -1.23438,-0.359375 -0.54687,0 -0.98437,0.328125 -0.42188,0.328125 -0.60938,0.90625 -0.28125,0.890625 -0.28125,1.953125 v 5.15625 z m 12.9783,-3.171875 1.71875,0.21875 q -0.40625,1.5 -1.51563,2.34375 -1.09375,0.828125 -2.8125,0.828125 -2.15625,0 -3.42187,-1.328125 -1.26563,-1.328125 -1.26563,-3.734375 0,-2.484375 1.26563,-3.859375 1.28125,-1.375 3.32812,-1.375 1.98438,0 3.23438,1.34375 1.25,1.34375 1.25,3.796875 0,0.140625 -0.0156,0.4375 h -7.34375 q 0.0937,1.625 0.92188,2.484375 0.82812,0.859375 2.0625,0.859375 0.90625,0 1.54687,-0.46875 0.65625,-0.484375 1.04688,-1.546875 z m -5.48438,-2.703125 h 5.5 q -0.10937,-1.234375 -0.625,-1.859375 -0.79687,-0.96875 -2.07812,-0.96875 -1.14063,0 -1.9375,0.78125 -0.78125,0.765625 -0.85938,2.046875 z m 15.5476,4.65625 q -0.9375,0.796875 -1.79688,1.125 -0.85937,0.3125 -1.84375,0.3125 -1.60937,0 -2.48437,-0.78125 -0.875,-0.796875 -0.875,-2.03125 0,-0.734375 0.32812,-1.328125 0.32813,-0.59375 0.85938,-0.953125 0.53125,-0.359375 1.20312,-0.546875 0.5,-0.140625 1.48438,-0.25 2.03125,-0.25 2.98437,-0.578125 0,-0.34375 0,-0.4375 0,-1.015625 -0.46875,-1.4375 -0.64062,-0.5625 -1.90625,-0.5625 -1.17187,0 -1.73437,0.40625 -0.5625,0.40625 -0.82813,1.46875 L 133.366,19.873123 q 0.23437,-1.046875 0.73437,-1.6875 0.51563,-0.640625 1.46875,-0.984375 0.96875,-0.359375 2.25,-0.359375 1.26563,0 2.04688,0.296875 0.78125,0.296875 1.15625,0.75 0.375,0.453125 0.51562,1.140625 0.0937,0.421875 0.0937,1.53125 v 2.234375 q 0,2.328125 0.0937,2.953125 0.10938,0.609375 0.4375,1.171875 h -1.75 q -0.26562,-0.515625 -0.32812,-1.21875 z m -0.14063,-3.71875 q -0.90625,0.359375 -2.73437,0.625 -1.03125,0.140625 -1.45313,0.328125 -0.42187,0.1875 -0.65625,0.546875 -0.23437,0.359375 -0.23437,0.796875 0,0.671875 0.5,1.125 0.51562,0.4375 1.48437,0.4375 0.96875,0 1.71875,-0.421875 0.75,-0.4375 1.10938,-1.15625 0.26562,-0.578125 0.26562,-1.671875 z m 4.07884,4.9375 v -9.859375 h 1.5 v 1.390625 q 0.45313,-0.71875 1.21875,-1.15625 0.78125,-0.453125 1.76563,-0.453125 1.09375,0 1.79687,0.453125 0.70313,0.453125 0.98438,1.28125 1.17187,-1.734375 3.04687,-1.734375 1.46875,0 2.25,0.8125 0.79688,0.8125 0.79688,2.5 v 6.765625 h -1.67188 v -6.203125 q 0,-1 -0.15625,-1.4375 -0.15625,-0.453125 -0.59375,-0.71875 -0.42187,-0.265625 -1,-0.265625 -1.03125,0 -1.71875,0.6875 -0.6875,0.6875 -0.6875,2.21875 v 5.71875 h -1.67187 v -6.40625 q 0,-1.109375 -0.40625,-1.65625 -0.40625,-0.5625 -1.34375,-0.5625 -0.70313,0 -1.3125,0.375 -0.59375,0.359375 -0.85938,1.078125 -0.26562,0.71875 -0.26562,2.0625 v 5.109375 z" />
  <path
     style="fill:#cfe2f3;fill-rule:evenodd"
     inkscape:connector-curvature="0"
     id="path4028"
     d="m 192.36351,85.669295 h 45.95276 v 43.999995 h -45.95276 z" />
  <path
     style="fill-rule:evenodd;stroke:#000000;stroke-width:1;stroke-linecap:butt;stroke-linejoin:round"
     inkscape:connector-curvature="0"
     id="path4030"
     d="m 192.36351,85.669295 h 45.95276 v 43.999995 h -45.95276 z" />
  <path
     style="fill:#000000;fill-opacity:0;fill-rule:evenodd"
     inkscape:connector-curvature="0"
     id="path4032"
     d="M 249.17717,86.944885 H 389.20865 V 128.3937 H 249.17717 Z" />
  <path
     style="fill:#000000;fill-rule:nonzero"
     inkscape:connector-curvature="0"
     id="path4034"
     d="m 263.09903,113.86487 v -12 h -4.46875 v -1.59374 h 10.76563 v 1.59374 h -4.5 v 12 z m 7.7085,0 v -9.85937 h 1.5 v 1.5 q 0.57812,-1.04688 1.0625,-1.375 0.48437,-0.34375 1.07812,-0.34375 0.84375,0 1.71875,0.54687 l -0.57812,1.54688 q -0.60938,-0.35938 -1.23438,-0.35938 -0.54687,0 -0.98437,0.32813 -0.42188,0.32812 -0.60938,0.90625 -0.28125,0.89062 -0.28125,1.95312 v 5.15625 z m 12.6658,-1.21875 q -0.9375,0.79688 -1.79688,1.125 -0.85937,0.3125 -1.84375,0.3125 -1.60937,0 -2.48437,-0.78125 -0.875,-0.79687 -0.875,-2.03125 0,-0.73437 0.32812,-1.32812 0.32813,-0.59375 0.85938,-0.95313 0.53125,-0.35937 1.20312,-0.54687 0.5,-0.14063 1.48438,-0.25 2.03125,-0.25 2.98437,-0.57813 0,-0.34375 0,-0.4375 0,-1.01562 -0.46875,-1.4375 -0.64062,-0.5625 -1.90625,-0.5625 -1.17187,0 -1.73437,0.40625 -0.5625,0.40625 -0.82813,1.46875 l -1.64062,-0.23437 q 0.23437,-1.04688 0.73437,-1.6875 0.51563,-0.64063 1.46875,-0.98438 0.96875,-0.35937 2.25,-0.35937 1.26563,0 2.04688,0.29687 0.78125,0.29688 1.15625,0.75 0.375,0.45313 0.51562,1.14063 0.0937,0.42187 0.0937,1.53125 v 2.23437 q 0,2.32813 0.0937,2.95313 0.10938,0.60937 0.4375,1.17187 h -1.75 q -0.26562,-0.51562 -0.32812,-1.21875 z m -0.14063,-3.71875 q -0.90625,0.35938 -2.73437,0.625 -1.03125,0.14063 -1.45313,0.32813 -0.42187,0.1875 -0.65625,0.54687 -0.23437,0.35938 -0.23437,0.79688 0,0.67187 0.5,1.125 0.51562,0.4375 1.48437,0.4375 0.96875,0 1.71875,-0.42188 0.75,-0.4375 1.10938,-1.15625 0.26562,-0.57812 0.26562,-1.67187 z m 4.07883,4.9375 v -9.85937 h 1.5 v 1.40625 q 1.09375,-1.625 3.14063,-1.625 0.89062,0 1.64062,0.32812 0.75,0.3125 1.10938,0.84375 0.375,0.51563 0.53125,1.21875 0.0937,0.46875 0.0937,1.625 v 6.0625 h -1.67188 v -6 q 0,-1.01562 -0.20312,-1.51562 -0.1875,-0.51563 -0.6875,-0.8125 -0.5,-0.29688 -1.17188,-0.29688 -1.0625,0 -1.84375,0.67188 -0.76562,0.67187 -0.76562,2.57812 v 5.375 z m 9.70386,-2.9375 1.65625,-0.26562 q 0.14062,1 0.76562,1.53125 0.64063,0.51562 1.78125,0.51562 1.15625,0 1.70313,-0.46875 0.5625,-0.46875 0.5625,-1.09375 0,-0.5625 -0.48438,-0.89062 -0.34375,-0.21875 -1.70312,-0.5625 -1.84375,-0.46875 -2.5625,-0.79688 -0.70313,-0.34375 -1.07813,-0.9375 -0.35937,-0.60937 -0.35937,-1.32812 0,-0.65625 0.29687,-1.21875 0.3125,-0.5625 0.82813,-0.9375 0.39062,-0.28125 1.0625,-0.48438 0.67187,-0.20312 1.4375,-0.20312 1.17187,0 2.04687,0.34375 0.875,0.32812 1.28125,0.90625 0.42188,0.5625 0.57813,1.51562 l -1.625,0.21875 q -0.10938,-0.75 -0.65625,-1.17187 -0.53125,-0.4375 -1.5,-0.4375 -1.15625,0 -1.64063,0.39062 -0.48437,0.375 -0.48437,0.875 0,0.32813 0.20312,0.59375 0.20313,0.26563 0.64063,0.4375 0.25,0.0937 1.46875,0.4375 1.76562,0.46875 2.46875,0.76563 0.70312,0.29687 1.09375,0.875 0.40625,0.57812 0.40625,1.4375 0,0.82812 -0.48438,1.57812 -0.48437,0.73438 -1.40625,1.14063 -0.92187,0.39062 -2.07812,0.39062 -1.92188,0 -2.9375,-0.79687 -1,-0.79688 -1.28125,-2.35938 z m 10.40625,2.9375 V 105.318 h -1.48438 v -1.3125 h 1.48438 v -1.04688 q 0,-0.98437 0.17187,-1.46875 0.23438,-0.65625 0.84375,-1.04687 0.60938,-0.40625 1.70313,-0.40625 0.70312,0 1.5625,0.15625 l -0.25,1.46875 q -0.51563,-0.0937 -0.98438,-0.0937 -0.76562,0 -1.07812,0.32812 -0.3125,0.3125 -0.3125,1.20313 v 0.90625 h 1.92187 v 1.3125 h -1.92187 v 8.54687 z m 4.15204,-4.92187 q 0,-2.73438 1.53125,-4.0625 1.26562,-1.09375 3.09375,-1.09375 2.03125,0 3.3125,1.34375 1.29687,1.32812 1.29687,3.67187 0,1.90625 -0.57812,3 -0.5625,1.07813 -1.65625,1.6875 -1.07813,0.59375 -2.375,0.59375 -2.0625,0 -3.34375,-1.32812 -1.28125,-1.32813 -1.28125,-3.8125 z m 1.71875,0 q 0,1.89062 0.82812,2.82812 0.82813,0.9375 2.07813,0.9375 1.25,0 2.0625,-0.9375 0.82812,-0.95312 0.82812,-2.89062 0,-1.82813 -0.82812,-2.76563 -0.82813,-0.9375 -2.0625,-0.9375 -1.25,0 -2.07813,0.9375 -0.82812,0.9375 -0.82812,2.82813 z m 9.26635,4.92187 v -9.85937 h 1.5 v 1.5 q 0.57813,-1.04688 1.0625,-1.375 0.48438,-0.34375 1.07813,-0.34375 0.84375,0 1.71875,0.54687 l -0.57813,1.54688 q -0.60937,-0.35938 -1.23437,-0.35938 -0.54688,0 -0.98438,0.32813 -0.42187,0.32812 -0.60937,0.90625 -0.28125,0.89062 -0.28125,1.95312 v 5.15625 z m 6.2283,0 v -9.85937 h 1.5 v 1.39062 q 0.45313,-0.71875 1.21875,-1.15625 0.78125,-0.45312 1.76563,-0.45312 1.09375,0 1.79687,0.45312 0.70313,0.45313 0.98438,1.28125 1.17187,-1.73437 3.04687,-1.73437 1.46875,0 2.25,0.8125 0.79688,0.8125 0.79688,2.5 v 6.76562 h -1.67188 v -6.20312 q 0,-1 -0.15625,-1.4375 -0.15625,-0.45313 -0.59375,-0.71875 -0.42187,-0.26563 -1,-0.26563 -1.03125,0 -1.71875,0.6875 -0.6875,0.6875 -0.6875,2.21875 v 5.71875 h -1.67187 v -6.40625 q 0,-1.10937 -0.40625,-1.65625 -0.40625,-0.5625 -1.34375,-0.5625 -0.70313,0 -1.3125,0.375 -0.59375,0.35938 -0.85938,1.07813 -0.26562,0.71875 -0.26562,2.0625 v 5.10937 z m 22.29081,-3.17187 1.71875,0.21875 q -0.40625,1.5 -1.51563,2.34375 -1.09375,0.82812 -2.8125,0.82812 -2.15625,0 -3.42187,-1.32812 -1.26563,-1.32813 -1.26563,-3.73438 0,-2.48437 1.26563,-3.85937 1.28125,-1.375 3.32812,-1.375 1.98438,0 3.23438,1.34375 1.25,1.34375 1.25,3.79687 0,0.14063 -0.0156,0.4375 h -7.34375 q 0.0937,1.625 0.92188,2.48438 0.82812,0.85937 2.0625,0.85937 0.90625,0 1.54687,-0.46875 0.65625,-0.48437 1.04688,-1.54687 z m -5.48438,-2.70313 h 5.5 q -0.10937,-1.23437 -0.625,-1.85937 -0.79687,-0.96875 -2.07812,-0.96875 -1.14063,0 -1.9375,0.78125 -0.78125,0.76562 -0.85938,2.04687 z m 9.09445,5.875 v -9.85937 h 1.5 v 1.5 q 0.57813,-1.04688 1.0625,-1.375 0.48438,-0.34375 1.07813,-0.34375 0.84375,0 1.71875,0.54687 l -0.57813,1.54688 q -0.60937,-0.35938 -1.23437,-0.35938 -0.54688,0 -0.98438,0.32813 -0.42187,0.32812 -0.60937,0.90625 -0.28125,0.89062 -0.28125,1.95312 v 5.15625 z" />
  <path
     style="fill:#cfe2f3;fill-rule:evenodd"
     inkscape:connector-curvature="0"
     id="path4036"
     d="m 121.36221,159.66666 h 45.95275 v 44 h -45.95275 z" />
  <path
     style="fill-rule:evenodd;stroke:#000000;stroke-width:1;stroke-linecap:butt;stroke-linejoin:round"
     inkscape:connector-curvature="0"
     id="path4038"
     d="m 121.36221,159.66666 h 45.95275 v 44 h -45.95275 z" />
  <path
     style="fill:#000000;fill-opacity:0;fill-rule:evenodd"
     inkscape:connector-curvature="0"
     id="path4040"
     d="m 10.742783,159.66666 h 99.999997 v 44 H 10.742783 Z" />
  <path
     style="fill:#000000;fill-rule:nonzero"
     inkscape:connector-curvature="0"
     id="path4042"
     d="m 20.961533,186.58666 v -13.59375 h 1.671875 v 13.59375 z m 4.191696,-11.6875 v -1.90625 h 1.671875 v 1.90625 z m 0,11.6875 v -9.85938 h 1.671875 v 9.85938 z m 3.457321,-2.9375 1.65625,-0.26563 q 0.140625,1 0.765625,1.53125 0.640625,0.51563 1.78125,0.51563 1.15625,0 1.703125,-0.46875 0.5625,-0.46875 0.5625,-1.09375 0,-0.5625 -0.484375,-0.89063 -0.34375,-0.21875 -1.703125,-0.5625 -1.84375,-0.46875 -2.5625,-0.79687 -0.703125,-0.34375 -1.078125,-0.9375 -0.359375,-0.60938 -0.359375,-1.32813 0,-0.65625 0.296875,-1.21875 0.3125,-0.5625 0.828125,-0.9375 0.390625,-0.28125 1.0625,-0.48437 0.671875,-0.20313 1.4375,-0.20313 1.171875,0 2.046875,0.34375 0.875,0.32813 1.28125,0.90625 0.421875,0.5625 0.578125,1.51563 l -1.625,0.21875 q -0.109375,-0.75 -0.65625,-1.17188 -0.53125,-0.4375 -1.5,-0.4375 -1.15625,0 -1.640625,0.39063 -0.484375,0.375 -0.484375,0.875 0,0.32812 0.203125,0.59375 0.203125,0.26562 0.640625,0.4375 0.25,0.0937 1.46875,0.4375 1.765625,0.46875 2.46875,0.76562 0.703125,0.29688 1.09375,0.875 0.40625,0.57813 0.40625,1.4375 0,0.82813 -0.484375,1.57813 -0.484375,0.73437 -1.40625,1.14062 -0.921875,0.39063 -2.078125,0.39063 -1.921875,0 -2.9375,-0.79688 -1,-0.79687 -1.28125,-2.35937 z m 13.65625,1.4375 0.234375,1.48437 q -0.703125,0.14063 -1.265625,0.14063 -0.90625,0 -1.40625,-0.28125 -0.5,-0.29688 -0.703125,-0.75 -0.203125,-0.46875 -0.203125,-1.98438 v -5.65625 h -1.234375 v -1.3125 h 1.234375 v -2.4375 l 1.65625,-1 v 3.4375 h 1.6875 v 1.3125 h -1.6875 v 5.75 q 0,0.71875 0.07813,0.92188 0.09375,0.20312 0.296875,0.32812 0.203125,0.125 0.578125,0.125 0.265625,0 0.734375,-0.0781 z m 8.277054,-1.67188 1.71875,0.21875 q -0.40625,1.5 -1.515625,2.34375 -1.09375,0.82813 -2.8125,0.82813 -2.15625,0 -3.421875,-1.32813 -1.265625,-1.32812 -1.265625,-3.73437 0,-2.48438 1.265625,-3.85938 1.28125,-1.375 3.328125,-1.375 1.984375,0 3.234375,1.34375 1.25,1.34375 1.25,3.79688 0,0.14062 -0.01563,0.4375 h -7.34375 q 0.09375,1.625 0.921875,2.48437 0.828125,0.85938 2.0625,0.85938 0.90625,0 1.546875,-0.46875 0.65625,-0.48438 1.046875,-1.54688 z m -5.484375,-2.70312 h 5.5 q -0.109375,-1.23438 -0.625,-1.85938 -0.796875,-0.96875 -2.078125,-0.96875 -1.140625,0 -1.9375,0.78125 -0.78125,0.76563 -0.859375,2.04688 z m 9.110092,5.875 v -9.85938 h 1.5 v 1.40625 q 1.09375,-1.625 3.140625,-1.625 0.890625,0 1.640625,0.32813 0.75,0.3125 1.109375,0.84375 0.375,0.51562 0.53125,1.21875 0.09375,0.46875 0.09375,1.625 v 6.0625 h -1.671875 v -6 q 0,-1.01563 -0.203125,-1.51563 -0.1875,-0.51562 -0.6875,-0.8125 -0.5,-0.29687 -1.171875,-0.29687 -1.0625,0 -1.84375,0.67187 -0.765625,0.67188 -0.765625,2.57813 v 5.375 z m 17.125717,-3.17188 1.71875,0.21875 q -0.40625,1.5 -1.515625,2.34375 -1.09375,0.82813 -2.8125,0.82813 -2.15625,0 -3.421875,-1.32813 -1.265625,-1.32812 -1.265625,-3.73437 0,-2.48438 1.265625,-3.85938 1.28125,-1.375 3.328125,-1.375 1.984375,0 3.234375,1.34375 1.25,1.34375 1.25,3.79688 0,0.14062 -0.01563,0.4375 h -7.34375 q 0.09375,1.625 0.921875,2.48437 0.828125,0.85938 2.0625,0.85938 0.90625,0 1.546875,-0.46875 0.65625,-0.48438 1.046875,-1.54688 z m -5.484375,-2.70312 h 5.5 q -0.109375,-1.23438 -0.625,-1.85938 -0.796875,-0.96875 -2.078125,-0.96875 -1.140625,0 -1.9375,0.78125 -0.78125,0.76563 -0.859375,2.04688 z m 9.094467,5.875 v -9.85938 h 1.5 v 1.5 q 0.578125,-1.04687 1.0625,-1.375 0.484375,-0.34375 1.078125,-0.34375 0.84375,0 1.71875,0.54688 l -0.578125,1.54687 q -0.609375,-0.35937 -1.234375,-0.35937 -0.546875,0 -0.984375,0.32812 -0.421875,0.32813 -0.609375,0.90625 -0.28125,0.89063 -0.28125,1.95313 v 5.15625 z m 5.556427,-2.9375 1.65625,-0.26563 q 0.140625,1 0.765625,1.53125 0.640625,0.51563 1.78125,0.51563 1.15625,0 1.703125,-0.46875 0.5625,-0.46875 0.5625,-1.09375 0,-0.5625 -0.484375,-0.89063 -0.34375,-0.21875 -1.703125,-0.5625 -1.84375,-0.46875 -2.5625,-0.79687 -0.703125,-0.34375 -1.078125,-0.9375 -0.359375,-0.60938 -0.359375,-1.32813 0,-0.65625 0.296875,-1.21875 0.3125,-0.5625 0.828125,-0.9375 0.390625,-0.28125 1.0625,-0.48437 0.671875,-0.20313 1.4375,-0.20313 1.171875,0 2.046875,0.34375 0.875,0.32813 1.28125,0.90625 0.421875,0.5625 0.578125,1.51563 l -1.625,0.21875 q -0.109375,-0.75 -0.65625,-1.17188 -0.53125,-0.4375 -1.5,-0.4375 -1.15625,0 -1.640625,0.39063 -0.484375,0.375 -0.484375,0.875 0,0.32812 0.203125,0.59375 0.203125,0.26562 0.640625,0.4375 0.25,0.0937 1.46875,0.4375 1.765625,0.46875 2.46875,0.76562 0.703125,0.29688 1.09375,0.875 0.40625,0.57813 0.40625,1.4375 0,0.82813 -0.484375,1.57813 -0.484375,0.73437 -1.40625,1.14062 -0.921875,0.39063 -2.078125,0.39063 -1.921875,0 -2.9375,-0.79688 -1,-0.79687 -1.28125,-2.35937 z m 10.46875,-5.01563 v -1.90625 h 1.90625 v 1.90625 z m 0,7.95313 v -1.90625 h 1.90625 v 1.90625 z" />
  <path
     style="fill:#cfe2f3;fill-rule:evenodd"
     inkscape:connector-curvature="0"
     id="path4044"
     d="m 192.3622,159.66666 h 45.95276 v 44 H 192.3622 Z" />
  <path
     style="fill-rule:evenodd;stroke:#000000;stroke-width:1;stroke-linecap:butt;stroke-linejoin:round"
     inkscape:connector-curvature="0"
     id="path4046"
     d="m 192.3622,159.66666 h 45.95276 v 44 H 192.3622 Z" />
  <path
     style="fill:#cfe2f3;fill-rule:evenodd"
     inkscape:connector-curvature="0"
     id="path4048"
     d="m 263.3622,159.66666 h 45.95276 v 44 H 263.3622 Z" />
  <path
     style="fill-rule:evenodd;stroke:#000000;stroke-width:1;stroke-linecap:butt;stroke-linejoin:round"
     inkscape:connector-curvature="0"
     id="path4050"
     d="m 263.3622,159.66666 h 45.95276 v 44 H 263.3622 Z" />
  <path
     style="fill:#cfe2f3;fill-rule:evenodd"
     inkscape:connector-curvature="0"
     id="path4052"
     d="m 192.36351,107.66929 22.97638,-21.999995 22.97638,21.999995 -22.97638,22 z" />
  <path
     style="fill-rule:evenodd;stroke:#000000;stroke-width:1;stroke-linecap:butt;stroke-linejoin:round"
     inkscape:connector-curvature="0"
     id="path4054"
     d="m 192.36351,107.66929 22.97638,-21.999995 22.97638,21.999995 -22.97638,22 z" />
  <path
     style="fill:#cfe2f3;fill-rule:evenodd"
     inkscape:connector-curvature="0"
     id="path4056"
     d="M 192.36226,17.10759 215.33858,1.2755907 238.31491,17.10759 229.53874,42.724304 h -28.40031 z" />
  <path
     style="fill-rule:evenodd;stroke:#000000;stroke-width:1;stroke-linecap:butt;stroke-linejoin:round"
     inkscape:connector-curvature="0"
     id="path4058"
     d="M 192.36226,17.10759 215.33858,1.2755907 238.31491,17.10759 229.53874,42.724304 h -28.40031 z" />
  <path
     style="fill:#000000;fill-opacity:0;fill-rule:evenodd"
     inkscape:connector-curvature="0"
     id="path4060"
     d="m 289.00018,160.69553 c -2.5,-2.5 -4.66669,-10.83333 -15,-15 -10.33334,-4.16667 -38.66667,6.83771 -47.00002,-10 -8.33332,-16.83771 -2.5,-75.855205 -3,-91.02624" />
  <path
     style="fill-rule:evenodd;stroke:#000000;stroke-width:1;stroke-linecap:butt;stroke-linejoin:round"
     inkscape:connector-curvature="0"
     id="path4062"
     d="m 289.00018,160.69553 c -2.5,-2.5 -4.66669,-10.83333 -15,-15 -10.33334,-4.16667 -38.66667,6.83771 -47.00002,-10 -8.33332,-16.83771 -2.5,-75.855205 -3,-91.02624" />
  <path
     style="fill:#000000;fill-opacity:0;fill-rule:evenodd"
     inkscape:connector-curvature="0"
     id="path4064"
     d="m 214.00087,158.69553 c -0.5,-14.66667 -2.5,-68.833331 -3,-87.999995 -0.5,-19.166664 0,-22.5 0,-27" />
  <path
     style="fill-rule:evenodd;stroke:#000000;stroke-width:1;stroke-linecap:butt;stroke-linejoin:round"
     inkscape:connector-curvature="0"
     id="path4066"
     d="m 214.00087,158.69553 c -0.5,-14.66667 -2.5,-68.833331 -3,-87.999995 -0.5,-19.166664 0,-22.5 0,-27" />
  <path
     style="fill:#000000;fill-opacity:0;fill-rule:evenodd"
     inkscape:connector-curvature="0"
     id="path4068"
     d="m 144,158.69816 c 4,-1.83377 14.5,-8.50218 24,-11.00262 9.5,-2.50045 27.5,13.8329 33,-4 5.5,-17.8329 0,-85.831149 0,-102.997375" />
  <path
     style="fill-rule:evenodd;stroke:#000000;stroke-width:1;stroke-linecap:butt;stroke-linejoin:round"
     inkscape:connector-curvature="0"
     id="path4070"
     d="m 144,158.69816 c 4,-1.83377 14.5,-8.50218 24,-11.00262 9.5,-2.50045 27.5,13.8329 33,-4 5.5,-17.8329 0,-85.831149 0,-102.997375" />
</svg>
