<?xml version="1.0" encoding="UTF-8" standalone="no"?>
<svg
   xmlns:dc="http://purl.org/dc/elements/1.1/"
   xmlns:cc="http://creativecommons.org/ns#"
   xmlns:rdf="http://www.w3.org/1999/02/22-rdf-syntax-ns#"
   xmlns:svg="http://www.w3.org/2000/svg"
   xmlns="http://www.w3.org/2000/svg"
   xmlns:sodipodi="http://sodipodi.sourceforge.net/DTD/sodipodi-0.dtd"
   xmlns:inkscape="http://www.inkscape.org/namespaces/inkscape"
   version="1.1"
   viewBox="0 0 437.39371 203.01048"
   stroke-miterlimit="10"
   id="svg4011"
   sodipodi:docname="broadcast.svg"
   width="437.39371"
   height="203.01048"
   style="fill:none;stroke:none;stroke-linecap:square;stroke-miterlimit:10"
   inkscape:version="0.92.2 5c3e80d, 2017-08-06">
  <metadata
     id="metadata4017">
    <rdf:RDF>
      <cc:Work
         rdf:about="">
        <dc:format>image/svg+xml</dc:format>
        <dc:type
           rdf:resource="http://purl.org/dc/dcmitype/StillImage" />
      </cc:Work>
    </rdf:RDF>
  </metadata>
  <defs
     id="defs4015" />
  <sodipodi:namedview
     pagecolor="#ffffff"
     bordercolor="#666666"
     borderopacity="1"
     objecttolerance="10"
     gridtolerance="10"
     guidetolerance="10"
     inkscape:pageopacity="0"
     inkscape:pageshadow="2"
     inkscape:window-width="1324"
     inkscape:window-height="1091"
     id="namedview4013"
     showgrid="false"
     inkscape:zoom="1.3906433"
     inkscape:cx="325.8192"
     inkscape:cy="18.174386"
     inkscape:window-x="1200"
     inkscape:window-y="419"
     inkscape:window-maximized="0"
     inkscape:current-layer="svg4011" />
  <clipPath
     id="p.0">
    <path
       d="M 0,0 H 1280 V 960 H 0 Z"
       id="path3932"
       inkscape:connector-curvature="0"
       style="clip-rule:nonzero" />
  </clipPath>
  <path
     style="fill:#000000;fill-opacity:0;fill-rule:evenodd"
     inkscape:connector-curvature="0"
     id="path3935"
     d="M -8,0.49998805 H 1272 V 960.49999 H -8 Z" />
  <path
     style="fill:#000000;fill-opacity:0;fill-rule:evenodd"
     inkscape:connector-curvature="0"
     id="path3937"
     d="M 229,5.5131116 H 417 V 49.513111 H 229 Z" />
  <path
     style="fill:#000000;fill-rule:nonzero"
     inkscape:connector-curvature="0"
     id="path3939"
     d="M 239.39062,32.433108 V 18.839358 H 244.5 q 1.54687,0 2.48437,0.40625 0.95313,0.40625 1.48438,1.265625 Q 249,21.370608 249,22.308108 q 0,0.875 -0.46875,1.65625 -0.46875,0.765625 -1.4375,1.234375 1.23437,0.359375 1.89062,1.234375 0.67188,0.875 0.67188,2.0625 0,0.953125 -0.40625,1.78125 -0.39063,0.8125 -0.98438,1.265625 -0.59375,0.4375 -1.5,0.671875 -0.89062,0.21875 -2.1875,0.21875 z m 1.79688,-7.890625 h 2.9375 q 1.20312,0 1.71875,-0.15625 0.6875,-0.203125 1.03125,-0.671875 0.35937,-0.46875 0.35937,-1.1875 0,-0.671875 -0.32812,-1.1875 -0.32813,-0.515625 -0.9375,-0.703125 -0.59375,-0.203125 -2.0625,-0.203125 h -2.71875 z m 0,6.28125 h 3.39062 q 0.875,0 1.21875,-0.0625 0.625,-0.109375 1.04688,-0.359375 0.42187,-0.265625 0.6875,-0.765625 0.26562,-0.5 0.26562,-1.140625 0,-0.765625 -0.39062,-1.328125 -0.39063,-0.5625 -1.07813,-0.78125 -0.6875,-0.234375 -1.98437,-0.234375 h -3.15625 z m 10.49044,1.609375 v -9.859375 h 1.5 v 1.5 q 0.57813,-1.046875 1.0625,-1.375 0.48438,-0.34375 1.07813,-0.34375 0.84375,0 1.71875,0.546875 l -0.57813,1.546875 q -0.60937,-0.359375 -1.23437,-0.359375 -0.54688,0 -0.98438,0.328125 -0.42187,0.328125 -0.60937,0.90625 -0.28125,0.890625 -0.28125,1.953125 v 5.15625 z m 5.60331,-4.921875 q 0,-2.734375 1.53125,-4.0625 1.26562,-1.09375 3.09375,-1.09375 2.03125,0 3.3125,1.34375 1.29687,1.328125 1.29687,3.671875 0,1.90625 -0.57812,3 -0.5625,1.078125 -1.65625,1.6875 -1.07813,0.59375 -2.375,0.59375 -2.0625,0 -3.34375,-1.328125 -1.28125,-1.328125 -1.28125,-3.8125 z m 1.71875,0 q 0,1.890625 0.82812,2.828125 0.82813,0.9375 2.07813,0.9375 1.25,0 2.0625,-0.9375 0.82812,-0.953125 0.82812,-2.890625 0,-1.828125 -0.82812,-2.765625 -0.82813,-0.9375 -2.0625,-0.9375 -1.25,0 -2.07813,0.9375 Q 259,25.620608 259,27.511233 Z m 15.71948,3.703125 q -0.9375,0.796875 -1.79688,1.125 -0.85937,0.3125 -1.84375,0.3125 -1.60937,0 -2.48437,-0.78125 -0.875,-0.796875 -0.875,-2.03125 0,-0.734375 0.32812,-1.328125 0.32813,-0.59375 0.85938,-0.953125 0.53125,-0.359375 1.20312,-0.546875 0.5,-0.140625 1.48438,-0.25 2.03125,-0.25 2.98437,-0.578125 0,-0.34375 0,-0.4375 0,-1.015625 -0.46875,-1.4375 -0.64062,-0.5625 -1.90625,-0.5625 -1.17187,0 -1.73437,0.40625 -0.5625,0.40625 -0.82813,1.46875 l -1.64062,-0.234375 q 0.23437,-1.046875 0.73437,-1.6875 0.51563,-0.640625 1.46875,-0.984375 0.96875,-0.359375 2.25,-0.359375 1.26563,0 2.04688,0.296875 0.78125,0.296875 1.15625,0.75 0.375,0.453125 0.51562,1.140625 0.0937,0.421875 0.0937,1.53125 v 2.234375 q 0,2.328125 0.0937,2.953125 0.10938,0.609375 0.4375,1.171875 h -1.75 q -0.26562,-0.515625 -0.32812,-1.21875 z m -0.14063,-3.71875 q -0.90625,0.359375 -2.73437,0.625 -1.03125,0.140625 -1.45313,0.328125 -0.42187,0.1875 -0.65625,0.546875 -0.23437,0.359375 -0.23437,0.796875 0,0.671875 0.5,1.125 0.51562,0.4375 1.48437,0.4375 0.96875,0 1.71875,-0.421875 0.75,-0.4375 1.10938,-1.15625 0.26562,-0.578125 0.26562,-1.671875 z m 10.46945,4.9375 v -1.25 q -0.9375,1.46875 -2.75,1.46875 -1.17187,0 -2.17187,-0.640625 -0.98438,-0.65625 -1.53125,-1.8125 -0.53125,-1.171875 -0.53125,-2.6875 0,-1.46875 0.48437,-2.671875 0.5,-1.203125 1.46875,-1.84375 0.98438,-0.640625 2.20313,-0.640625 0.89062,0 1.57812,0.375 0.70313,0.375 1.14063,0.984375 v -4.875 h 1.65625 v 13.59375 z m -5.28125,-4.921875 q 0,1.890625 0.79688,2.828125 0.8125,0.9375 1.89062,0.9375 1.09375,0 1.85938,-0.890625 0.76562,-0.890625 0.76562,-2.734375 0,-2.015625 -0.78125,-2.953125 -0.78125,-0.953125 -1.92187,-0.953125 -1.10938,0 -1.85938,0.90625 -0.75,0.90625 -0.75,2.859375 z m 15.70383,1.3125 1.64063,0.21875 q -0.26563,1.6875 -1.375,2.65625 -1.10938,0.953125 -2.73438,0.953125 -2.01562,0 -3.25,-1.3125 -1.21875,-1.328125 -1.21875,-3.796875 0,-1.59375 0.51563,-2.78125 0.53125,-1.203125 1.60937,-1.796875 1.09375,-0.609375 2.35938,-0.609375 1.60937,0 2.625,0.8125 1.01562,0.8125 1.3125,2.3125 l -1.625,0.25 q -0.23438,-1 -0.82813,-1.5 -0.59375,-0.5 -1.42187,-0.5 -1.26563,0 -2.0625,0.90625 -0.78125,0.90625 -0.78125,2.859375 0,1.984375 0.76562,2.890625 0.76563,0.890625 1.98438,0.890625 0.98437,0 1.64062,-0.59375 0.65625,-0.609375 0.84375,-1.859375 z m 9.32813,2.390625 q -0.9375,0.796875 -1.79688,1.125 -0.85937,0.3125 -1.84375,0.3125 -1.60937,0 -2.48437,-0.78125 -0.875,-0.796875 -0.875,-2.03125 0,-0.734375 0.32812,-1.328125 0.32813,-0.59375 0.85938,-0.953125 0.53125,-0.359375 1.20312,-0.546875 0.5,-0.140625 1.48438,-0.25 2.03125,-0.25 2.98437,-0.578125 0,-0.34375 0,-0.4375 0,-1.015625 -0.46875,-1.4375 -0.64062,-0.5625 -1.90625,-0.5625 -1.17187,0 -1.73437,0.40625 -0.5625,0.40625 -0.82813,1.46875 l -1.64062,-0.234375 q 0.23437,-1.046875 0.73437,-1.6875 0.51563,-0.640625 1.46875,-0.984375 0.96875,-0.359375 2.25,-0.359375 1.26563,0 2.04688,0.296875 0.78125,0.296875 1.15625,0.75 0.375,0.453125 0.51562,1.140625 0.0937,0.421875 0.0937,1.53125 v 2.234375 q 0,2.328125 0.0937,2.953125 0.10938,0.609375 0.4375,1.171875 h -1.75 q -0.26562,-0.515625 -0.32812,-1.21875 z m -0.14063,-3.71875 q -0.90625,0.359375 -2.73437,0.625 -1.03125,0.140625 -1.45313,0.328125 -0.42187,0.1875 -0.65625,0.546875 -0.23437,0.359375 -0.23437,0.796875 0,0.671875 0.5,1.125 0.51562,0.4375 1.48437,0.4375 0.96875,0 1.71875,-0.421875 0.75,-0.4375 1.10938,-1.15625 0.26562,-0.578125 0.26562,-1.671875 z m 3.40698,2 1.65625,-0.265625 q 0.14063,1 0.76563,1.53125 0.64062,0.515625 1.78125,0.515625 1.15625,0 1.70312,-0.46875 0.5625,-0.46875 0.5625,-1.09375 0,-0.5625 -0.48437,-0.890625 -0.34375,-0.21875 -1.70313,-0.5625 -1.84375,-0.46875 -2.5625,-0.796875 -0.70312,-0.34375 -1.07812,-0.9375 -0.35938,-0.609375 -0.35938,-1.328125 0,-0.65625 0.29688,-1.21875 0.3125,-0.5625 0.82812,-0.9375 0.39063,-0.28125 1.0625,-0.484375 0.67188,-0.203125 1.4375,-0.203125 1.17188,0 2.04688,0.34375 0.875,0.328125 1.28125,0.90625 0.42187,0.5625 0.57812,1.515625 l -1.625,0.21875 q -0.10937,-0.75 -0.65625,-1.171875 -0.53125,-0.4375 -1.5,-0.4375 -1.15625,0 -1.64062,0.390625 -0.48438,0.375 -0.48438,0.875 0,0.328125 0.20313,0.59375 0.20312,0.265625 0.64062,0.4375 0.25,0.09375 1.46875,0.4375 1.76563,0.46875 2.46875,0.765625 0.70313,0.296875 1.09375,0.875 0.40625,0.578125 0.40625,1.4375 0,0.828125 -0.48437,1.578125 -0.48438,0.734375 -1.40625,1.140625 -0.92188,0.390625 -2.07813,0.390625 -1.92187,0 -2.9375,-0.796875 -1,-0.796875 -1.28125,-2.359375 z m 13.65625,1.4375 0.23438,1.484375 q -0.70313,0.140625 -1.26563,0.140625 -0.90625,0 -1.40625,-0.28125 -0.5,-0.296875 -0.70312,-0.75 -0.20313,-0.46875 -0.20313,-1.984375 v -5.65625 h -1.23437 v -1.3125 h 1.23437 v -2.4375 l 1.65625,-1 v 3.4375 h 1.6875 v 1.3125 h -1.6875 v 5.75 q 0,0.71875 0.0781,0.921875 0.0937,0.203125 0.29687,0.328125 0.20313,0.125 0.57813,0.125 0.26562,0 0.73437,-0.07813 z m 6.31974,-2.875 1.6875,-0.140625 q 0.125,1.015625 0.5625,1.671875 0.4375,0.65625 1.35937,1.0625 0.9375,0.40625 2.09375,0.40625 1.03125,0 1.8125,-0.3125 0.79688,-0.3125 1.1875,-0.84375 0.39063,-0.53125 0.39063,-1.15625 0,-0.640625 -0.375,-1.109375 -0.375,-0.484375 -1.23438,-0.8125 -0.54687,-0.21875 -2.42187,-0.65625 -1.875,-0.453125 -2.625,-0.859375 -0.96875,-0.515625 -1.45313,-1.265625 -0.46875,-0.75 -0.46875,-1.6875 0,-1.03125 0.57813,-1.921875 0.59375,-0.90625 1.70312,-1.359375 1.125,-0.46875 2.5,-0.46875 1.51563,0 2.67188,0.484375 1.15625,0.484375 1.76562,1.4375 0.625,0.9375 0.67188,2.140625 l -1.71875,0.125 q -0.14063,-1.28125 -0.95313,-1.9375 -0.79687,-0.671875 -2.35937,-0.671875 -1.625,0 -2.375,0.609375 -0.75,0.59375 -0.75,1.4375 0,0.734375 0.53125,1.203125 0.51562,0.46875 2.70312,0.96875 2.20313,0.5 3.01563,0.875 1.1875,0.546875 1.75,1.390625 0.57812,0.828125 0.57812,1.921875 0,1.09375 -0.625,2.0625 -0.625,0.953125 -1.79687,1.484375 -1.15625,0.53125 -2.60938,0.53125 -1.84375,0 -3.09375,-0.53125 -1.25,-0.546875 -1.96875,-1.625 -0.70312,-1.078125 -0.73437,-2.453125 z m 16.49044,2.875 0.23438,1.484375 q -0.70313,0.140625 -1.26563,0.140625 -0.90625,0 -1.40625,-0.28125 -0.5,-0.296875 -0.70312,-0.75 -0.20313,-0.46875 -0.20313,-1.984375 v -5.65625 h -1.23437 v -1.3125 h 1.23437 v -2.4375 l 1.65625,-1 v 3.4375 h 1.6875 v 1.3125 h -1.6875 v 5.75 q 0,0.71875 0.0781,0.921875 0.0937,0.203125 0.29687,0.328125 0.20313,0.125 0.57813,0.125 0.26562,0 0.73437,-0.07813 z m 1.51142,1.5 v -9.859375 h 1.5 v 1.5 q 0.57812,-1.046875 1.0625,-1.375 0.48437,-0.34375 1.07812,-0.34375 0.84375,0 1.71875,0.546875 l -0.57812,1.546875 q -0.60938,-0.359375 -1.23438,-0.359375 -0.54687,0 -0.98437,0.328125 -0.42188,0.328125 -0.60938,0.90625 -0.28125,0.890625 -0.28125,1.953125 v 5.15625 z m 12.97833,-3.171875 1.71875,0.21875 q -0.40625,1.5 -1.51562,2.34375 -1.09375,0.828125 -2.8125,0.828125 -2.15625,0 -3.42188,-1.328125 -1.26562,-1.328125 -1.26562,-3.734375 0,-2.484375 1.26562,-3.859375 1.28125,-1.375 3.32813,-1.375 1.98437,0 3.23437,1.34375 1.25,1.34375 1.25,3.796875 0,0.140625 -0.0156,0.4375 h -7.34375 q 0.0937,1.625 0.92187,2.484375 0.82813,0.859375 2.0625,0.859375 0.90625,0 1.54688,-0.46875 0.65625,-0.484375 1.04687,-1.546875 z m -5.48437,-2.703125 h 5.5 q -0.10938,-1.234375 -0.625,-1.859375 -0.79688,-0.96875 -2.07813,-0.96875 -1.14062,0 -1.9375,0.78125 -0.78125,0.765625 -0.85937,2.046875 z m 15.54757,4.65625 q -0.9375,0.796875 -1.79687,1.125 -0.85938,0.3125 -1.84375,0.3125 -1.60938,0 -2.48438,-0.78125 -0.875,-0.796875 -0.875,-2.03125 0,-0.734375 0.32813,-1.328125 0.32812,-0.59375 0.85937,-0.953125 0.53125,-0.359375 1.20313,-0.546875 0.5,-0.140625 1.48437,-0.25 2.03125,-0.25 2.98438,-0.578125 0,-0.34375 0,-0.4375 0,-1.015625 -0.46875,-1.4375 -0.64063,-0.5625 -1.90625,-0.5625 -1.17188,0 -1.73438,0.40625 -0.5625,0.40625 -0.82812,1.46875 l -1.64063,-0.234375 q 0.23438,-1.046875 0.73438,-1.6875 0.51562,-0.640625 1.46875,-0.984375 0.96875,-0.359375 2.25,-0.359375 1.26562,0 2.04687,0.296875 0.78125,0.296875 1.15625,0.75 0.375,0.453125 0.51563,1.140625 0.0937,0.421875 0.0937,1.53125 v 2.234375 q 0,2.328125 0.0937,2.953125 0.10937,0.609375 0.4375,1.171875 h -1.75 q -0.26563,-0.515625 -0.32813,-1.21875 z m -0.14062,-3.71875 q -0.90625,0.359375 -2.73438,0.625 -1.03125,0.140625 -1.45312,0.328125 -0.42188,0.1875 -0.65625,0.546875 -0.23438,0.359375 -0.23438,0.796875 0,0.671875 0.5,1.125 0.51563,0.4375 1.48438,0.4375 0.96875,0 1.71875,-0.421875 0.75,-0.4375 1.10937,-1.15625 0.26563,-0.578125 0.26563,-1.671875 z m 4.07882,4.9375 v -9.859375 h 1.5 v 1.390625 q 0.45313,-0.71875 1.21875,-1.15625 0.78125,-0.453125 1.76563,-0.453125 1.09375,0 1.79687,0.453125 0.70313,0.453125 0.98438,1.28125 1.17187,-1.734375 3.04687,-1.734375 1.46875,0 2.25,0.8125 0.79688,0.8125 0.79688,2.5 v 6.765625 h -1.67188 v -6.203125 q 0,-1 -0.15625,-1.4375 -0.15625,-0.453125 -0.59375,-0.71875 -0.42187,-0.265625 -1,-0.265625 -1.03125,0 -1.71875,0.6875 -0.6875,0.6875 -0.6875,2.21875 v 5.71875 h -1.67187 v -6.40625 q 0,-1.109375 -0.40625,-1.65625 -0.40625,-0.5625 -1.34375,-0.5625 -0.70313,0 -1.3125,0.375 -0.59375,0.359375 -0.85938,1.078125 -0.26562,0.71875 -0.26562,2.0625 v 5.109375 z" />
  <path
     style="fill:#cfe2f3;fill-rule:evenodd"
     inkscape:connector-curvature="0"
     id="path3941"
     d="m 104,84.513108 h 45.95276 V 128.51311 H 104 Z" />
  <path
     style="fill-rule:evenodd;stroke:#000000;stroke-width:1;stroke-linecap:butt;stroke-linejoin:round"
     inkscape:connector-curvature="0"
     id="path3943"
     d="m 104,84.513108 h 45.95276 V 128.51311 H 104 Z" />
  <path
     style="fill:#000000;fill-opacity:0;fill-rule:evenodd"
     inkscape:connector-curvature="0"
     id="path3945"
     d="M 0,84.513108 H 100 V 128.51311 H 0 Z" />
  <path
     style="fill:#000000;fill-rule:nonzero"
     inkscape:connector-curvature="0"
     id="path3947"
     d="M 10.21875,111.43311 V 97.839358 h 1.671875 v 13.593752 z m 4.191696,-11.687502 v -1.90625 h 1.671875 v 1.90625 z m 0,11.687502 v -9.85937 h 1.671875 v 9.85937 z m 3.457321,-2.9375 1.65625,-0.26562 q 0.140625,1 0.765625,1.53125 0.640625,0.51562 1.78125,0.51562 1.15625,0 1.703125,-0.46875 0.5625,-0.46875 0.5625,-1.09375 0,-0.5625 -0.484375,-0.89062 -0.34375,-0.21875 -1.703125,-0.5625 -1.84375,-0.46875 -2.5625,-0.79688 -0.703125,-0.34375 -1.078125,-0.9375 -0.359375,-0.60937 -0.359375,-1.32812 0,-0.65625 0.296875,-1.21875 0.3125,-0.5625 0.828125,-0.9375 0.390625,-0.28125 1.0625,-0.48438 0.671875,-0.20312 1.4375,-0.20312 1.171875,0 2.046875,0.34375 0.875,0.32812 1.28125,0.90625 0.421875,0.5625 0.578125,1.51562 l -1.625,0.21875 q -0.109375,-0.75 -0.65625,-1.17187 -0.53125,-0.4375 -1.5,-0.4375 -1.15625,0 -1.640625,0.39062 -0.484375,0.375 -0.484375,0.875 0,0.32813 0.203125,0.59375 0.203125,0.26563 0.640625,0.4375 0.25,0.0937 1.46875,0.4375 1.765625,0.46875 2.46875,0.76563 0.703125,0.29687 1.09375,0.875 0.40625,0.57812 0.40625,1.4375 0,0.82812 -0.484375,1.57812 -0.484375,0.73438 -1.40625,1.14063 -0.921875,0.39062 -2.078125,0.39062 -1.921875,0 -2.9375,-0.79687 -1,-0.79688 -1.28125,-2.35938 z m 13.65625,1.4375 0.234375,1.48438 q -0.703125,0.14062 -1.265625,0.14062 -0.90625,0 -1.40625,-0.28125 -0.5,-0.29687 -0.703125,-0.75 -0.203125,-0.46875 -0.203125,-1.98437 v -5.65625 h -1.234375 v -1.3125 h 1.234375 v -2.437507 l 1.65625,-1 v 3.437507 h 1.6875 v 1.3125 h -1.6875 v 5.75 q 0,0.71875 0.07813,0.92187 0.09375,0.20313 0.296875,0.32813 0.203125,0.125 0.578125,0.125 0.265625,0 0.734375,-0.0781 z m 8.277054,-1.67187 1.71875,0.21875 q -0.40625,1.5 -1.515625,2.34375 -1.09375,0.82812 -2.8125,0.82812 -2.15625,0 -3.421875,-1.32812 -1.265625,-1.32813 -1.265625,-3.73438 0,-2.48437 1.265625,-3.85937 1.28125,-1.375 3.328125,-1.375 1.984375,0 3.234375,1.34375 1.25,1.34375 1.25,3.79687 0,0.14063 -0.01563,0.4375 h -7.34375 q 0.09375,1.625 0.921875,2.48438 0.828125,0.85937 2.0625,0.85937 0.90625,0 1.546875,-0.46875 0.65625,-0.48437 1.046875,-1.54687 z m -5.484375,-2.70313 h 5.5 q -0.109375,-1.23437 -0.625,-1.85937 -0.796875,-0.96875 -2.078125,-0.96875 -1.140625,0 -1.9375,0.78125 -0.78125,0.76562 -0.859375,2.04687 z m 9.110092,5.875 v -9.85937 h 1.5 v 1.40625 q 1.09375,-1.625 3.140625,-1.625 0.890625,0 1.640625,0.32812 0.75,0.3125 1.109375,0.84375 0.375,0.51563 0.53125,1.21875 0.09375,0.46875 0.09375,1.625 v 6.0625 h -1.671875 v -6 q 0,-1.01562 -0.203125,-1.51562 -0.1875,-0.51563 -0.6875,-0.8125 -0.5,-0.29688 -1.171875,-0.29688 -1.0625,0 -1.84375,0.67188 -0.765625,0.67187 -0.765625,2.57812 v 5.375 z m 17.125717,-3.17187 1.71875,0.21875 q -0.40625,1.5 -1.515625,2.34375 -1.09375,0.82812 -2.8125,0.82812 -2.15625,0 -3.421875,-1.32812 -1.265625,-1.32813 -1.265625,-3.73438 0,-2.48437 1.265625,-3.85937 1.28125,-1.375 3.328125,-1.375 1.984375,0 3.234375,1.34375 1.25,1.34375 1.25,3.79687 0,0.14063 -0.01563,0.4375 h -7.34375 q 0.09375,1.625 0.921875,2.48438 0.828125,0.85937 2.0625,0.85937 0.90625,0 1.546875,-0.46875 0.65625,-0.48437 1.046875,-1.54687 z m -5.484375,-2.70313 h 5.5 q -0.109375,-1.23437 -0.625,-1.85937 -0.796875,-0.96875 -2.078125,-0.96875 -1.140625,0 -1.9375,0.78125 -0.78125,0.76562 -0.859375,2.04687 z m 9.094467,5.875 v -9.85937 h 1.5 v 1.5 q 0.578125,-1.04688 1.0625,-1.375 0.484375,-0.34375 1.078125,-0.34375 0.84375,0 1.71875,0.54687 l -0.578125,1.54688 q -0.609375,-0.35938 -1.234375,-0.35938 -0.546875,0 -0.984375,0.32813 -0.421875,0.32812 -0.609375,0.90625 -0.28125,0.89062 -0.28125,1.95312 v 5.15625 z m 5.556427,-2.9375 1.65625,-0.26562 q 0.140625,1 0.765625,1.53125 0.640625,0.51562 1.78125,0.51562 1.15625,0 1.703125,-0.46875 0.5625,-0.46875 0.5625,-1.09375 0,-0.5625 -0.484375,-0.89062 -0.34375,-0.21875 -1.703125,-0.5625 -1.84375,-0.46875 -2.5625,-0.79688 -0.703125,-0.34375 -1.078125,-0.9375 -0.359375,-0.60937 -0.359375,-1.32812 0,-0.65625 0.296875,-1.21875 0.3125,-0.5625 0.828125,-0.9375 0.390625,-0.28125 1.0625,-0.48438 0.671875,-0.20312 1.4375,-0.20312 1.171875,0 2.046875,0.34375 0.875,0.32812 1.28125,0.90625 0.421875,0.5625 0.578125,1.51562 l -1.625,0.21875 q -0.109375,-0.75 -0.65625,-1.17187 -0.53125,-0.4375 -1.5,-0.4375 -1.15625,0 -1.640625,0.39062 -0.484375,0.375 -0.484375,0.875 0,0.32813 0.203125,0.59375 0.203125,0.26563 0.640625,0.4375 0.25,0.0937 1.46875,0.4375 1.765625,0.46875 2.46875,0.76563 0.703125,0.29687 1.09375,0.875 0.40625,0.57812 0.40625,1.4375 0,0.82812 -0.484375,1.57812 -0.484375,0.73438 -1.40625,1.14063 -0.921875,0.39062 -2.078125,0.39062 -1.921875,0 -2.9375,-0.79687 -1,-0.79688 -1.28125,-2.35938 z m 10.46875,-5.01562 v -1.90625 h 1.90625 v 1.90625 z m 0,7.95312 v -1.90625 h 1.90625 v 1.90625 z" />
  <path
     style="fill:#cfe2f3;fill-rule:evenodd"
     inkscape:connector-curvature="0"
     id="path3949"
     d="m 175,84.513108 h 45.95276 V 128.51311 H 175 Z" />
  <path
     style="fill-rule:evenodd;stroke:#000000;stroke-width:1;stroke-linecap:butt;stroke-linejoin:round"
     inkscape:connector-curvature="0"
     id="path3951"
     d="m 175,84.513108 h 45.95276 V 128.51311 H 175 Z" />
  <path
     style="fill:#cfe2f3;fill-rule:evenodd"
     inkscape:connector-curvature="0"
     id="path3953"
     d="m 246,84.513108 h 45.95276 V 128.51311 H 246 Z" />
  <path
     style="fill-rule:evenodd;stroke:#000000;stroke-width:1;stroke-linecap:butt;stroke-linejoin:round"
     inkscape:connector-curvature="0"
     id="path3955"
     d="m 246,84.513108 h 45.95276 V 128.51311 H 246 Z" />
  <path
     style="fill:#000000;fill-opacity:0;fill-rule:evenodd"
     inkscape:connector-curvature="0"
     id="path3957"
     d="m 183.77623,44.499878 -56.7874,39.999996" />
  <path
     style="fill-rule:evenodd;stroke:#000000;stroke-width:1;stroke-linecap:butt;stroke-linejoin:round"
     inkscape:connector-curvature="0"
     id="path3959"
     d="m 183.77623,44.499878 -56.7874,39.999996" />
  <path
     style="fill:#000000;fill-opacity:0;fill-rule:evenodd"
     inkscape:connector-curvature="0"
     id="path3961"
     d="m 197.97638,44.499988 v 40" />
  <path
     style="fill-rule:evenodd;stroke:#000000;stroke-width:1;stroke-linecap:butt;stroke-linejoin:round"
     inkscape:connector-curvature="0"
     id="path3963"
     d="m 197.97638,44.499988 v 40" />
  <path
     style="fill:#000000;fill-opacity:0;fill-rule:evenodd"
     inkscape:connector-curvature="0"
     id="path3965"
     d="m 212.17653,44.499878 56.7874,39.999996" />
  <path
     style="fill-rule:evenodd;stroke:#000000;stroke-width:1;stroke-linecap:butt;stroke-linejoin:round"
     inkscape:connector-curvature="0"
     id="path3967"
     d="m 212.17653,44.499878 56.7874,39.999996" />
  <path
     style="fill:#000000;fill-opacity:0;fill-rule:evenodd"
     inkscape:connector-curvature="0"
     id="path3969"
     d="M 297.3622,83.287388 H 437.3937 V 124.73621 H 297.3622 Z" />
  <path
     style="fill:#000000;fill-rule:nonzero"
     inkscape:connector-curvature="0"
     id="path3971"
     d="M 311.2841,110.20739 V 98.207388 h -4.46875 v -1.59375 h 10.76563 v 1.59375 h -4.5 v 12.000002 z m 7.70847,0 v -9.85938 h 1.5 v 1.50001 q 0.57812,-1.04688 1.0625,-1.37501 0.48437,-0.34375 1.07812,-0.34375 0.84375,0 1.71875,0.54688 l -0.57812,1.54688 q -0.60938,-0.35938 -1.23438,-0.35938 -0.54687,0 -0.98437,0.32813 -0.42188,0.32812 -0.60938,0.90625 -0.28125,0.89062 -0.28125,1.95312 v 5.15625 z m 12.6658,-1.21875 q -0.9375,0.79688 -1.79688,1.125 -0.85937,0.3125 -1.84375,0.3125 -1.60937,0 -2.48437,-0.78125 -0.875,-0.79687 -0.875,-2.03125 0,-0.73437 0.32812,-1.32812 0.32813,-0.59375 0.85938,-0.95313 0.53125,-0.35937 1.20312,-0.54687 0.5,-0.14063 1.48438,-0.25 2.03125,-0.25 2.98437,-0.57813 0,-0.34375 0,-0.4375 0,-1.01562 -0.46875,-1.4375 -0.64062,-0.5625 -1.90625,-0.5625 -1.17187,0 -1.73437,0.40625 -0.5625,0.40625 -0.82813,1.46875 l -1.64062,-0.23437 q 0.23437,-1.04688 0.73437,-1.6875 0.51563,-0.64063 1.46875,-0.98438 0.96875,-0.35938 2.25,-0.35938 1.26563,0 2.04688,0.29688 0.78125,0.29688 1.15625,0.75 0.375,0.45313 0.51562,1.14063 0.0937,0.42187 0.0937,1.53125 v 2.23437 q 0,2.32813 0.0937,2.95313 0.10938,0.60937 0.4375,1.17187 h -1.75 q -0.26562,-0.51562 -0.32812,-1.21875 z m -0.14063,-3.71875 q -0.90625,0.35938 -2.73437,0.625 -1.03125,0.14063 -1.45313,0.32813 -0.42187,0.1875 -0.65625,0.54687 -0.23437,0.35938 -0.23437,0.79688 0,0.67187 0.5,1.125 0.51562,0.4375 1.48437,0.4375 0.96875,0 1.71875,-0.42188 0.75,-0.4375 1.10938,-1.15625 0.26562,-0.57812 0.26562,-1.67187 z m 4.07886,4.9375 v -9.85938 h 1.5 v 1.40626 q 1.09375,-1.62501 3.14063,-1.62501 0.89062,0 1.64062,0.32813 0.75,0.3125 1.10938,0.84375 0.375,0.51563 0.53125,1.21875 0.0937,0.46875 0.0937,1.625 v 6.0625 h -1.67188 v -6 q 0,-1.01562 -0.20312,-1.51562 -0.1875,-0.51563 -0.6875,-0.8125 -0.5,-0.29688 -1.17188,-0.29688 -1.0625,0 -1.84375,0.67188 -0.76562,0.67187 -0.76562,2.57812 v 5.375 z m 9.70383,-2.9375 1.65625,-0.26562 q 0.14062,1 0.76562,1.53125 0.64063,0.51562 1.78125,0.51562 1.15625,0 1.70313,-0.46875 0.5625,-0.46875 0.5625,-1.09375 0,-0.5625 -0.48438,-0.89062 -0.34375,-0.21875 -1.70312,-0.5625 -1.84375,-0.46875 -2.5625,-0.79688 -0.70313,-0.34375 -1.07813,-0.9375 -0.35937,-0.60937 -0.35937,-1.32812 0,-0.65625 0.29687,-1.21875 0.3125,-0.5625 0.82813,-0.9375 0.39062,-0.28125 1.0625,-0.48438 0.67187,-0.20313 1.4375,-0.20313 1.17187,0 2.04687,0.34375 0.875,0.32813 1.28125,0.90626 0.42188,0.5625 0.57813,1.51562 l -1.625,0.21875 q -0.10938,-0.75 -0.65625,-1.17187 -0.53125,-0.4375 -1.5,-0.4375 -1.15625,0 -1.64063,0.39062 -0.48437,0.375 -0.48437,0.875 0,0.32813 0.20312,0.59375 0.20313,0.26563 0.64063,0.4375 0.25,0.0937 1.46875,0.4375 1.76562,0.46875 2.46875,0.76563 0.70312,0.29687 1.09375,0.875 0.40625,0.57812 0.40625,1.4375 0,0.82812 -0.48438,1.57812 -0.48437,0.73438 -1.40625,1.14063 -0.92187,0.39062 -2.07812,0.39062 -1.92188,0 -2.9375,-0.79687 -1,-0.79688 -1.28125,-2.35938 z m 10.40625,2.9375 v -8.54687 h -1.48438 v -1.31251 h 1.48438 v -1.046872 q 0,-0.984375 0.17187,-1.46875 0.23438,-0.65625 0.84375,-1.046875 0.60938,-0.40625 1.70313,-0.40625 0.70312,0 1.5625,0.15625 l -0.25,1.46875 q -0.51563,-0.09375 -0.98438,-0.09375 -0.76562,0 -1.07812,0.328125 -0.3125,0.3125 -0.3125,1.203125 v 0.906247 h 1.92187 v 1.31251 h -1.92187 v 8.54687 z m 4.15207,-4.92187 q 0,-2.73438 1.53125,-4.0625 1.26562,-1.09376 3.09375,-1.09376 2.03125,0 3.3125,1.34376 1.29687,1.32812 1.29687,3.67187 0,1.90625 -0.57812,3 -0.5625,1.07813 -1.65625,1.6875 -1.07813,0.59375 -2.375,0.59375 -2.0625,0 -3.34375,-1.32812 -1.28125,-1.32813 -1.28125,-3.8125 z m 1.71875,0 q 0,1.89062 0.82812,2.82812 0.82813,0.9375 2.07813,0.9375 1.25,0 2.0625,-0.9375 0.82812,-0.95312 0.82812,-2.89062 0,-1.82813 -0.82812,-2.76563 -0.82813,-0.9375 -2.0625,-0.9375 -1.25,0 -2.07813,0.9375 -0.82812,0.9375 -0.82812,2.82813 z m 9.26632,4.92187 v -9.85938 h 1.5 v 1.50001 q 0.57813,-1.04688 1.0625,-1.37501 0.48438,-0.34375 1.07813,-0.34375 0.84375,0 1.71875,0.54688 l -0.57813,1.54688 q -0.60937,-0.35938 -1.23437,-0.35938 -0.54688,0 -0.98438,0.32813 -0.42187,0.32812 -0.60937,0.90625 -0.28125,0.89062 -0.28125,1.95312 v 5.15625 z m 6.2283,0 v -9.85938 h 1.5 v 1.39063 q 0.45313,-0.71875 1.21875,-1.15625 0.78125,-0.45313 1.76563,-0.45313 1.09375,0 1.79687,0.45313 0.70313,0.45313 0.98438,1.28125 1.17187,-1.73438 3.04687,-1.73438 1.46875,0 2.25,0.81251 0.79688,0.8125 0.79688,2.5 v 6.76562 h -1.67188 v -6.20312 q 0,-1 -0.15625,-1.4375 -0.15625,-0.45313 -0.59375,-0.71875 -0.42187,-0.26563 -1,-0.26563 -1.03125,0 -1.71875,0.6875 -0.6875,0.6875 -0.6875,2.21875 v 5.71875 h -1.67187 v -6.40625 q 0,-1.10937 -0.40625,-1.65625 -0.40625,-0.5625 -1.34375,-0.5625 -0.70313,0 -1.3125,0.375 -0.59375,0.35938 -0.85938,1.07813 -0.26562,0.71875 -0.26562,2.0625 v 5.10937 z m 22.29081,-3.17187 1.71875,0.21875 q -0.40625,1.5 -1.51563,2.34375 -1.09375,0.82812 -2.8125,0.82812 -2.15625,0 -3.42187,-1.32812 -1.26563,-1.32813 -1.26563,-3.73438 0,-2.48437 1.26563,-3.85937 1.28125,-1.37501 3.32812,-1.37501 1.98438,0 3.23438,1.34376 1.25,1.34375 1.25,3.79687 0,0.14063 -0.0156,0.4375 h -7.34375 q 0.0937,1.625 0.92188,2.48438 0.82812,0.85937 2.0625,0.85937 0.90625,0 1.54687,-0.46875 0.65625,-0.48437 1.04688,-1.54687 z m -5.48438,-2.70313 h 5.5 q -0.10937,-1.23437 -0.625,-1.85937 -0.79687,-0.96875 -2.07812,-0.96875 -1.14063,0 -1.9375,0.78125 -0.78125,0.76562 -0.85938,2.04687 z m 9.09448,5.875 v -9.85938 h 1.5 v 1.50001 q 0.57813,-1.04688 1.0625,-1.37501 0.48438,-0.34375 1.07813,-0.34375 0.84375,0 1.71875,0.54688 l -0.57813,1.54688 q -0.60937,-0.35938 -1.23437,-0.35938 -0.54688,0 -0.98438,0.32813 -0.42187,0.32812 -0.60937,0.90625 -0.28125,0.89062 -0.28125,1.95312 v 5.15625 z" />
  <path
     style="fill:#cfe2f3;fill-rule:evenodd"
     inkscape:connector-curvature="0"
     id="path3973"
     d="m 174.99869,158.51049 h 45.95276 v 44 h -45.95276 z" />
  <path
     style="fill-rule:evenodd;stroke:#000000;stroke-width:1;stroke-linecap:butt;stroke-linejoin:round"
     inkscape:connector-curvature="0"
     id="path3975"
     d="m 174.99869,158.51049 h 45.95276 v 44 h -45.95276 z" />
  <path
     style="fill:#000000;fill-opacity:0;fill-rule:evenodd"
     inkscape:connector-curvature="0"
     id="path3977"
     d="M 64.379265,158.51049 H 164.37927 v 44 H 64.379265 Z" />
  <path
     style="fill:#000000;fill-rule:nonzero"
     inkscape:connector-curvature="0"
     id="path3979"
     d="m 74.598015,185.43049 v -13.59375 h 1.671875 v 13.59375 z m 4.191696,-11.6875 v -1.90625 h 1.671875 v 1.90625 z m 0,11.6875 v -9.85938 h 1.671875 v 9.85938 z m 3.457321,-2.9375 1.65625,-0.26563 q 0.140625,1 0.765625,1.53125 0.640625,0.51563 1.78125,0.51563 1.15625,0 1.703125,-0.46875 0.5625,-0.46875 0.5625,-1.09375 0,-0.5625 -0.484375,-0.89063 -0.34375,-0.21875 -1.703125,-0.5625 -1.84375,-0.46875 -2.5625,-0.79687 -0.703125,-0.34375 -1.078125,-0.9375 -0.359375,-0.60938 -0.359375,-1.32813 0,-0.65625 0.296875,-1.21875 0.3125,-0.5625 0.828125,-0.9375 0.390625,-0.28125 1.0625,-0.48437 0.671875,-0.20313 1.4375,-0.20313 1.171875,0 2.046875,0.34375 0.875,0.32813 1.28125,0.90625 0.421875,0.5625 0.578125,1.51563 l -1.625,0.21875 q -0.109375,-0.75 -0.65625,-1.17188 -0.53125,-0.4375 -1.5,-0.4375 -1.15625,0 -1.640625,0.39063 -0.484375,0.375 -0.484375,0.875 0,0.32812 0.203125,0.59375 0.203125,0.26562 0.640625,0.4375 0.25,0.0937 1.46875,0.4375 1.765625,0.46875 2.46875,0.76562 0.703125,0.29688 1.09375,0.875 0.40625,0.57813 0.40625,1.4375 0,0.82813 -0.484375,1.57813 -0.484375,0.73437 -1.40625,1.14062 -0.921875,0.39063 -2.078125,0.39063 -1.921875,0 -2.9375,-0.79688 -1,-0.79687 -1.28125,-2.35937 z m 13.656248,1.4375 0.23438,1.48437 q -0.70313,0.14063 -1.26563,0.14063 -0.90625,0 -1.40625,-0.28125 -0.5,-0.29688 -0.70312,-0.75 -0.20313,-0.46875 -0.20313,-1.98438 v -5.65625 h -1.234373 v -1.3125 h 1.234373 v -2.4375 l 1.65625,-1 v 3.4375 h 1.6875 v 1.3125 h -1.6875 v 5.75 q 0,0.71875 0.0781,0.92188 0.0937,0.20312 0.29687,0.32812 0.20313,0.125 0.57813,0.125 0.26562,0 0.73437,-0.0781 z m 8.27706,-1.67188 1.71875,0.21875 q -0.40625,1.5 -1.51563,2.34375 -1.09375,0.82813 -2.8125,0.82813 -2.15625,0 -3.42187,-1.32813 -1.26563,-1.32812 -1.26563,-3.73437 0,-2.48438 1.26563,-3.85938 1.28125,-1.375 3.32812,-1.375 1.98438,0 3.23438,1.34375 1.25,1.34375 1.25,3.79688 0,0.14062 -0.0156,0.4375 h -7.34375 q 0.0937,1.625 0.92188,2.48437 0.82812,0.85938 2.0625,0.85938 0.90625,0 1.54687,-0.46875 0.65625,-0.48438 1.04688,-1.54688 z m -5.48438,-2.70312 h 5.5 q -0.10937,-1.23438 -0.625,-1.85938 -0.79687,-0.96875 -2.07812,-0.96875 -1.14063,0 -1.9375,0.78125 -0.78125,0.76563 -0.85938,2.04688 z m 9.11009,5.875 v -9.85938 h 1.5 v 1.40625 q 1.09375,-1.625 3.14063,-1.625 0.89062,0 1.64062,0.32813 0.75,0.3125 1.10938,0.84375 0.375,0.51562 0.53125,1.21875 0.0937,0.46875 0.0937,1.625 v 6.0625 h -1.67188 v -6 q 0,-1.01563 -0.20312,-1.51563 -0.1875,-0.51562 -0.6875,-0.8125 -0.5,-0.29687 -1.17188,-0.29687 -1.0625,0 -1.84375,0.67187 -0.76562,0.67188 -0.76562,2.57813 v 5.375 z m 17.12573,-3.17188 1.71875,0.21875 q -0.40625,1.5 -1.51563,2.34375 -1.09375,0.82813 -2.8125,0.82813 -2.15625,0 -3.42188,-1.32813 -1.26562,-1.32812 -1.26562,-3.73437 0,-2.48438 1.26562,-3.85938 1.28126,-1.375 3.32813,-1.375 1.98438,0 3.23438,1.34375 1.25,1.34375 1.25,3.79688 0,0.14062 -0.0156,0.4375 h -7.34375 q 0.0937,1.625 0.92188,2.48437 0.82812,0.85938 2.0625,0.85938 0.90625,0 1.54687,-0.46875 0.65625,-0.48438 1.04688,-1.54688 z m -5.48438,-2.70312 h 5.5 q -0.10937,-1.23438 -0.625,-1.85938 -0.79687,-0.96875 -2.07812,-0.96875 -1.14063,0 -1.9375,0.78125 -0.78126,0.76563 -0.85938,2.04688 z m 9.09447,5.875 v -9.85938 h 1.5 v 1.5 q 0.57813,-1.04687 1.0625,-1.375 0.48438,-0.34375 1.07813,-0.34375 0.84375,0 1.71875,0.54688 l -0.57813,1.54687 q -0.60937,-0.35937 -1.23437,-0.35937 -0.54688,0 -0.98438,0.32812 -0.42187,0.32813 -0.60937,0.90625 -0.28125,0.89063 -0.28125,1.95313 v 5.15625 z m 5.55643,-2.9375 1.65625,-0.26563 q 0.14062,1 0.76562,1.53125 0.64063,0.51563 1.78125,0.51563 1.15625,0 1.70313,-0.46875 0.5625,-0.46875 0.5625,-1.09375 0,-0.5625 -0.48438,-0.89063 -0.34375,-0.21875 -1.70312,-0.5625 -1.84375,-0.46875 -2.5625,-0.79687 -0.70313,-0.34375 -1.07813,-0.9375 -0.35937,-0.60938 -0.35937,-1.32813 0,-0.65625 0.29687,-1.21875 0.3125,-0.5625 0.82813,-0.9375 0.39062,-0.28125 1.0625,-0.48437 0.67187,-0.20313 1.4375,-0.20313 1.17187,0 2.04687,0.34375 0.875,0.32813 1.28125,0.90625 0.42188,0.5625 0.57813,1.51563 l -1.625,0.21875 q -0.10938,-0.75 -0.65625,-1.17188 -0.53125,-0.4375 -1.5,-0.4375 -1.15625,0 -1.64063,0.39063 -0.48437,0.375 -0.48437,0.875 0,0.32812 0.20312,0.59375 0.20313,0.26562 0.64063,0.4375 0.25,0.0937 1.46875,0.4375 1.76562,0.46875 2.46875,0.76562 0.70312,0.29688 1.09375,0.875 0.40625,0.57813 0.40625,1.4375 0,0.82813 -0.48438,1.57813 -0.48437,0.73437 -1.40625,1.14062 -0.92187,0.39063 -2.07812,0.39063 -1.92188,0 -2.9375,-0.79688 -1,-0.79687 -1.28125,-2.35937 z m 10.46875,-5.01563 v -1.90625 h 1.90625 v 1.90625 z m 0,7.95313 v -1.90625 h 1.90625 v 1.90625 z" />
  <path
     style="fill:#cfe2f3;fill-rule:evenodd"
     inkscape:connector-curvature="0"
     id="path3981"
     d="m 245.99869,158.51049 h 45.95276 v 44 h -45.95276 z" />
  <path
     style="fill-rule:evenodd;stroke:#000000;stroke-width:1;stroke-linecap:butt;stroke-linejoin:round"
     inkscape:connector-curvature="0"
     id="path3983"
     d="m 245.99869,158.51049 h 45.95276 v 44 h -45.95276 z" />
  <path
     style="fill:#cfe2f3;fill-rule:evenodd"
     inkscape:connector-curvature="0"
     id="path3985"
     d="m 316.9987,158.51049 h 45.95276 v 44 H 316.9987 Z" />
  <path
     style="fill-rule:evenodd;stroke:#000000;stroke-width:1;stroke-linecap:butt;stroke-linejoin:round"
     inkscape:connector-curvature="0"
     id="path3987"
     d="m 316.9987,158.51049 h 45.95276 v 44 H 316.9987 Z" />
  <path
     style="fill:#000000;fill-opacity:0;fill-rule:evenodd"
     inkscape:connector-curvature="0"
     id="path3989"
     d="m 254.7762,126.01169 -56.78738,32.50394" />
  <path
     style="fill-rule:evenodd;stroke:#000000;stroke-width:1;stroke-linecap:butt;stroke-linejoin:round"
     inkscape:connector-curvature="0"
     id="path3991"
     d="m 254.7762,126.01169 -56.78738,32.50394" />
  <path
     style="fill:#000000;fill-opacity:0;fill-rule:evenodd"
     inkscape:connector-curvature="0"
     id="path3993"
     d="m 268.97638,126.0118 v 32.50394" />
  <path
     style="fill-rule:evenodd;stroke:#000000;stroke-width:1;stroke-linecap:butt;stroke-linejoin:round"
     inkscape:connector-curvature="0"
     id="path3995"
     d="m 268.97638,126.0118 v 32.50394" />
  <path
     style="fill:#000000;fill-opacity:0;fill-rule:evenodd"
     inkscape:connector-curvature="0"
     id="path3997"
     d="m 283.17654,126.01169 56.78738,32.50394" />
  <path
     style="fill-rule:evenodd;stroke:#000000;stroke-width:1;stroke-linecap:butt;stroke-linejoin:round"
     inkscape:connector-curvature="0"
     id="path3999"
     d="m 283.17654,126.01169 56.78738,32.50394" />
  <path
     style="fill:#cfe2f3;fill-rule:evenodd"
     inkscape:connector-curvature="0"
     id="path4001"
     d="M 175.00005,17.306449 197.97638,0.49998805 220.95272,17.306449 212.17653,44.499877 h -28.4003 z" />
  <path
     style="fill-rule:evenodd;stroke:#000000;stroke-width:1;stroke-linecap:butt;stroke-linejoin:round"
     inkscape:connector-curvature="0"
     id="path4003"
     d="M 175.00005,17.306449 197.97638,0.49998805 220.95272,17.306449 212.17653,44.499877 h -28.4003 z" />
  <path
     style="fill:#cfe2f3;fill-rule:evenodd"
     inkscape:connector-curvature="0"
     id="path4005"
     d="m 246.00005,98.818263 22.97633,-16.806465 22.97632,16.806465 -8.77615,27.193427 h -28.40033 z" />
  <path
     style="fill-rule:evenodd;stroke:#000000;stroke-width:1;stroke-linecap:butt;stroke-linejoin:round"
     inkscape:connector-curvature="0"
     id="path4007"
     d="m 246.00005,98.818263 22.97633,-16.806465 22.97632,16.806465 -8.77615,27.193427 h -28.40033 z" />
</svg>
