<?xml version="1.0" encoding="UTF-8" standalone="no"?>
<svg
   xmlns:dc="http://purl.org/dc/elements/1.1/"
   xmlns:cc="http://creativecommons.org/ns#"
   xmlns:rdf="http://www.w3.org/1999/02/22-rdf-syntax-ns#"
   xmlns:svg="http://www.w3.org/2000/svg"
   xmlns="http://www.w3.org/2000/svg"
   xmlns:sodipodi="http://sodipodi.sourceforge.net/DTD/sodipodi-0.dtd"
   xmlns:inkscape="http://www.inkscape.org/namespaces/inkscape"
   version="1.1"
   viewBox="0 0 299.07217 222.44357"
   stroke-miterlimit="10"
   id="svg4145"
   sodipodi:docname="multicast.svg"
   width="299.07217"
   height="222.44357"
   style="fill:none;stroke:none;stroke-linecap:square;stroke-miterlimit:10"
   inkscape:version="0.92.2 5c3e80d, 2017-08-06">
  <metadata
     id="metadata4151">
    <rdf:RDF>
      <cc:Work
         rdf:about="">
        <dc:format>image/svg+xml</dc:format>
        <dc:type
           rdf:resource="http://purl.org/dc/dcmitype/StillImage" />
      </cc:Work>
    </rdf:RDF>
  </metadata>
  <defs
     id="defs4149" />
  <sodipodi:namedview
     pagecolor="#ffffff"
     bordercolor="#666666"
     borderopacity="1"
     objecttolerance="10"
     gridtolerance="10"
     guidetolerance="10"
     inkscape:pageopacity="0"
     inkscape:pageshadow="2"
     inkscape:window-width="2260"
     inkscape:window-height="1553"
     id="namedview4147"
     showgrid="false"
     inkscape:zoom="3.9333333"
     inkscape:cx="111.40046"
     inkscape:cy="112.72983"
     inkscape:window-x="674"
     inkscape:window-y="231"
     inkscape:window-maximized="0"
     inkscape:current-layer="svg4145" />
  <clipPath
     id="p.0">
    <path
       d="M 0,0 H 1280 V 960 H 0 Z"
       id="path4082"
       inkscape:connector-curvature="0"
       style="clip-rule:nonzero" />
  </clipPath>
  <path
     style="fill:#000000;fill-opacity:0;fill-rule:evenodd"
     inkscape:connector-curvature="0"
     id="path4085"
     d="M -16.742783,-6.04068 H 1263.2572 v 960 H -16.742783 Z" />
  <path
     style="fill:#000000;fill-opacity:0;fill-rule:evenodd"
     inkscape:connector-curvature="0"
     id="path4087"
     d="M 0,6.972444 H 188 V 50.972443 H 0 Z" />
  <path
     style="fill:#000000;fill-rule:nonzero"
     inkscape:connector-curvature="0"
     id="path4089"
     d="M 10.40625,33.89244 V 20.29869 H 13.125 l 3.21875,9.625 q 0.4375,1.34375 0.640625,2.015625 0.234375,-0.75 0.734375,-2.1875 l 3.25,-9.453125 h 2.421875 V 33.89244 H 21.65625 V 22.501815 L 17.703125,33.89244 h -1.625 l -3.9375,-11.578125 V 33.89244 Z m 21.837677,0 v -1.453125 q -1.140625,1.671875 -3.125,1.671875 -0.859375,0 -1.625,-0.328125 -0.75,-0.34375 -1.125,-0.84375 -0.359375,-0.5 -0.515625,-1.234375 -0.09375,-0.5 -0.09375,-1.5625 v -6.109375 h 1.671875 v 5.46875 q 0,1.3125 0.09375,1.765625 0.15625,0.65625 0.671875,1.03125 0.515625,0.375 1.265625,0.375 0.75,0 1.40625,-0.375 0.65625,-0.390625 0.921875,-1.046875 0.28125,-0.671875 0.28125,-1.9375 v -5.28125 h 1.671875 v 9.859375 z m 3.891342,0 V 20.29869 h 1.671875 v 13.59375 z m 7.832321,-1.5 0.234375,1.484375 q -0.703125,0.140625 -1.265625,0.140625 -0.90625,0 -1.40625,-0.28125 -0.5,-0.296875 -0.703125,-0.75 -0.203125,-0.46875 -0.203125,-1.984375 v -5.65625 h -1.234375 v -1.3125 h 1.234375 v -2.4375 l 1.65625,-1 v 3.4375 h 1.6875 v 1.3125 h -1.6875 v 5.75 q 0,0.71875 0.07813,0.921875 0.09375,0.203125 0.296875,0.328125 0.203125,0.125 0.578125,0.125 0.265625,0 0.734375,-0.07813 z m 1.542679,-10.1875 v -1.90625 h 1.671875 v 1.90625 z m 0,11.6875 v -9.859375 h 1.671875 v 9.859375 z m 10.566696,-3.609375 1.640625,0.21875 q -0.265625,1.6875 -1.375,2.65625 -1.109375,0.953125 -2.734375,0.953125 -2.015625,0 -3.25,-1.3125 -1.21875,-1.328125 -1.21875,-3.796875 0,-1.59375 0.515625,-2.78125 0.53125,-1.203125 1.609375,-1.796875 1.09375,-0.609375 2.359375,-0.609375 1.609375,0 2.625,0.8125 1.015625,0.8125 1.3125,2.3125 l -1.625,0.25 q -0.234375,-1 -0.828125,-1.5 -0.59375,-0.5 -1.421875,-0.5 -1.265625,0 -2.0625,0.90625 -0.78125,0.90625 -0.78125,2.859375 0,1.984375 0.765625,2.890625 0.765625,0.890625 1.984375,0.890625 0.984375,0 1.640625,-0.59375 0.65625,-0.609375 0.84375,-1.859375 z m 9.328125,2.390625 q -0.9375,0.796875 -1.796875,1.125 -0.859375,0.3125 -1.84375,0.3125 -1.609375,0 -2.484375,-0.78125 -0.875,-0.796875 -0.875,-2.03125 0,-0.734375 0.328125,-1.328125 0.328125,-0.59375 0.859375,-0.953125 0.53125,-0.359375 1.203125,-0.546875 0.5,-0.140625 1.484375,-0.25 2.03125,-0.25 2.984375,-0.578125 0,-0.34375 0,-0.4375 0,-1.015625 -0.46875,-1.4375 -0.640625,-0.5625 -1.90625,-0.5625 -1.171875,0 -1.734375,0.40625 -0.5625,0.40625 -0.828125,1.46875 L 58.68634,26.845565 q 0.234375,-1.046875 0.734375,-1.6875 0.515625,-0.640625 1.46875,-0.984375 0.96875,-0.359375 2.25,-0.359375 1.265625,0 2.046875,0.296875 0.78125,0.296875 1.15625,0.75 0.375,0.453125 0.515625,1.140625 0.09375,0.421875 0.09375,1.53125 v 2.234375 q 0,2.328125 0.09375,2.953125 0.109375,0.609375 0.4375,1.171875 h -1.75 Q 65.46759,33.376815 65.40509,32.67369 Z m -0.140625,-3.71875 q -0.90625,0.359375 -2.734375,0.625 -1.03125,0.140625 -1.453125,0.328125 -0.421875,0.1875 -0.65625,0.546875 -0.234375,0.359375 -0.234375,0.796875 0,0.671875 0.5,1.125 0.515625,0.4375 1.484375,0.4375 0.96875,0 1.71875,-0.421875 0.75,-0.4375 1.109375,-1.15625 0.265625,-0.578125 0.265625,-1.671875 z m 3.406967,2 1.65625,-0.265625 q 0.140625,1 0.765625,1.53125 0.640625,0.515625 1.78125,0.515625 1.15625,0 1.703125,-0.46875 0.5625,-0.46875 0.5625,-1.09375 0,-0.5625 -0.484375,-0.890625 -0.34375,-0.21875 -1.703125,-0.5625 -1.84375,-0.46875 -2.5625,-0.796875 -0.703125,-0.34375 -1.078125,-0.9375 -0.359375,-0.609375 -0.359375,-1.328125 0,-0.65625 0.296875,-1.21875 0.3125,-0.5625 0.828125,-0.9375 0.390625,-0.28125 1.0625,-0.484375 0.671875,-0.203125 1.4375,-0.203125 1.171875,0 2.046875,0.34375 0.875,0.328125 1.28125,0.90625 0.421875,0.5625 0.578125,1.515625 l -1.625,0.21875 q -0.109375,-0.75 -0.65625,-1.171875 -0.53125,-0.4375 -1.5,-0.4375 -1.15625,0 -1.640625,0.390625 -0.484375,0.375 -0.484375,0.875 0,0.328125 0.203125,0.59375 0.203125,0.265625 0.640625,0.4375 0.25,0.09375 1.46875,0.4375 1.765625,0.46875 2.46875,0.765625 0.703125,0.296875 1.09375,0.875 0.40625,0.578125 0.40625,1.4375 0,0.828125 -0.484375,1.578125 -0.484375,0.734375 -1.40625,1.140625 -0.921875,0.390625 -2.078125,0.390625 -1.921875,0 -2.9375,-0.796875 -1,-0.796875 -1.28125,-2.359375 z m 13.65625,1.4375 0.234375,1.484375 q -0.703125,0.140625 -1.265625,0.140625 -0.90625,0 -1.40625,-0.28125 -0.5,-0.296875 -0.703125,-0.75 -0.203125,-0.46875 -0.203125,-1.984375 v -5.65625 h -1.234375 v -1.3125 h 1.234375 v -2.4375 l 1.65625,-1 v 3.4375 h 1.6875 v 1.3125 h -1.6875 v 5.75 q 0,0.71875 0.07813,0.921875 0.09375,0.203125 0.296875,0.328125 0.203125,0.125 0.578125,0.125 0.265625,0 0.734375,-0.07813 z m 6.319735,-2.875 1.6875,-0.140625 q 0.125,1.015625 0.5625,1.671875 0.4375,0.65625 1.35937,1.0625 0.9375,0.40625 2.09375,0.40625 1.03125,0 1.8125,-0.3125 0.79688,-0.3125 1.1875,-0.84375 0.39063,-0.53125 0.39063,-1.15625 0,-0.640625 -0.375,-1.109375 -0.375,-0.484375 -1.23438,-0.8125 -0.54687,-0.21875 -2.42187,-0.65625 -1.875,-0.453125 -2.625,-0.859375 -0.96875,-0.515625 -1.45313,-1.265625 -0.46875,-0.75 -0.46875,-1.6875 0,-1.03125 0.57813,-1.921875 0.59375,-0.90625 1.70312,-1.359375 1.125,-0.46875 2.5,-0.46875 1.51563,0 2.67188,0.484375 1.15625,0.484375 1.76562,1.4375 0.625,0.9375 0.67188,2.140625 l -1.71875,0.125 q -0.14063,-1.28125 -0.95313,-1.9375 -0.79687,-0.671875 -2.35937,-0.671875 -1.625,0 -2.375,0.609375 -0.75,0.59375 -0.75,1.4375 0,0.734375 0.53125,1.203125 0.51562,0.46875 2.70312,0.96875 2.20313,0.5 3.01563,0.875 1.1875,0.546875 1.75,1.390625 0.57812,0.828125 0.57812,1.921875 0,1.09375 -0.625,2.0625 -0.625,0.953125 -1.79687,1.484375 -1.15625,0.53125 -2.60938,0.53125 -1.84375,0 -3.09375,-0.53125 -1.25,-0.546875 -1.96875,-1.625 -0.70312,-1.078125 -0.73437,-2.453125 z m 16.490453,2.875 0.23437,1.484375 q -0.70312,0.140625 -1.26562,0.140625 -0.90625,0 -1.40625,-0.28125 -0.5,-0.296875 -0.70313,-0.75 -0.20312,-0.46875 -0.20312,-1.984375 v -5.65625 h -1.23438 v -1.3125 h 1.23438 v -2.4375 l 1.65625,-1 v 3.4375 h 1.6875 v 1.3125 h -1.6875 v 5.75 q 0,0.71875 0.0781,0.921875 0.0937,0.203125 0.29688,0.328125 0.20312,0.125 0.57812,0.125 0.26563,0 0.73438,-0.07813 z m 1.51142,1.5 v -9.859375 h 1.5 v 1.5 q 0.57813,-1.046875 1.0625,-1.375 0.48438,-0.34375 1.07813,-0.34375 0.84375,0 1.71875,0.546875 l -0.57813,1.546875 q -0.60937,-0.359375 -1.23437,-0.359375 -0.54688,0 -0.98438,0.328125 -0.42187,0.328125 -0.60937,0.90625 -0.28125,0.890625 -0.28125,1.953125 v 5.15625 z m 12.97831,-3.171875 1.71875,0.21875 q -0.40625,1.5 -1.51563,2.34375 -1.09375,0.828125 -2.8125,0.828125 -2.15625,0 -3.42187,-1.328125 -1.26563,-1.328125 -1.26563,-3.734375 0,-2.484375 1.26563,-3.859375 1.28125,-1.375 3.32812,-1.375 1.98438,0 3.23438,1.34375 1.25,1.34375 1.25,3.796875 0,0.140625 -0.0156,0.4375 h -7.34375 q 0.0937,1.625 0.92188,2.484375 0.82812,0.859375 2.0625,0.859375 0.90625,0 1.54687,-0.46875 0.65625,-0.484375 1.04688,-1.546875 z m -5.48438,-2.703125 h 5.5 q -0.10937,-1.234375 -0.625,-1.859375 -0.79687,-0.96875 -2.07812,-0.96875 -1.14063,0 -1.9375,0.78125 -0.78125,0.765625 -0.85938,2.046875 z m 15.54759,4.65625 q -0.9375,0.796875 -1.79687,1.125 -0.85938,0.3125 -1.84375,0.3125 -1.60938,0 -2.48438,-0.78125 -0.875,-0.796875 -0.875,-2.03125 0,-0.734375 0.32813,-1.328125 0.32812,-0.59375 0.85937,-0.953125 0.53125,-0.359375 1.20313,-0.546875 0.5,-0.140625 1.48437,-0.25 2.03125,-0.25 2.98438,-0.578125 0,-0.34375 0,-0.4375 0,-1.015625 -0.46875,-1.4375 -0.64063,-0.5625 -1.90625,-0.5625 -1.17188,0 -1.73438,0.40625 -0.5625,0.40625 -0.82812,1.46875 l -1.64063,-0.234375 q 0.23438,-1.046875 0.73438,-1.6875 0.51562,-0.640625 1.46875,-0.984375 0.96875,-0.359375 2.25,-0.359375 1.26562,0 2.04687,0.296875 0.78125,0.296875 1.15625,0.75 0.375,0.453125 0.51563,1.140625 0.0937,0.421875 0.0937,1.53125 v 2.234375 q 0,2.328125 0.0937,2.953125 0.10937,0.609375 0.4375,1.171875 h -1.75 q -0.26563,-0.515625 -0.32813,-1.21875 z m -0.14062,-3.71875 q -0.90625,0.359375 -2.73438,0.625 -1.03125,0.140625 -1.45312,0.328125 -0.42188,0.1875 -0.65625,0.546875 -0.23438,0.359375 -0.23438,0.796875 0,0.671875 0.5,1.125 0.51563,0.4375 1.48438,0.4375 0.96875,0 1.71875,-0.421875 0.75,-0.4375 1.10937,-1.15625 0.26563,-0.578125 0.26563,-1.671875 z m 4.07884,4.9375 v -9.859375 h 1.5 v 1.390625 q 0.45313,-0.71875 1.21875,-1.15625 0.78125,-0.453125 1.76563,-0.453125 1.09375,0 1.79687,0.453125 0.70313,0.453125 0.98438,1.28125 1.17187,-1.734375 3.04687,-1.734375 1.46875,0 2.25,0.8125 0.79688,0.8125 0.79688,2.5 v 6.765625 h -1.67188 v -6.203125 q 0,-1 -0.15625,-1.4375 -0.15625,-0.453125 -0.59375,-0.71875 -0.42187,-0.265625 -1,-0.265625 -1.03125,0 -1.71875,0.6875 -0.6875,0.6875 -0.6875,2.21875 v 5.71875 h -1.67187 v -6.40625 q 0,-1.109375 -0.40625,-1.65625 -0.40625,-0.5625 -1.34375,-0.5625 -0.70313,0 -1.3125,0.375 -0.59375,0.359375 -0.85938,1.078125 -0.26562,0.71875 -0.26562,2.0625 v 5.109375 z" />
  <path
     style="fill:#cfe2f3;fill-rule:evenodd"
     inkscape:connector-curvature="0"
     id="path4091"
     d="m 181.62073,103.9462 h 45.95276 v 44 h -45.95276 z" />
  <path
     style="fill-rule:evenodd;stroke:#000000;stroke-width:1;stroke-linecap:butt;stroke-linejoin:round"
     inkscape:connector-curvature="0"
     id="path4093"
     d="m 181.62073,103.9462 h 45.95276 v 44 h -45.95276 z" />
  <path
     style="fill:#000000;fill-opacity:0;fill-rule:evenodd"
     inkscape:connector-curvature="0"
     id="path4095"
     d="M 7.434383,105.22179 H 147.46589 v 41.44882 H 7.434383 Z" />
  <path
     style="fill:#000000;fill-rule:nonzero"
     inkscape:connector-curvature="0"
     id="path4097"
     d="m 21.356257,132.14178 v -12 h -4.46875 v -1.59375 h 10.765625 v 1.59375 h -4.5 v 12 z m 7.708481,0 v -9.85938 h 1.5 v 1.5 q 0.578125,-1.04687 1.0625,-1.375 0.484375,-0.34375 1.078125,-0.34375 0.84375,0 1.71875,0.54688 l -0.578125,1.54687 q -0.609375,-0.35937 -1.234375,-0.35937 -0.546875,0 -0.984375,0.32812 -0.421875,0.32813 -0.609375,0.90625 -0.28125,0.89063 -0.28125,1.95313 v 5.15625 z m 12.665802,-1.21875 q -0.9375,0.79687 -1.796875,1.125 -0.859375,0.3125 -1.84375,0.3125 -1.609375,0 -2.484375,-0.78125 -0.875,-0.79688 -0.875,-2.03125 0,-0.73438 0.328125,-1.32813 0.328125,-0.59375 0.859375,-0.95312 0.53125,-0.35938 1.203125,-0.54688 0.5,-0.14062 1.484375,-0.25 2.03125,-0.25 2.984375,-0.57812 0,-0.34375 0,-0.4375 0,-1.01563 -0.46875,-1.4375 -0.640625,-0.5625 -1.90625,-0.5625 -1.171875,0 -1.734375,0.40625 -0.5625,0.40625 -0.828125,1.46875 L 35.01179,125.0949 q 0.234375,-1.04687 0.734375,-1.6875 0.515625,-0.64062 1.46875,-0.98437 0.96875,-0.35938 2.25,-0.35938 1.265625,0 2.046875,0.29688 0.78125,0.29687 1.15625,0.75 0.375,0.45312 0.515625,1.14062 0.09375,0.42188 0.09375,1.53125 v 2.23438 q 0,2.32812 0.09375,2.95312 0.109375,0.60938 0.4375,1.17188 h -1.75 q -0.265625,-0.51563 -0.328125,-1.21875 z m -0.140625,-3.71875 q -0.90625,0.35937 -2.734375,0.625 -1.03125,0.14062 -1.453125,0.32812 -0.421875,0.1875 -0.65625,0.54688 -0.234375,0.35937 -0.234375,0.79687 0,0.67188 0.5,1.125 0.515625,0.4375 1.484375,0.4375 0.96875,0 1.71875,-0.42187 0.75,-0.4375 1.109375,-1.15625 0.265625,-0.57813 0.265625,-1.67188 z m 4.078842,4.9375 v -9.85938 h 1.5 v 1.40625 q 1.093746,-1.625 3.140621,-1.625 0.890625,0 1.640625,0.32813 0.75,0.3125 1.109375,0.84375 0.375,0.51562 0.53125,1.21875 0.09375,0.46875 0.09375,1.625 v 6.0625 h -1.671875 v -6 q 0,-1.01563 -0.203125,-1.51563 -0.1875,-0.51562 -0.6875,-0.8125 -0.5,-0.29687 -1.171875,-0.29687 -1.0625,0 -1.84375,0.67187 -0.765625,0.67188 -0.765625,2.57813 v 5.375 z m 9.703838,-2.9375 1.65625,-0.26563 q 0.140625,1 0.765625,1.53125 0.640625,0.51563 1.78125,0.51563 1.15625,0 1.703125,-0.46875 0.5625,-0.46875 0.5625,-1.09375 0,-0.5625 -0.484375,-0.89063 -0.34375,-0.21875 -1.703125,-0.5625 -1.84375,-0.46875 -2.5625,-0.79687 -0.703125,-0.34375 -1.078125,-0.9375 -0.359375,-0.60938 -0.359375,-1.32813 0,-0.65625 0.296875,-1.21875 0.3125,-0.5625 0.828125,-0.9375 0.390625,-0.28125 1.0625,-0.48437 0.671875,-0.20313 1.4375,-0.20313 1.171875,0 2.046875,0.34375 0.875,0.32813 1.28125,0.90625 0.421875,0.5625 0.578125,1.51563 l -1.625,0.21875 q -0.109375,-0.75 -0.65625,-1.17188 -0.53125,-0.4375 -1.5,-0.4375 -1.15625,0 -1.640625,0.39063 -0.484375,0.375 -0.484375,0.875 0,0.32812 0.203125,0.59375 0.203125,0.26562 0.640625,0.4375 0.25,0.0937 1.46875,0.4375 1.765625,0.46875 2.46875,0.76562 0.703125,0.29688 1.09375,0.875 0.40625,0.57813 0.40625,1.4375 0,0.82813 -0.484375,1.57813 -0.484375,0.73437 -1.40625,1.14062 -0.921875,0.39063 -2.078125,0.39063 -1.921875,0 -2.9375,-0.79688 -1,-0.79687 -1.28125,-2.35937 z m 10.40625,2.9375 V 123.5949 H 64.29447 v -1.3125 h 1.484375 v -1.04687 q 0,-0.98438 0.171875,-1.46875 0.234375,-0.65625 0.84375,-1.04688 0.609375,-0.40625 1.703125,-0.40625 0.703125,0 1.5625,0.15625 l -0.25,1.46875 q -0.515625,-0.0937 -0.984375,-0.0937 -0.765625,0 -1.078125,0.32813 -0.3125,0.3125 -0.3125,1.20312 v 0.90625 h 1.921875 v 1.3125 h -1.921875 v 8.54688 z m 4.152054,-4.92188 q 0,-2.73437 1.53125,-4.0625 1.265625,-1.09375 3.09375,-1.09375 2.03125,0 3.3125,1.34375 1.296875,1.32813 1.296875,3.67188 0,1.90625 -0.578125,3 -0.5625,1.07812 -1.65625,1.6875 -1.078125,0.59375 -2.375,0.59375 -2.0625,0 -3.34375,-1.32813 -1.28125,-1.32812 -1.28125,-3.8125 z m 1.71875,0 q 0,1.89063 0.828125,2.82813 0.828125,0.9375 2.078125,0.9375 1.25,0 2.0625,-0.9375 0.828125,-0.95313 0.828125,-2.89063 0,-1.82812 -0.828125,-2.76562 -0.828125,-0.9375 -2.0625,-0.9375 -1.25,0 -2.078125,0.9375 -0.828125,0.9375 -0.828125,2.82812 z m 9.266342,4.92188 v -9.85938 h 1.5 v 1.5 q 0.578125,-1.04687 1.062496,-1.375 0.48438,-0.34375 1.07813,-0.34375 0.84375,0 1.71875,0.54688 l -0.57813,1.54687 q -0.60937,-0.35937 -1.23437,-0.35937 -0.54688,0 -0.98438,0.32812 -0.421871,0.32813 -0.609371,0.90625 -0.28125,0.89063 -0.28125,1.95313 v 5.15625 z m 6.228306,0 v -9.85938 h 1.5 v 1.39063 q 0.45312,-0.71875 1.21875,-1.15625 0.78125,-0.45313 1.76562,-0.45313 1.09375,0 1.79688,0.45313 0.70312,0.45312 0.98437,1.28125 1.17188,-1.73438 3.04688,-1.73438 1.46875,0 2.25,0.8125 0.796873,0.8125 0.796873,2.5 v 6.76563 h -1.671873 v -6.20313 q 0,-1 -0.15625,-1.4375 -0.15625,-0.45312 -0.59375,-0.71875 -0.42188,-0.26562 -1,-0.26562 -1.03125,0 -1.71875,0.6875 -0.6875,0.6875 -0.6875,2.21875 v 5.71875 h -1.67188 v -6.40625 q 0,-1.10938 -0.40625,-1.65625 -0.40625,-0.5625 -1.34375,-0.5625 -0.70312,0 -1.3125,0.375 -0.59375,0.35937 -0.85937,1.07812 -0.26563,0.71875 -0.26563,2.0625 v 5.10938 z m 22.290803,-3.17188 1.71875,0.21875 q -0.40625,1.5 -1.51563,2.34375 -1.09375,0.82813 -2.8125,0.82813 -2.15625,0 -3.42187,-1.32813 -1.26563,-1.32812 -1.26563,-3.73437 0,-2.48438 1.26563,-3.85938 1.28125,-1.375 3.32812,-1.375 1.98438,0 3.23438,1.34375 1.25,1.34375 1.25,3.79688 0,0.14062 -0.0156,0.4375 H 103.857 q 0.0937,1.625 0.92188,2.48437 0.82812,0.85938 2.0625,0.85938 0.90625,0 1.54687,-0.46875 0.65625,-0.48438 1.04688,-1.54688 z m -5.48438,-2.70312 h 5.5 q -0.10937,-1.23438 -0.625,-1.85938 -0.79687,-0.96875 -2.07812,-0.96875 -1.14063,0 -1.9375,0.78125 -0.78125,0.76563 -0.85938,2.04688 z m 9.09448,5.875 v -9.85938 h 1.5 v 1.5 q 0.57812,-1.04687 1.0625,-1.375 0.48437,-0.34375 1.07812,-0.34375 0.84375,0 1.71875,0.54688 l -0.57812,1.54687 q -0.60938,-0.35937 -1.23438,-0.35937 -0.54687,0 -0.98437,0.32812 -0.42188,0.32813 -0.60938,0.90625 -0.28125,0.89063 -0.28125,1.95313 v 5.15625 z" />
  <path
     style="fill:#cfe2f3;fill-rule:evenodd"
     inkscape:connector-curvature="0"
     id="path4099"
     d="m 110.61943,177.94357 h 45.95275 v 44 h -45.95275 z" />
  <path
     style="fill-rule:evenodd;stroke:#000000;stroke-width:1;stroke-linecap:butt;stroke-linejoin:round"
     inkscape:connector-curvature="0"
     id="path4101"
     d="m 110.61943,177.94357 h 45.95275 v 44 h -45.95275 z" />
  <path
     style="fill:#000000;fill-opacity:0;fill-rule:evenodd"
     inkscape:connector-curvature="0"
     id="path4103"
     d="m 0,177.94357 h 99.999997 v 44 H 0 Z" />
  <path
     style="fill:#000000;fill-rule:nonzero"
     inkscape:connector-curvature="0"
     id="path4105"
     d="m 10.21875,204.86357 v -13.59375 h 1.671875 v 13.59375 z m 4.191696,-11.6875 v -1.90625 h 1.671875 v 1.90625 z m 0,11.6875 v -9.85938 h 1.671875 v 9.85938 z m 3.457321,-2.9375 1.65625,-0.26563 q 0.140625,1 0.765625,1.53125 0.640625,0.51563 1.78125,0.51563 1.15625,0 1.703125,-0.46875 0.5625,-0.46875 0.5625,-1.09375 0,-0.5625 -0.484375,-0.89063 -0.34375,-0.21875 -1.703125,-0.5625 -1.84375,-0.46875 -2.5625,-0.79687 -0.703125,-0.34375 -1.078125,-0.9375 -0.359375,-0.60938 -0.359375,-1.32813 0,-0.65625 0.296875,-1.21875 0.3125,-0.5625 0.828125,-0.9375 0.390625,-0.28125 1.0625,-0.48437 0.671875,-0.20313 1.4375,-0.20313 1.171875,0 2.046875,0.34375 0.875,0.32813 1.28125,0.90625 0.421875,0.5625 0.578125,1.51563 l -1.625,0.21875 q -0.109375,-0.75 -0.65625,-1.17188 -0.53125,-0.4375 -1.5,-0.4375 -1.15625,0 -1.640625,0.39063 -0.484375,0.375 -0.484375,0.875 0,0.32812 0.203125,0.59375 0.203125,0.26562 0.640625,0.4375 0.25,0.0937 1.46875,0.4375 1.765625,0.46875 2.46875,0.76562 0.703125,0.29688 1.09375,0.875 0.40625,0.57813 0.40625,1.4375 0,0.82813 -0.484375,1.57813 -0.484375,0.73437 -1.40625,1.14062 -0.921875,0.39063 -2.078125,0.39063 -1.921875,0 -2.9375,-0.79688 -1,-0.79687 -1.28125,-2.35937 z m 13.65625,1.4375 0.234375,1.48437 q -0.703125,0.14063 -1.265625,0.14063 -0.90625,0 -1.40625,-0.28125 -0.5,-0.29688 -0.703125,-0.75 -0.203125,-0.46875 -0.203125,-1.98438 v -5.65625 h -1.234375 v -1.3125 h 1.234375 v -2.4375 l 1.65625,-1 v 3.4375 h 1.6875 v 1.3125 h -1.6875 v 5.75 q 0,0.71875 0.07813,0.92188 0.09375,0.20312 0.296875,0.32812 0.203125,0.125 0.578125,0.125 0.265625,0 0.734375,-0.0781 z m 8.277054,-1.67188 1.71875,0.21875 q -0.40625,1.5 -1.515625,2.34375 -1.09375,0.82813 -2.8125,0.82813 -2.15625,0 -3.421875,-1.32813 -1.265625,-1.32812 -1.265625,-3.73437 0,-2.48438 1.265625,-3.85938 1.28125,-1.375 3.328125,-1.375 1.984375,0 3.234375,1.34375 1.25,1.34375 1.25,3.79688 0,0.14062 -0.01563,0.4375 h -7.34375 q 0.09375,1.625 0.921875,2.48437 0.828125,0.85938 2.0625,0.85938 0.90625,0 1.546875,-0.46875 0.65625,-0.48438 1.046875,-1.54688 z m -5.484375,-2.70312 h 5.5 q -0.109375,-1.23438 -0.625,-1.85938 -0.796875,-0.96875 -2.078125,-0.96875 -1.140625,0 -1.9375,0.78125 -0.78125,0.76563 -0.859375,2.04688 z m 9.110092,5.875 v -9.85938 h 1.5 v 1.40625 q 1.09375,-1.625 3.140625,-1.625 0.890625,0 1.640625,0.32813 0.75,0.3125 1.109375,0.84375 0.375,0.51562 0.53125,1.21875 0.09375,0.46875 0.09375,1.625 v 6.0625 h -1.671875 v -6 q 0,-1.01563 -0.203125,-1.51563 -0.1875,-0.51562 -0.6875,-0.8125 -0.5,-0.29687 -1.171875,-0.29687 -1.0625,0 -1.84375,0.67187 -0.765625,0.67188 -0.765625,2.57813 v 5.375 z m 17.125717,-3.17188 1.71875,0.21875 q -0.40625,1.5 -1.515625,2.34375 -1.09375,0.82813 -2.8125,0.82813 -2.15625,0 -3.421875,-1.32813 -1.265625,-1.32812 -1.265625,-3.73437 0,-2.48438 1.265625,-3.85938 1.28125,-1.375 3.328125,-1.375 1.984375,0 3.234375,1.34375 1.25,1.34375 1.25,3.79688 0,0.14062 -0.01563,0.4375 h -7.34375 q 0.09375,1.625 0.921875,2.48437 0.828125,0.85938 2.0625,0.85938 0.90625,0 1.546875,-0.46875 0.65625,-0.48438 1.046875,-1.54688 z m -5.484375,-2.70312 h 5.5 q -0.109375,-1.23438 -0.625,-1.85938 -0.796875,-0.96875 -2.078125,-0.96875 -1.140625,0 -1.9375,0.78125 -0.78125,0.76563 -0.859375,2.04688 z m 9.094467,5.875 v -9.85938 h 1.5 v 1.5 q 0.578125,-1.04687 1.0625,-1.375 0.484375,-0.34375 1.078125,-0.34375 0.84375,0 1.71875,0.54688 l -0.578125,1.54687 q -0.609375,-0.35937 -1.234375,-0.35937 -0.546875,0 -0.984375,0.32812 -0.421875,0.32813 -0.609375,0.90625 -0.28125,0.89063 -0.28125,1.95313 v 5.15625 z m 5.556427,-2.9375 1.65625,-0.26563 q 0.140625,1 0.765625,1.53125 0.640625,0.51563 1.78125,0.51563 1.15625,0 1.703125,-0.46875 0.5625,-0.46875 0.5625,-1.09375 0,-0.5625 -0.484375,-0.89063 -0.34375,-0.21875 -1.703125,-0.5625 -1.84375,-0.46875 -2.5625,-0.79687 -0.703125,-0.34375 -1.078125,-0.9375 -0.359375,-0.60938 -0.359375,-1.32813 0,-0.65625 0.296875,-1.21875 0.3125,-0.5625 0.828125,-0.9375 0.390625,-0.28125 1.0625,-0.48437 0.671875,-0.20313 1.4375,-0.20313 1.171875,0 2.046875,0.34375 0.875,0.32813 1.28125,0.90625 0.421875,0.5625 0.578125,1.51563 l -1.625,0.21875 q -0.109375,-0.75 -0.65625,-1.17188 -0.53125,-0.4375 -1.5,-0.4375 -1.15625,0 -1.640625,0.39063 -0.484375,0.375 -0.484375,0.875 0,0.32812 0.203125,0.59375 0.203125,0.26562 0.640625,0.4375 0.25,0.0937 1.46875,0.4375 1.765625,0.46875 2.46875,0.76562 0.703125,0.29688 1.09375,0.875 0.40625,0.57813 0.40625,1.4375 0,0.82813 -0.484375,1.57813 -0.484375,0.73437 -1.40625,1.14062 -0.921875,0.39063 -2.078125,0.39063 -1.921875,0 -2.9375,-0.79688 -1,-0.79687 -1.28125,-2.35937 z m 10.46875,-5.01563 v -1.90625 h 1.90625 v 1.90625 z m 0,7.95313 v -1.90625 h 1.90625 v 1.90625 z" />
  <path
     style="fill:#cfe2f3;fill-rule:evenodd"
     inkscape:connector-curvature="0"
     id="path4107"
     d="m 181.61942,177.94357 h 45.95276 v 44 h -45.95276 z" />
  <path
     style="fill-rule:evenodd;stroke:#000000;stroke-width:1;stroke-linecap:butt;stroke-linejoin:round"
     inkscape:connector-curvature="0"
     id="path4109"
     d="m 181.61942,177.94357 h 45.95276 v 44 h -45.95276 z" />
  <path
     style="fill:#cfe2f3;fill-rule:evenodd"
     inkscape:connector-curvature="0"
     id="path4111"
     d="m 252.61942,177.94357 h 45.95276 v 44 h -45.95276 z" />
  <path
     style="fill-rule:evenodd;stroke:#000000;stroke-width:1;stroke-linecap:butt;stroke-linejoin:round"
     inkscape:connector-curvature="0"
     id="path4113"
     d="m 252.61942,177.94357 h 45.95276 v 44 h -45.95276 z" />
  <path
     style="fill:#cfe2f3;fill-rule:evenodd"
     inkscape:connector-curvature="0"
     id="path4115"
     d="m 181.62073,125.9462 22.97638,-22 22.97638,22 -22.97638,22 z" />
  <path
     style="fill-rule:evenodd;stroke:#000000;stroke-width:1;stroke-linecap:butt;stroke-linejoin:round"
     inkscape:connector-curvature="0"
     id="path4117"
     d="m 181.62073,125.9462 22.97638,-22 22.97638,22 -22.97638,22 z" />
  <path
     style="fill:#000000;fill-opacity:0;fill-rule:evenodd"
     inkscape:connector-curvature="0"
     id="path4119"
     d="m 278.25712,176.97244 c -2.5,-2.16667 -4.5,-11.16667 -15,-13 -10.5,-1.83333 -39.49998,13.33333 -47.99998,2 -8.5,-11.33333 -6.33335,-56.33334 -3,-70 3.33332,-13.666664 18.83332,-7.166664 23,-12 4.16667,-4.833336 1.66665,-14.166664 2,-17" />
  <path
     style="fill-rule:evenodd;stroke:#000000;stroke-width:1;stroke-linecap:butt;stroke-linejoin:round"
     inkscape:connector-curvature="0"
     id="path4121"
     d="m 278.25712,176.97244 c -2.5,-2.16667 -4.5,-11.16667 -15,-13 -10.5,-1.83333 -39.49998,13.33333 -47.99998,2 -8.5,-11.33333 -6.33335,-56.33334 -3,-70 3.33332,-13.666664 18.83332,-7.166664 23,-12 4.16667,-4.833336 1.66665,-14.166664 2,-17" />
  <path
     style="fill:#000000;fill-opacity:0;fill-rule:evenodd"
     inkscape:connector-curvature="0"
     id="path4123"
     d="m 200.25722,176.97244 c -0.66667,-15.16667 -5.33333,-72.66666 -4,-91 1.33333,-18.333336 9.16667,-13.166664 12,-19 2.83333,-5.833336 4.16667,-13.333332 5,-16" />
  <path
     style="fill-rule:evenodd;stroke:#000000;stroke-width:1;stroke-linecap:butt;stroke-linejoin:round"
     inkscape:connector-curvature="0"
     id="path4125"
     d="m 200.25722,176.97244 c -0.66667,-15.16667 -5.33333,-72.66666 -4,-91 1.33333,-18.333336 9.16667,-13.166664 12,-19 2.83333,-5.833336 4.16667,-13.333332 5,-16" />
  <path
     style="fill:#000000;fill-opacity:0;fill-rule:evenodd"
     inkscape:connector-curvature="0"
     id="path4127"
     d="m 130.25722,176.97244 c 2.16667,-2.5 3.83333,-12.33333 13,-15 9.16667,-2.66667 34.33333,12 42,-1 7.66667,-13 3.33333,-59.66666 4,-77 0.66667,-17.333336 -1.5,-19.166664 0,-27 1.5,-7.833332 7.5,-16.666664 9,-20" />
  <path
     style="fill-rule:evenodd;stroke:#000000;stroke-width:1;stroke-linecap:butt;stroke-linejoin:round"
     inkscape:connector-curvature="0"
     id="path4129"
     d="m 130.25722,176.97244 c 2.16667,-2.5 3.83333,-12.33333 13,-15 9.16667,-2.66667 34.33333,12 42,-1 7.66667,-13 3.33333,-59.66666 4,-77 0.66667,-17.333336 -1.5,-19.166664 0,-27 1.5,-7.833332 7.5,-16.666664 9,-20" />
  <path
     style="fill:#cfe2f3;fill-rule:evenodd"
     inkscape:connector-curvature="0"
     id="path4131"
     d="m 181.61942,21.22441 v 0 C 181.61942,9.778636 191.9063,0.5 204.5958,0.5 v 0 c 12.68951,0 22.97638,9.278635 22.97638,20.72441 v 0 c 0,11.445778 -10.28687,20.724411 -22.97638,20.724411 v 0 c -12.6895,0 -22.97638,-9.278633 -22.97638,-20.724411 z" />
  <path
     style="fill-rule:evenodd;stroke:#000000;stroke-width:1;stroke-linecap:butt;stroke-linejoin:round"
     inkscape:connector-curvature="0"
     id="path4133"
     d="m 181.61942,21.22441 v 0 C 181.61942,9.778636 191.9063,0.5 204.5958,0.5 v 0 c 12.68951,0 22.97638,9.278635 22.97638,20.72441 v 0 c 0,11.445778 -10.28687,20.724411 -22.97638,20.724411 v 0 c -12.6895,0 -22.97638,-9.278633 -22.97638,-20.724411 z" />
  <path
     style="fill:#cfe2f3;fill-rule:evenodd"
     inkscape:connector-curvature="0"
     id="path4135"
     d="m 197.61942,37.22441 v 0 C 197.61942,25.778636 207.9063,16.5 220.5958,16.5 v 0 c 12.68951,0 22.97639,9.278635 22.97639,20.72441 v 0 c 0,11.445778 -10.28688,20.724411 -22.97639,20.724411 v 0 c -12.6895,0 -22.97638,-9.278633 -22.97638,-20.724411 z" />
  <path
     style="fill-rule:evenodd;stroke:#000000;stroke-width:1;stroke-linecap:butt;stroke-linejoin:round"
     inkscape:connector-curvature="0"
     id="path4137"
     d="m 197.61942,37.22441 v 0 C 197.61942,25.778636 207.9063,16.5 220.5958,16.5 v 0 c 12.68951,0 22.97639,9.278635 22.97639,20.72441 v 0 c 0,11.445778 -10.28688,20.724411 -22.97639,20.724411 v 0 c -12.6895,0 -22.97638,-9.278633 -22.97638,-20.724411 z" />
  <path
     style="fill:#cfe2f3;fill-rule:evenodd"
     inkscape:connector-curvature="0"
     id="path4139"
     d="m 213.61942,53.22441 v 0 c 0,-11.445774 10.28688,-20.724407 22.97638,-20.724407 v 0 c 12.6895,0 22.97639,9.278633 22.97639,20.724407 v 0 c 0,11.445778 -10.28689,20.724411 -22.97639,20.724411 v 0 c -12.6895,0 -22.97638,-9.278633 -22.97638,-20.724411 z" />
  <path
     style="fill-rule:evenodd;stroke:#000000;stroke-width:1;stroke-linecap:butt;stroke-linejoin:round"
     inkscape:connector-curvature="0"
     id="path4141"
     d="m 213.61942,53.22441 v 0 c 0,-11.445774 10.28688,-20.724407 22.97638,-20.724407 v 0 c 12.6895,0 22.97639,9.278633 22.97639,20.724407 v 0 c 0,11.445778 -10.28689,20.724411 -22.97639,20.724411 v 0 c -12.6895,0 -22.97638,-9.278633 -22.97638,-20.724411 z" />
</svg>
