<?xml version="1.0" encoding="UTF-8" standalone="no"?>
<svg
   xmlns:dc="http://purl.org/dc/elements/1.1/"
   xmlns:cc="http://creativecommons.org/ns#"
   xmlns:rdf="http://www.w3.org/1999/02/22-rdf-syntax-ns#"
   xmlns:svg="http://www.w3.org/2000/svg"
   xmlns="http://www.w3.org/2000/svg"
   xmlns:sodipodi="http://sodipodi.sourceforge.net/DTD/sodipodi-0.dtd"
   xmlns:inkscape="http://www.inkscape.org/namespaces/inkscape"
   version="1.1"
   viewBox="0 0 223.47638 210.52231"
   stroke-miterlimit="10"
   id="svg4198"
   sodipodi:docname="single_subscription.svg"
   width="223.47638"
   height="210.52231"
   style="fill:none;stroke:none;stroke-linecap:square;stroke-miterlimit:10"
   inkscape:version="0.92.2 5c3e80d, 2017-08-06">
  <metadata
     id="metadata4204">
    <rdf:RDF>
      <cc:Work
         rdf:about="">
        <dc:format>image/svg+xml</dc:format>
        <dc:type
           rdf:resource="http://purl.org/dc/dcmitype/StillImage" />
      </cc:Work>
    </rdf:RDF>
  </metadata>
  <defs
     id="defs4202" />
  <sodipodi:namedview
     pagecolor="#ffffff"
     bordercolor="#666666"
     borderopacity="1"
     objecttolerance="10"
     gridtolerance="10"
     guidetolerance="10"
     inkscape:pageopacity="0"
     inkscape:pageshadow="2"
     inkscape:window-width="1819"
     inkscape:window-height="1524"
     id="namedview4200"
     showgrid="false"
     inkscape:zoom="0.98333333"
     inkscape:cx="499.38968"
     inkscape:cy="-310.50853"
     inkscape:window-x="693"
     inkscape:window-y="348"
     inkscape:window-maximized="0"
     inkscape:current-layer="svg4198" />
  <clipPath
     id="p.0">
    <path
       d="M 0,0 H 1280 V 960 H 0 Z"
       id="path4153"
       inkscape:connector-curvature="0"
       style="clip-rule:nonzero" />
  </clipPath>
  <path
     style="fill:#000000;fill-opacity:0;fill-rule:evenodd"
     inkscape:connector-curvature="0"
     id="path4156"
     d="M -9.9763775,-4.9816275 H 1270.0236 V 955.01837 H -9.9763775 Z" />
  <path
     style="fill:#cfe2f3;fill-rule:evenodd"
     inkscape:connector-curvature="0"
     id="path4158"
     d="m 177.02362,87.014433 h 45.95276 v 43.999997 h -45.95276 z" />
  <path
     style="fill-rule:evenodd;stroke:#000000;stroke-width:1;stroke-linecap:butt;stroke-linejoin:round"
     inkscape:connector-curvature="0"
     id="path4160"
     d="m 177.02362,87.014433 h 45.95276 v 43.999997 h -45.95276 z" />
  <path
     style="fill:#cfe2f3;fill-rule:evenodd"
     inkscape:connector-curvature="0"
     id="path4162"
     d="m 177.02362,109.02231 v 0 c 0,-12.150257 10.28688,-21.999997 22.97638,-21.999997 v 0 c 6.09372,0 11.93785,2.317848 16.24675,6.443649 4.30891,4.125801 6.72963,9.721588 6.72963,15.556348 v 0 c 0,12.15026 -10.28688,22 -22.97638,22 v 0 c -12.6895,0 -22.97638,-9.84974 -22.97638,-22 z" />
  <path
     style="fill-rule:evenodd;stroke:#000000;stroke-width:1;stroke-linecap:butt;stroke-linejoin:round"
     inkscape:connector-curvature="0"
     id="path4164"
     d="m 177.02362,109.02231 v 0 c 0,-12.150257 10.28688,-21.999997 22.97638,-21.999997 v 0 c 6.09372,0 11.93785,2.317848 16.24675,6.443649 4.30891,4.125801 6.72963,9.721588 6.72963,15.556348 v 0 c 0,12.15026 -10.28688,22 -22.97638,22 v 0 c -12.6895,0 -22.97638,-9.84974 -22.97638,-22 z" />
  <path
     style="fill:#000000;fill-opacity:0;fill-rule:evenodd"
     inkscape:connector-curvature="0"
     id="path4166"
     d="M 0,0 H 200 V 60.031494 H 0 Z" />
  <path
     style="fill:#000000;fill-rule:nonzero"
     inkscape:connector-curvature="0"
     id="path4168"
     d="m 9.8593745,22.544998 1.6875005,-0.140625 q 0.125,1.015625 0.5625,1.671875 0.4375,0.65625 1.359375,1.0625 0.9375,0.40625 2.09375,0.40625 1.03125,0 1.8125,-0.3125 0.796875,-0.3125 1.1875,-0.84375 0.390625,-0.53125 0.390625,-1.15625 0,-0.640625 -0.375,-1.109375 -0.375,-0.484375 -1.234375,-0.8125 -0.546875,-0.21875 -2.421875,-0.65625 -1.875,-0.453125 -2.625,-0.859375 -0.96875,-0.515625 -1.453125,-1.265625 -0.46875,-0.75 -0.46875,-1.6875 0,-1.03125 0.578125,-1.921875 0.59375,-0.90625 1.703125,-1.359375 1.125,-0.46875 2.5,-0.46875 1.515625,0 2.671875,0.484375 1.15625,0.484375 1.765625,1.4375 0.625,0.9375 0.671875,2.140625 l -1.71875,0.125 q -0.140625,-1.28125 -0.953125,-1.9375 -0.796875,-0.671875 -2.359375,-0.671875 -1.625,0 -2.375,0.609375 -0.75,0.59375 -0.75,1.4375 0,0.734375 0.53125,1.203125 0.515625,0.46875 2.703125,0.96875 2.203125,0.5 3.015625,0.875 1.1875,0.546875 1.75,1.390625 0.578125,0.828125 0.578125,1.921875 0,1.09375 -0.625,2.0625 -0.625,0.953125 -1.796875,1.484375 -1.15625,0.531252 -2.609375,0.531252 -1.84375,0 -3.09375,-0.531252 -1.25,-0.546875 -1.96875,-1.625 -0.7031255,-1.078125 -0.7343755,-2.453125 z m 12.8498245,-7.3125 v -1.90625 h 1.671875 v 1.90625 z m 0,11.6875 v -9.859375 h 1.671875 v 9.859375 z m 4.129196,0 v -9.859375 h 1.5 v 1.40625 q 1.09375,-1.625 3.140625,-1.625 0.890625,0 1.640625,0.328125 0.75,0.3125 1.109375,0.84375 0.375,0.515625 0.53125,1.21875 0.09375,0.46875 0.09375,1.625 v 6.0625 h -1.671875 v -6 q 0,-1.015625 -0.203125,-1.515625 -0.1875,-0.515625 -0.6875,-0.8125 -0.5,-0.296875 -1.171875,-0.296875 -1.0625,0 -1.84375,0.671875 -0.765625,0.671875 -0.765625,2.578125 v 5.375 z m 10.078842,0.812502 1.609375,0.25 q 0.109375,0.75 0.578125,1.09375 0.609375,0.453125 1.6875,0.453125 1.171875,0 1.796875,-0.46875 0.625,-0.453125 0.859375,-1.28125 0.125,-0.515625 0.109375,-2.156252 -1.09375,1.296875 -2.71875,1.296875 -2.03125,0 -3.15625,-1.46875 -1.109375,-1.46875 -1.109375,-3.515625 0,-1.40625 0.515625,-2.59375 0.515625,-1.203125 1.484375,-1.84375 0.96875,-0.65625 2.265625,-0.65625 1.75,0 2.875,1.40625 v -1.1875 h 1.546875 v 8.515625 q 0,2.312502 -0.46875,3.265627 -0.46875,0.96875 -1.484375,1.515625 -1.015625,0.5625 -2.5,0.5625 -1.765625,0 -2.859375,-0.796875 -1.078125,-0.796875 -1.03125,-2.390625 z m 1.375,-5.921877 q 0,1.953125 0.765625,2.84375 0.78125,0.890625 1.9375,0.890625 1.140625,0 1.921875,-0.890625 0.78125,-0.890625 0.78125,-2.78125 0,-1.8125 -0.8125,-2.71875 -0.796875,-0.921875 -1.921875,-0.921875 -1.109375,0 -1.890625,0.90625 -0.78125,0.890625 -0.78125,2.671875 z m 9.266342,5.109375 v -13.59375 h 1.671875 v 13.59375 z m 10.926071,-3.171875 1.71875,0.21875 q -0.40625,1.5 -1.515625,2.34375 -1.09375,0.828127 -2.8125,0.828127 -2.15625,0 -3.421875,-1.328127 -1.265625,-1.328125 -1.265625,-3.734375 0,-2.484375 1.265625,-3.859375 1.28125,-1.375 3.328125,-1.375 1.984375,0 3.234375,1.34375 1.25,1.34375 1.25,3.796875 0,0.140625 -0.01563,0.4375 h -7.34375 q 0.09375,1.625 0.921875,2.484375 0.828125,0.859375 2.0625,0.859375 0.90625,0 1.546875,-0.46875 0.65625,-0.484375 1.046875,-1.546875 z m -5.484375,-2.703125 h 5.5 q -0.109375,-1.234375 -0.625,-1.859375 -0.796875,-0.96875 -2.078125,-0.96875 -1.140625,0 -1.9375,0.78125 -0.78125,0.765625 -0.859375,2.046875 z m 13.902772,1.5 1.6875,-0.140625 q 0.125,1.015625 0.5625,1.671875 0.4375,0.65625 1.359375,1.0625 0.9375,0.40625 2.09375,0.40625 1.03125,0 1.8125,-0.3125 0.796875,-0.3125 1.1875,-0.84375 0.390625,-0.53125 0.390625,-1.15625 0,-0.640625 -0.375,-1.109375 -0.375,-0.484375 -1.234375,-0.8125 -0.546875,-0.21875 -2.421875,-0.65625 -1.875,-0.453125 -2.625,-0.859375 -0.96875,-0.515625 -1.453125,-1.265625 -0.46875,-0.75 -0.46875,-1.6875 0,-1.03125 0.578125,-1.921875 0.59375,-0.90625 1.703125,-1.359375 1.125,-0.46875 2.5,-0.46875 1.515625,0 2.671875,0.484375 1.15625,0.484375 1.765625,1.4375 0.625,0.9375 0.671875,2.140625 l -1.71875,0.125 q -0.140625,-1.28125 -0.953125,-1.9375 -0.796875,-0.671875 -2.359375,-0.671875 -1.625,0 -2.375,0.609375 -0.75,0.59375 -0.75,1.4375 0,0.734375 0.53125,1.203125 0.515625,0.46875 2.703125,0.96875 2.203125,0.5 3.015625,0.875 1.1875,0.546875 1.75,1.390625 0.578125,0.828125 0.578125,1.921875 0,1.09375 -0.625,2.0625 -0.625,0.953125 -1.796875,1.484375 -1.15625,0.531252 -2.609375,0.531252 -1.84375,0 -3.09375,-0.531252 -1.25,-0.546875 -1.96875,-1.625 -0.703125,-1.078125 -0.734375,-2.453125 z m 19.287323,4.375 v -1.453125 q -1.140625,1.671877 -3.125,1.671877 -0.859375,0 -1.625,-0.328127 -0.75,-0.34375 -1.125,-0.84375 -0.359375,-0.5 -0.515625,-1.234375 -0.09375,-0.5 -0.09375,-1.5625 v -6.109375 h 1.671875 v 5.46875 q 0,1.3125 0.09375,1.765625 0.15625,0.65625 0.671875,1.03125 0.515625,0.375 1.265625,0.375 0.75,0 1.40625,-0.375 0.65625,-0.390625 0.921875,-1.046875 0.28125,-0.671875 0.28125,-1.9375 v -5.28125 h 1.671875 v 9.859375 z m 5.469463,0 h -1.54687 v -13.59375 h 1.65625 v 4.84375 q 1.0625,-1.328125 2.70312,-1.328125 0.90625,0 1.71875,0.375 0.8125,0.359375 1.32813,1.03125 0.53125,0.65625 0.82812,1.59375 0.29688,0.9375 0.29688,2 0,2.53125 -1.25,3.921875 -1.25,1.375002 -3,1.375002 -1.75,0 -2.73438,-1.453127 z m -0.0156,-5 q 0,1.765625 0.46875,2.5625 0.79687,1.28125 2.14062,1.28125 1.09375,0 1.89063,-0.9375 0.79687,-0.953125 0.79687,-2.84375 0,-1.921875 -0.76562,-2.84375 -0.76563,-0.921875 -1.84375,-0.921875 -1.09375,0 -1.89063,0.953125 -0.79687,0.953125 -0.79687,2.75 z m 8.17259,2.0625 1.656248,-0.265625 q 0.14063,1 0.76563,1.53125 0.64062,0.515625 1.78125,0.515625 1.15625,0 1.70312,-0.46875 0.5625,-0.46875 0.5625,-1.09375 0,-0.5625 -0.48437,-0.890625 -0.34375,-0.21875 -1.70313,-0.5625 -1.84375,-0.46875 -2.5625,-0.796875 -0.70312,-0.34375 -1.07812,-0.9375 -0.35938,-0.609375 -0.35938,-1.328125 0,-0.65625 0.29688,-1.21875 0.3125,-0.5625 0.82812,-0.9375 0.39063,-0.28125 1.0625,-0.484375 0.67188,-0.203125 1.4375,-0.203125 1.17188,0 2.04688,0.34375 0.875,0.328125 1.28125,0.90625 0.42187,0.5625 0.57812,1.515625 l -1.625,0.21875 q -0.10937,-0.75 -0.65625,-1.171875 -0.53125,-0.4375 -1.5,-0.4375 -1.15625,0 -1.64062,0.390625 -0.48438,0.375 -0.48438,0.875 0,0.328125 0.20313,0.59375 0.20312,0.265625 0.64062,0.4375 0.25,0.09375 1.46875,0.4375 1.76563,0.46875 2.46875,0.765625 0.70313,0.296875 1.09375,0.875 0.40625,0.578125 0.40625,1.4375 0,0.828125 -0.48437,1.578125 -0.48438,0.734375 -1.40625,1.140625 -0.92188,0.390627 -2.07813,0.390627 -1.92187,0 -2.9375,-0.796877 -1,-0.796875 -1.281248,-2.359375 z m 16.437498,-0.671875 1.64063,0.21875 q -0.26563,1.6875 -1.375,2.65625 -1.10938,0.953127 -2.73438,0.953127 -2.01562,0 -3.25,-1.312502 -1.21875,-1.328125 -1.21875,-3.796875 0,-1.59375 0.51563,-2.78125 0.53125,-1.203125 1.60937,-1.796875 1.09375,-0.609375 2.35938,-0.609375 1.60937,0 2.625,0.8125 1.01562,0.8125 1.3125,2.3125 l -1.625,0.25 q -0.23438,-1 -0.82813,-1.5 -0.59375,-0.5 -1.42187,-0.5 -1.26563,0 -2.0625,0.90625 -0.78125,0.90625 -0.78125,2.859375 0,1.984375 0.76562,2.890625 0.76563,0.890625 1.98438,0.890625 0.98437,0 1.64062,-0.59375 0.65625,-0.609375 0.84375,-1.859375 z m 2.875,3.609375 v -9.859375 h 1.5 v 1.5 q 0.57813,-1.046875 1.0625,-1.375 0.48438,-0.34375 1.07813,-0.34375 0.84375,0 1.71875,0.546875 l -0.57813,1.546875 q -0.60937,-0.359375 -1.23437,-0.359375 -0.54688,0 -0.98438,0.328125 -0.42187,0.328125 -0.60937,0.90625 -0.28125,0.890625 -0.28125,1.953125 v 5.15625 z m 6.24393,-11.6875 v -1.90625 h 1.67187 v 1.90625 z m 0,11.6875 v -9.859375 h 1.67187 v 9.859375 z m 4.12919,3.781252 V 17.060623 h 1.53125 v 1.28125 q 0.53125,-0.75 1.20313,-1.125 0.6875,-0.375 1.64062,-0.375 1.26563,0 2.23438,0.65625 0.96875,0.640625 1.45312,1.828125 0.5,1.1875 0.5,2.59375 0,1.515625 -0.54687,2.734375 -0.54688,1.203125 -1.57813,1.84375 -1.03125,0.640627 -2.17187,0.640627 -0.84375,0 -1.51563,-0.343752 -0.65625,-0.359375 -1.07812,-0.890625 v 4.796877 z m 1.51563,-8.656252 q 0,1.90625 0.76562,2.8125 0.78125,0.90625 1.875,0.90625 1.10938,0 1.89063,-0.9375 0.79687,-0.9375 0.79687,-2.921875 0,-1.875 -0.78125,-2.8125 -0.76562,-0.9375 -1.84375,-0.9375 -1.0625,0 -1.89062,1 -0.8125,1 -0.8125,2.890625 z m 12.51634,3.375 0.23438,1.484375 q -0.70313,0.140627 -1.26563,0.140627 -0.90625,0 -1.40625,-0.281252 -0.5,-0.296875 -0.70312,-0.75 -0.20313,-0.46875 -0.20313,-1.984375 v -5.65625 h -1.23437 v -1.3125 h 1.23437 v -2.4375 l 1.65625,-1 v 3.4375 h 1.6875 v 1.3125 h -1.6875 v 5.75 q 0,0.71875 0.0781,0.921875 0.0937,0.203125 0.29687,0.328125 0.20313,0.125 0.57813,0.125 0.26562,0 0.73437,-0.07813 z m 1.54268,-10.1875 v -1.90625 h 1.67187 v 1.90625 z m 0,11.6875 v -9.859375 h 1.67187 v 9.859375 z m 3.5042,-4.921875 q 0,-2.734375 1.53125,-4.0625 1.26562,-1.09375 3.09375,-1.09375 2.03125,0 3.3125,1.34375 1.29687,1.328125 1.29687,3.671875 0,1.90625 -0.57812,3 -0.5625,1.078125 -1.65625,1.6875 -1.07813,0.593752 -2.375,0.593752 -2.0625,0 -3.34375,-1.328127 -1.28125,-1.328125 -1.28125,-3.8125 z m 1.71875,0 q 0,1.890625 0.82812,2.828125 0.82813,0.9375 2.07813,0.9375 1.25,0 2.0625,-0.9375 0.82812,-0.953125 0.82812,-2.890625 0,-1.828125 -0.82812,-2.765625 -0.82813,-0.9375 -2.0625,-0.9375 -1.25,0 -2.07813,0.9375 -0.82812,0.9375 -0.82812,2.828125 z m 9.28196,4.921875 v -9.859375 h 1.5 v 1.40625 q 1.09375,-1.625 3.14063,-1.625 0.89062,0 1.64062,0.328125 0.75,0.3125 1.10938,0.84375 0.375,0.515625 0.53125,1.21875 0.0937,0.46875 0.0937,1.625 v 6.0625 h -1.67188 v -6 q 0,-1.015625 -0.20312,-1.515625 -0.1875,-0.515625 -0.6875,-0.8125 -0.5,-0.296875 -1.17188,-0.296875 -1.0625,0 -1.84375,0.671875 -0.76562,0.671875 -0.76562,2.578125 v 5.375 z" />
  <path
     style="fill:#000000;fill-rule:nonzero"
     inkscape:connector-curvature="0"
     id="path4170"
     d="m 9.8593745,44.545 1.6875005,-0.140625 q 0.125,1.015625 0.5625,1.671875 0.4375,0.65625 1.359375,1.0625 0.9375,0.40625 2.09375,0.40625 1.03125,0 1.8125,-0.3125 0.796875,-0.3125 1.1875,-0.84375 0.390625,-0.53125 0.390625,-1.15625 0,-0.640625 -0.375,-1.109375 -0.375,-0.484375 -1.234375,-0.8125 -0.546875,-0.21875 -2.421875,-0.65625 -1.875,-0.453125 -2.625,-0.859375 -0.96875,-0.515625 -1.453125,-1.265625 -0.46875,-0.75 -0.46875,-1.6875 0,-1.03125 0.578125,-1.921875 0.59375,-0.90625 1.703125,-1.359375 1.125,-0.46875 2.5,-0.46875 1.515625,0 2.671875,0.484375 1.15625,0.484375 1.765625,1.4375 0.625,0.9375 0.671875,2.140625 l -1.71875,0.125 Q 18.40625,37.998125 17.59375,37.341875 16.796875,36.67 15.234375,36.67 q -1.625,0 -2.375,0.609375 -0.75,0.59375 -0.75,1.4375 0,0.734375 0.53125,1.203125 0.515625,0.46875 2.703125,0.96875 2.203125,0.5 3.015625,0.875 1.1875,0.546875 1.75,1.390625 0.578125,0.828125 0.578125,1.921875 0,1.09375 -0.625,2.0625 -0.625,0.953125 -1.796875,1.484375 -1.15625,0.53125 -2.609375,0.53125 -1.84375,0 -3.09375,-0.53125 -1.25,-0.546875 -1.96875,-1.625 Q 9.8906245,45.92 9.8593745,44.545 Z m 16.4904495,2.875 0.234375,1.484375 Q 25.881074,49.045 25.318574,49.045 q -0.90625,0 -1.40625,-0.28125 -0.5,-0.296875 -0.703125,-0.75 -0.203125,-0.46875 -0.203125,-1.984375 v -5.65625 h -1.234377 v -1.3125 h 1.234377 v -2.4375 l 1.65625,-1 v 3.4375 h 1.6875 v 1.3125 h -1.6875 v 5.75 q 0,0.71875 0.07813,0.921875 0.09375,0.203125 0.296875,0.328125 0.203125,0.125 0.578125,0.125 0.265625,0 0.734375,-0.07813 z m 1.511429,1.5 v -9.859375 h 1.5 v 1.5 q 0.578125,-1.046875 1.0625,-1.375 0.484375,-0.34375 1.078125,-0.34375 0.84375,0 1.71875,0.546875 l -0.578125,1.546875 q -0.609375,-0.359375 -1.234375,-0.359375 -0.546875,0 -0.984375,0.328125 -0.421875,0.328125 -0.609375,0.90625 -0.28125,0.890625 -0.28125,1.953125 V 48.92 Z m 12.978302,-3.171875 1.71875,0.21875 q -0.40625,1.5 -1.515625,2.34375 -1.09375,0.828125 -2.8125,0.828125 -2.15625,0 -3.421875,-1.328125 Q 33.54268,46.4825 33.54268,44.07625 q 0,-2.484375 1.265625,-3.859375 1.28125,-1.375 3.328125,-1.375 1.984375,0 3.234375,1.34375 1.25,1.34375 1.25,3.796875 0,0.140625 -0.01563,0.4375 h -7.34375 q 0.09375,1.625 0.921875,2.484375 0.828125,0.859375 2.0625,0.859375 0.90625,0 1.546875,-0.46875 0.65625,-0.484375 1.046875,-1.546875 z M 35.35518,43.045 h 5.5 q -0.109375,-1.234375 -0.625,-1.859375 -0.796875,-0.96875 -2.078125,-0.96875 -1.140625,0 -1.9375,0.78125 -0.78125,0.765625 -0.859375,2.046875 z m 15.547592,4.65625 q -0.9375,0.796875 -1.796875,1.125 -0.859375,0.3125 -1.84375,0.3125 -1.609375,0 -2.484375,-0.78125 -0.875,-0.796875 -0.875,-2.03125 0,-0.734375 0.328125,-1.328125 0.328125,-0.59375 0.859375,-0.953125 0.53125,-0.359375 1.203125,-0.546875 0.5,-0.140625 1.484375,-0.25 2.03125,-0.25 2.984375,-0.578125 0,-0.34375 0,-0.4375 0,-1.015625 -0.46875,-1.4375 -0.640625,-0.5625 -1.90625,-0.5625 -1.171875,0 -1.734375,0.40625 -0.5625,0.40625 -0.828125,1.46875 l -1.640624,-0.234375 q 0.234375,-1.046875 0.734375,-1.6875 0.515625,-0.640625 1.46875,-0.984375 0.96875,-0.359375 2.25,-0.359375 1.265625,0 2.046875,0.296875 0.78125,0.296875 1.15625,0.75 0.375,0.453125 0.515625,1.140625 0.09375,0.421875 0.09375,1.53125 V 44.795 q 0,2.328125 0.09375,2.953125 0.109375,0.609375 0.4375,1.171875 h -1.75 Q 50.965273,48.404375 50.902772,47.70125 Z M 50.762147,43.9825 q -0.90625,0.359375 -2.734375,0.625 -1.03125,0.140625 -1.453125,0.328125 -0.421875,0.1875 -0.65625,0.546875 -0.234375,0.359375 -0.234375,0.796875 0,0.671875 0.5,1.125 0.515625,0.4375 1.484375,0.4375 0.96875,0 1.71875,-0.421875 0.75,-0.4375 1.109375,-1.15625 0.265625,-0.578125 0.265625,-1.671875 z m 4.078842,4.9375 v -9.859375 h 1.5 v 1.390625 q 0.453125,-0.71875 1.21875,-1.15625 0.78125,-0.453125 1.765625,-0.453125 1.09375,0 1.796875,0.453125 0.703125,0.453125 0.984375,1.28125 1.171875,-1.734375 3.046875,-1.734375 1.46875,0 2.25,0.8125 0.796875,0.8125 0.796875,2.5 V 48.92 h -1.671875 v -6.203125 q 0,-1 -0.15625,-1.4375 -0.15625,-0.453125 -0.59375,-0.71875 -0.421875,-0.265625 -1,-0.265625 -1.03125,0 -1.71875,0.6875 -0.6875,0.6875 -0.6875,2.21875 V 48.92 h -1.671875 v -6.40625 q 0,-1.109375 -0.40625,-1.65625 -0.40625,-0.5625 -1.34375,-0.5625 -0.703125,0 -1.3125,0.375 -0.59375,0.359375 -0.859375,1.078125 -0.265625,0.71875 -0.265625,2.0625 V 48.92 Z" />
  <path
     style="fill:#000000;fill-opacity:0;fill-rule:evenodd"
     inkscape:connector-curvature="0"
     id="path4172"
     d="M 27.023623,166.03149 H 147.02362 v 44 H 27.023623 Z" />
  <path
     style="fill:#000000;fill-rule:nonzero"
     inkscape:connector-curvature="0"
     id="path4174"
     d="m 37.414248,192.95149 v -13.59375 h 1.796875 v 11.98437 h 6.703125 v 1.60938 z m 10.250717,-11.6875 v -1.90625 h 1.671875 v 1.90625 z m 0,11.6875 v -9.85938 h 1.671875 v 9.85938 z m 3.457321,-2.9375 1.65625,-0.26563 q 0.140625,1 0.765625,1.53125 0.640625,0.51563 1.78125,0.51563 1.15625,0 1.703125,-0.46875 0.5625,-0.46875 0.5625,-1.09375 0,-0.5625 -0.484375,-0.89063 -0.34375,-0.21875 -1.703125,-0.5625 -1.84375,-0.46875 -2.5625,-0.79687 -0.703125,-0.34375 -1.078125,-0.9375 -0.359375,-0.60938 -0.359375,-1.32813 0,-0.65625 0.296875,-1.21875 0.3125,-0.5625 0.828125,-0.9375 0.390625,-0.28125 1.0625,-0.48437 0.671875,-0.20313 1.4375,-0.20313 1.171875,0 2.046875,0.34375 0.875,0.32813 1.28125,0.90625 0.421875,0.5625 0.578125,1.51563 l -1.625,0.21875 q -0.109375,-0.75 -0.65625,-1.17188 -0.53125,-0.4375 -1.5,-0.4375 -1.15625,0 -1.640625,0.39063 -0.484375,0.375 -0.484375,0.875 0,0.32812 0.203125,0.59375 0.203125,0.26562 0.640625,0.4375 0.25,0.0937 1.46875,0.4375 1.765625,0.46875 2.46875,0.76562 0.703125,0.29688 1.09375,0.875 0.40625,0.57813 0.40625,1.4375 0,0.82813 -0.484375,1.57813 -0.484375,0.73437 -1.40625,1.14062 -0.921875,0.39063 -2.078125,0.39063 -1.921875,0 -2.9375,-0.79688 -1,-0.79687 -1.28125,-2.35937 z m 13.65625,1.4375 0.234375,1.48437 q -0.703125,0.14063 -1.265625,0.14063 -0.90625,0 -1.40625,-0.28125 -0.5,-0.29688 -0.703125,-0.75 -0.203125,-0.46875 -0.203125,-1.98438 v -5.65625 h -1.234375 v -1.3125 h 1.234375 v -2.4375 l 1.65625,-1 v 3.4375 h 1.6875 v 1.3125 h -1.6875 v 5.75 q 0,0.71875 0.07813,0.92188 0.09375,0.20312 0.296875,0.32812 0.203125,0.125 0.578125,0.125 0.265625,0 0.734375,-0.0781 z m 8.277054,-1.67188 1.71875,0.21875 q -0.40625,1.5 -1.515625,2.34375 -1.09375,0.82813 -2.8125,0.82813 -2.15625,0 -3.421875,-1.32813 -1.265625,-1.32812 -1.265625,-3.73437 0,-2.48438 1.265625,-3.85938 1.28125,-1.375 3.328125,-1.375 1.984375,0 3.234375,1.34375 1.25,1.34375 1.25,3.79688 0,0.14062 -0.01563,0.4375 h -7.34375 q 0.09375,1.625 0.921875,2.48437 0.828125,0.85938 2.0625,0.85938 0.90625,0 1.546875,-0.46875 0.65625,-0.48438 1.046875,-1.54688 z m -5.484375,-2.70312 h 5.5 q -0.109375,-1.23438 -0.625,-1.85938 -0.796875,-0.96875 -2.078125,-0.96875 -1.140625,0 -1.9375,0.78125 -0.78125,0.76563 -0.859375,2.04688 z m 9.110092,5.875 v -9.85938 h 1.5 v 1.40625 q 1.09375,-1.625 3.140625,-1.625 0.890625,0 1.640625,0.32813 0.75,0.3125 1.109375,0.84375 0.375,0.51562 0.53125,1.21875 0.09375,0.46875 0.09375,1.625 v 6.0625 h -1.671875 v -6 q 0,-1.01563 -0.203125,-1.51563 -0.1875,-0.51562 -0.6875,-0.8125 -0.5,-0.29687 -1.171875,-0.29687 -1.0625,0 -1.84375,0.67187 -0.765625,0.67188 -0.765625,2.57813 v 5.375 z m 17.125716,-3.17188 1.71875,0.21875 q -0.40625,1.5 -1.51562,2.34375 -1.09375,0.82813 -2.8125,0.82813 -2.156255,0 -3.42188,-1.32813 -1.265625,-1.32812 -1.265625,-3.73437 0,-2.48438 1.265625,-3.85938 1.28125,-1.375 3.32813,-1.375 1.98437,0 3.23437,1.34375 1.25,1.34375 1.25,3.79688 0,0.14062 -0.0156,0.4375 h -7.343754 q 0.09375,1.625 0.921875,2.48437 0.828125,0.85938 2.062499,0.85938 0.90625,0 1.54688,-0.46875 0.65625,-0.48438 1.04687,-1.54688 z m -5.484375,-2.70312 h 5.500005 q -0.10938,-1.23438 -0.625,-1.85938 -0.79688,-0.96875 -2.07813,-0.96875 -1.140625,0 -1.9375,0.78125 -0.78125,0.76563 -0.859375,2.04688 z m 9.094465,5.875 v -9.85938 h 1.5 v 1.5 q 0.57813,-1.04687 1.0625,-1.375 0.484377,-0.34375 1.078127,-0.34375 0.84375,0 1.71875,0.54688 l -0.57813,1.54687 q -0.60937,-0.35937 -1.23437,-0.35937 -0.54688,0 -0.984377,0.32812 -0.42187,0.32813 -0.60937,0.90625 -0.28125,0.89063 -0.28125,1.95313 v 5.15625 z m 6.697057,-7.95313 v -1.90625 h 1.90625 v 1.90625 z m 0,7.95313 v -1.90625 h 1.90625 v 1.90625 z" />
  <path
     style="fill:#cfe2f3;fill-rule:evenodd"
     inkscape:connector-curvature="0"
     id="path4176"
     d="m 177.02362,166.02231 h 45.95276 v 44 h -45.95276 z" />
  <path
     style="fill-rule:evenodd;stroke:#000000;stroke-width:1;stroke-linecap:butt;stroke-linejoin:round"
     inkscape:connector-curvature="0"
     id="path4178"
     d="m 177.02362,166.02231 h 45.95276 v 44 h -45.95276 z" />
  <path
     style="fill:#000000;fill-opacity:0;fill-rule:evenodd"
     inkscape:connector-curvature="0"
     id="path4180"
     d="m 200,131.02231 v 34.99213" />
  <path
     style="fill-rule:evenodd;stroke:#000000;stroke-width:1;stroke-linecap:butt;stroke-linejoin:round"
     inkscape:connector-curvature="0"
     id="path4182"
     d="m 200,131.02231 v 34.99213" />
  <path
     style="fill:#000000;fill-opacity:0;fill-rule:evenodd"
     inkscape:connector-curvature="0"
     id="path4184"
     d="M 22.023623,85.031493 H 150.02362 V 120.02362 H 22.023623 Z" />
  <path
     style="fill:#000000;fill-rule:nonzero"
     inkscape:connector-curvature="0"
     id="path4186"
     d="M 35.945498,111.95149 V 99.951493 h -4.46875 v -1.59375 h 10.765625 v 1.59375 h -4.5 v 11.999997 z m 7.70848,0 v -9.85937 h 1.5 v 1.5 q 0.578125,-1.04688 1.0625,-1.375 0.484375,-0.34375 1.078125,-0.34375 0.84375,0 1.71875,0.54687 l -0.578125,1.54688 q -0.609375,-0.35938 -1.234375,-0.35938 -0.546875,0 -0.984375,0.32813 -0.421875,0.32812 -0.609375,0.90625 -0.28125,0.89062 -0.28125,1.95312 v 5.15625 z m 12.665802,-1.21875 q -0.9375,0.79688 -1.796875,1.125 -0.859375,0.3125 -1.84375,0.3125 -1.609375,0 -2.484375,-0.78125 -0.875,-0.79687 -0.875,-2.03125 0,-0.73437 0.328125,-1.32812 0.328125,-0.59375 0.859375,-0.95313 0.53125,-0.35937 1.203125,-0.54687 0.5,-0.14063 1.484375,-0.25 2.03125,-0.25 2.984375,-0.57813 0,-0.34375 0,-0.4375 0,-1.01562 -0.46875,-1.4375 -0.640625,-0.5625 -1.90625,-0.5625 -1.171875,0 -1.734375,0.40625 -0.5625,0.40625 -0.828125,1.46875 l -1.640625,-0.23437 q 0.234375,-1.04688 0.734375,-1.6875 0.515625,-0.64063 1.46875,-0.98438 0.96875,-0.35937 2.25,-0.35937 1.265625,0 2.046875,0.29687 0.78125,0.29688 1.15625,0.75 0.375,0.45313 0.515625,1.14063 0.09375,0.42187 0.09375,1.53125 v 2.23437 q 0,2.32813 0.09375,2.95313 0.109375,0.60937 0.4375,1.17187 h -1.75 q -0.265625,-0.51562 -0.328125,-1.21875 z m -0.140625,-3.71875 q -0.90625,0.35938 -2.734375,0.625 -1.03125,0.14063 -1.453125,0.32813 -0.421875,0.1875 -0.65625,0.54687 -0.234375,0.35938 -0.234375,0.79688 0,0.67187 0.5,1.125 0.515625,0.4375 1.484375,0.4375 0.96875,0 1.71875,-0.42188 0.75,-0.4375 1.109375,-1.15625 0.265625,-0.57812 0.265625,-1.67187 z m 4.078842,4.9375 v -9.85937 h 1.5 v 1.40625 q 1.09375,-1.625 3.140625,-1.625 0.890625,0 1.640625,0.32812 0.75,0.3125 1.109375,0.84375 0.375,0.51563 0.53125,1.21875 0.09375,0.46875 0.09375,1.625 v 6.0625 h -1.671875 v -6 q 0,-1.01562 -0.203125,-1.51562 -0.1875,-0.51563 -0.6875,-0.8125 -0.5,-0.29688 -1.171875,-0.29688 -1.0625,0 -1.84375,0.67188 -0.765625,0.67187 -0.765625,2.57812 v 5.375 z m 9.703842,-2.9375 1.65625,-0.26562 q 0.140625,1 0.765625,1.53125 0.640625,0.51562 1.78125,0.51562 1.15625,0 1.703125,-0.46875 0.5625,-0.46875 0.5625,-1.09375 0,-0.5625 -0.484375,-0.89062 -0.34375,-0.21875 -1.703125,-0.5625 -1.84375,-0.46875 -2.5625,-0.79688 -0.703125,-0.34375 -1.078125,-0.9375 -0.359375,-0.60937 -0.359375,-1.32812 0,-0.65625 0.296875,-1.21875 0.3125,-0.5625 0.828125,-0.9375 0.390625,-0.28125 1.0625,-0.48438 0.671875,-0.20312 1.4375,-0.20312 1.171875,0 2.046875,0.34375 0.875,0.32812 1.28125,0.90625 0.421875,0.5625 0.578125,1.51562 l -1.625,0.21875 q -0.109375,-0.75 -0.65625,-1.17187 -0.53125,-0.4375 -1.5,-0.4375 -1.15625,0 -1.640625,0.39062 -0.484375,0.375 -0.484375,0.875 0,0.32813 0.203125,0.59375 0.203125,0.26563 0.640625,0.4375 0.25,0.0937 1.46875,0.4375 1.765625,0.46875 2.46875,0.76563 0.703125,0.29687 1.09375,0.875 0.40625,0.57812 0.40625,1.4375 0,0.82812 -0.484375,1.57812 -0.484375,0.73438 -1.40625,1.14063 -0.921875,0.39062 -2.078125,0.39062 -1.921875,0 -2.9375,-0.79687 -1,-0.79688 -1.28125,-2.35938 z m 10.40625,2.9375 v -8.54687 h -1.484375 v -1.3125 h 1.484375 v -1.04688 q 0,-0.98437 0.171875,-1.468747 0.234375,-0.65625 0.84375,-1.04687 0.609375,-0.40625 1.703125,-0.40625 0.703125,0 1.5625,0.15625 l -0.25,1.46875 q -0.515625,-0.0937 -0.984375,-0.0937 -0.765625,0 -1.078125,0.32812 -0.3125,0.312497 -0.3125,1.203127 v 0.90625 h 1.921875 v 1.3125 h -1.921875 v 8.54687 z m 4.152054,-4.92187 q 0,-2.73438 1.53125,-4.0625 1.265625,-1.09375 3.09375,-1.09375 2.031249,0 3.312499,1.34375 1.29688,1.32812 1.29688,3.67187 0,1.90625 -0.57813,3 -0.5625,1.07813 -1.65625,1.6875 -1.07812,0.59375 -2.374999,0.59375 -2.0625,0 -3.34375,-1.32812 -1.28125,-1.32813 -1.28125,-3.8125 z m 1.71875,0 q 0,1.89062 0.828125,2.82812 0.828125,0.9375 2.078125,0.9375 1.249999,0 2.062499,-0.9375 0.82813,-0.95312 0.82813,-2.89062 0,-1.82813 -0.82813,-2.76563 -0.82812,-0.9375 -2.062499,-0.9375 -1.25,0 -2.078125,0.9375 -0.828125,0.9375 -0.828125,2.82813 z m 9.266339,4.92187 v -9.85937 h 1.5 v 1.5 q 0.57813,-1.04688 1.0625,-1.375 0.48438,-0.34375 1.07813,-0.34375 0.84375,0 1.718748,0.54687 l -0.57813,1.54688 q -0.609368,-0.35938 -1.234368,-0.35938 -0.54688,0 -0.98438,0.32813 -0.42187,0.32812 -0.60937,0.90625 -0.28125,0.89062 -0.28125,1.95312 v 5.15625 z m 6.228298,0 v -9.85937 h 1.5 v 1.39062 q 0.45313,-0.71875 1.21875,-1.15625 0.78125,-0.45312 1.76563,-0.45312 1.09375,0 1.79687,0.45312 0.70313,0.45313 0.98438,1.28125 1.17187,-1.73437 3.04687,-1.73437 1.46875,0 2.25,0.8125 0.79688,0.8125 0.79688,2.5 v 6.76562 h -1.67188 v -6.20312 q 0,-1 -0.15625,-1.4375 -0.15625,-0.45313 -0.59375,-0.71875 -0.42187,-0.26563 -1,-0.26563 -1.03125,0 -1.71875,0.6875 -0.6875,0.6875 -0.6875,2.21875 v 5.71875 h -1.67187 v -6.40625 q 0,-1.10937 -0.40625,-1.65625 -0.40625,-0.5625 -1.34375,-0.5625 -0.70313,0 -1.3125,0.375 -0.59375,0.35938 -0.85938,1.07813 -0.26562,0.71875 -0.26562,2.0625 v 5.10937 z m 22.29081,-3.17187 1.71875,0.21875 q -0.40625,1.5 -1.51563,2.34375 -1.09375,0.82812 -2.8125,0.82812 -2.15625,0 -3.42187,-1.32812 -1.26563,-1.32813 -1.26563,-3.73438 0,-2.48437 1.26563,-3.85937 1.28125,-1.375 3.32812,-1.375 1.98438,0 3.23438,1.34375 1.25,1.34375 1.25,3.79687 0,0.14063 -0.0156,0.4375 h -7.34375 q 0.0937,1.625 0.92188,2.48438 0.82812,0.85937 2.0625,0.85937 0.90625,0 1.54687,-0.46875 0.65625,-0.48437 1.04688,-1.54687 z m -5.48438,-2.70313 h 5.5 q -0.10937,-1.23437 -0.625,-1.85937 -0.79687,-0.96875 -2.07812,-0.96875 -1.14063,0 -1.9375,0.78125 -0.78125,0.76562 -0.85938,2.04687 z m 9.09447,5.875 v -9.85937 h 1.5 v 1.5 q 0.57812,-1.04688 1.0625,-1.375 0.48437,-0.34375 1.07812,-0.34375 0.84375,0 1.71875,0.54687 l -0.57812,1.54688 q -0.60938,-0.35938 -1.23438,-0.35938 -0.54687,0 -0.98437,0.32813 -0.42188,0.32812 -0.60938,0.90625 -0.28125,0.89062 -0.28125,1.95312 v 5.15625 z m 6.69705,-7.95312 v -1.90625 h 1.90625 v 1.90625 z m 0,7.95312 v -1.90625 h 1.90625 v 1.90625 z" />
  <path
     style="fill:#cfe2f3;fill-rule:evenodd"
     inkscape:connector-curvature="0"
     id="path4188"
     d="m 177.02362,30.014436 v 0 C 177.02362,17.864171 187.3105,8.0144355 200,8.0144355 v 0 c 6.09372,0 11.93785,2.3178505 16.24675,6.4436515 4.30891,4.125799 6.72963,9.721586 6.72963,15.556349 v 0 c 0,12.150265 -10.28688,22 -22.97638,22 v 0 c -12.6895,0 -22.97638,-9.849735 -22.97638,-22 z" />
  <path
     style="fill-rule:evenodd;stroke:#000000;stroke-width:1;stroke-linecap:butt;stroke-linejoin:round"
     inkscape:connector-curvature="0"
     id="path4190"
     d="m 177.02362,30.014436 v 0 C 177.02362,17.864171 187.3105,8.0144355 200,8.0144355 v 0 c 6.09372,0 11.93785,2.3178505 16.24675,6.4436515 4.30891,4.125799 6.72963,9.721586 6.72963,15.556349 v 0 c 0,12.150265 -10.28688,22 -22.97638,22 v 0 c -12.6895,0 -22.97638,-9.849735 -22.97638,-22 z" />
  <path
     style="fill:#000000;fill-opacity:0;fill-rule:evenodd"
     inkscape:connector-curvature="0"
     id="path4192"
     d="m 200,52.014436 v 35.02362" />
  <path
     style="fill-rule:evenodd;stroke:#000000;stroke-width:1;stroke-linecap:butt;stroke-linejoin:round"
     inkscape:connector-curvature="0"
     id="path4194"
     d="m 200,52.014436 v 35.02362" />
</svg>
