<?xml version="1.0" encoding="UTF-8" standalone="no"?>
<!DOCTYPE svg PUBLIC "-//W3C//DTD SVG 1.1//EN"
 "http://www.w3.org/Graphics/SVG/1.1/DTD/svg11.dtd">
<!-- Generated by graphviz version 2.43.0 (0)
 -->
<!-- Title: %3 Pages: 1 -->
<svg width="350pt" height="211pt"
 viewBox="0.00 0.00 350.00 211.00" xmlns="http://www.w3.org/2000/svg" xmlns:xlink="http://www.w3.org/1999/xlink">
<g id="graph0" class="graph" transform="scale(1 1) rotate(0) translate(4 207)">
<title>%3</title>
<polygon fill="white" stroke="transparent" points="-4,4 -4,-207 346,-207 346,4 -4,4"/>
<text text-anchor="middle" x="171" y="-7.8" font-family="Times,serif" font-size="14.00">Dominators</text>
<!-- r -->
<g id="node1" class="node">
<title>r</title>
<ellipse fill="none" stroke="black" cx="135" cy="-185" rx="27" ry="18"/>
<text text-anchor="middle" x="135" y="-181.3" font-family="Times,serif" font-size="14.00">r</text>
</g>
<!-- a -->
<g id="node2" class="node">
<title>a</title>
<ellipse fill="none" stroke="black" cx="27" cy="-113" rx="27" ry="18"/>
<text text-anchor="middle" x="27" y="-109.3" font-family="Times,serif" font-size="14.00">a</text>
</g>
<!-- r&#45;&gt;a -->
<g id="edge1" class="edge">
<title>r&#45;&gt;a</title>
<path fill="none" stroke="black" d="M116.19,-171.81C99,-160.67 73.38,-144.06 54.01,-131.5"/>
<polygon fill="black" stroke="black" points="55.89,-128.56 45.6,-126.05 52.08,-134.43 55.89,-128.56"/>
</g>
<!-- b -->
<g id="node3" class="node">
<title>b</title>
<ellipse fill="none" stroke="black" cx="99" cy="-113" rx="27" ry="18"/>
<text text-anchor="middle" x="99" y="-109.3" font-family="Times,serif" font-size="14.00">b</text>
</g>
<!-- r&#45;&gt;b -->
<g id="edge2" class="edge">
<title>r&#45;&gt;b</title>
<path fill="none" stroke="black" d="M126.65,-167.76C122.29,-159.28 116.85,-148.71 111.96,-139.2"/>
<polygon fill="black" stroke="black" points="114.99,-137.44 107.3,-130.15 108.77,-140.64 114.99,-137.44"/>
</g>
<!-- c -->
<g id="node4" class="node">
<title>c</title>
<ellipse fill="none" stroke="black" cx="171" cy="-113" rx="27" ry="18"/>
<text text-anchor="middle" x="171" y="-109.3" font-family="Times,serif" font-size="14.00">c</text>
</g>
<!-- r&#45;&gt;c -->
<g id="edge3" class="edge">
<title>r&#45;&gt;c</title>
<path fill="none" stroke="black" d="M143.35,-167.76C147.71,-159.28 153.15,-148.71 158.04,-139.2"/>
<polygon fill="black" stroke="black" points="161.23,-140.64 162.7,-130.15 155.01,-137.44 161.23,-140.64"/>
</g>
<!-- d -->
<g id="node5" class="node">
<title>d</title>
<ellipse fill="none" stroke="black" cx="243" cy="-113" rx="27" ry="18"/>
<text text-anchor="middle" x="243" y="-109.3" font-family="Times,serif" font-size="14.00">d</text>
</g>
<!-- r&#45;&gt;d -->
<g id="edge4" class="edge">
<title>r&#45;&gt;d</title>
<path fill="none" stroke="black" d="M153.81,-171.81C171,-160.67 196.62,-144.06 215.99,-131.5"/>
<polygon fill="black" stroke="black" points="217.92,-134.43 224.4,-126.05 214.11,-128.56 217.92,-134.43"/>
</g>
<!-- e -->
<g id="node6" class="node">
<title>e</title>
<ellipse fill="none" stroke="black" cx="171" cy="-41" rx="27" ry="18"/>
<text text-anchor="middle" x="171" y="-37.3" font-family="Times,serif" font-size="14.00">e</text>
</g>
<!-- d&#45;&gt;e -->
<g id="edge5" class="edge">
<title>d&#45;&gt;e</title>
<path fill="none" stroke="black" d="M228.43,-97.83C218.25,-87.94 204.48,-74.55 192.97,-63.36"/>
<polygon fill="black" stroke="black" points="195.41,-60.85 185.8,-56.38 190.53,-65.87 195.41,-60.85"/>
</g>
<!-- f -->
<g id="node7" class="node">
<title>f</title>
<ellipse fill="none" stroke="black" cx="243" cy="-41" rx="27" ry="18"/>
<text text-anchor="middle" x="243" y="-37.3" font-family="Times,serif" font-size="14.00">f</text>
</g>
<!-- d&#45;&gt;f -->
<g id="edge6" class="edge">
<title>d&#45;&gt;f</title>
<path fill="none" stroke="black" d="M243,-94.7C243,-86.98 243,-77.71 243,-69.11"/>
<polygon fill="black" stroke="black" points="246.5,-69.1 243,-59.1 239.5,-69.1 246.5,-69.1"/>
</g>
<!-- g -->
<g id="node8" class="node">
<title>g</title>
<ellipse fill="none" stroke="black" cx="315" cy="-41" rx="27" ry="18"/>
<text text-anchor="middle" x="315" y="-37.3" font-family="Times,serif" font-size="14.00">g</text>
</g>
<!-- d&#45;&gt;g -->
<g id="edge7" class="edge">
<title>d&#45;&gt;g</title>
<path fill="none" stroke="black" d="M257.57,-97.83C267.75,-87.94 281.52,-74.55 293.03,-63.36"/>
<polygon fill="black" stroke="black" points="295.47,-65.87 300.2,-56.38 290.59,-60.85 295.47,-65.87"/>
</g>
</g>
</svg>
