<?xml version="1.0" encoding="UTF-8" standalone="no"?>
<!DOCTYPE svg PUBLIC "-//W3C//DTD SVG 1.1//EN"
 "http://www.w3.org/Graphics/SVG/1.1/DTD/svg11.dtd">
<!-- Generated by graphviz version 2.43.0 (0)
 -->
<!-- Title: %3 Pages: 1 -->
<svg width="170pt" height="355pt"
 viewBox="0.00 0.00 170.00 355.00" xmlns="http://www.w3.org/2000/svg" xmlns:xlink="http://www.w3.org/1999/xlink">
<g id="graph0" class="graph" transform="scale(1 1) rotate(0) translate(4 351)">
<title>%3</title>
<polygon fill="white" stroke="transparent" points="-4,4 -4,-351 166,-351 166,4 -4,4"/>
<text text-anchor="middle" x="81" y="-7.8" font-family="Times,serif" font-size="14.00">Predecessors</text>
<!-- r -->
<g id="node1" class="node">
<title>r</title>
<ellipse fill="none" stroke="black" cx="63" cy="-329" rx="27" ry="18"/>
<text text-anchor="middle" x="63" y="-325.3" font-family="Times,serif" font-size="14.00">r</text>
</g>
<!-- a -->
<g id="node2" class="node">
<title>a</title>
<ellipse fill="none" stroke="black" cx="27" cy="-257" rx="27" ry="18"/>
<text text-anchor="middle" x="27" y="-253.3" font-family="Times,serif" font-size="14.00">a</text>
</g>
<!-- r&#45;&gt;a -->
<g id="edge1" class="edge">
<title>r&#45;&gt;a</title>
<path fill="none" stroke="black" d="M49.99,-302.7C45.09,-293.18 39.66,-282.61 35.3,-274.15"/>
<polygon fill="black" stroke="black" points="46.96,-304.47 54.65,-311.76 53.19,-301.27 46.96,-304.47"/>
</g>
<!-- b -->
<g id="node3" class="node">
<title>b</title>
<ellipse fill="none" stroke="black" cx="99" cy="-257" rx="27" ry="18"/>
<text text-anchor="middle" x="99" y="-253.3" font-family="Times,serif" font-size="14.00">b</text>
</g>
<!-- r&#45;&gt;b -->
<g id="edge2" class="edge">
<title>r&#45;&gt;b</title>
<path fill="none" stroke="black" d="M76.01,-302.7C80.91,-293.18 86.34,-282.61 90.7,-274.15"/>
<polygon fill="black" stroke="black" points="72.81,-301.27 71.35,-311.76 79.04,-304.47 72.81,-301.27"/>
</g>
<!-- c -->
<g id="node4" class="node">
<title>c</title>
<ellipse fill="none" stroke="black" cx="27" cy="-185" rx="27" ry="18"/>
<text text-anchor="middle" x="27" y="-181.3" font-family="Times,serif" font-size="14.00">c</text>
</g>
<!-- a&#45;&gt;c -->
<g id="edge3" class="edge">
<title>a&#45;&gt;c</title>
<path fill="none" stroke="black" d="M27,-228.67C27,-220.05 27,-210.79 27,-203.1"/>
<polygon fill="black" stroke="black" points="23.5,-228.7 27,-238.7 30.5,-228.7 23.5,-228.7"/>
</g>
<!-- b&#45;&gt;c -->
<g id="edge4" class="edge">
<title>b&#45;&gt;c</title>
<path fill="none" stroke="black" d="M76.96,-234.57C65.55,-223.48 51.93,-210.24 41.8,-200.38"/>
<polygon fill="black" stroke="black" points="74.82,-237.37 84.43,-241.83 79.7,-232.35 74.82,-237.37"/>
</g>
<!-- d -->
<g id="node5" class="node">
<title>d</title>
<ellipse fill="none" stroke="black" cx="99" cy="-185" rx="27" ry="18"/>
<text text-anchor="middle" x="99" y="-181.3" font-family="Times,serif" font-size="14.00">d</text>
</g>
<!-- b&#45;&gt;d -->
<g id="edge5" class="edge">
<title>b&#45;&gt;d</title>
<path fill="none" stroke="black" d="M92.42,-229.19C92.05,-220.37 92.29,-210.83 93.12,-202.96"/>
<polygon fill="black" stroke="black" points="88.94,-229.69 93.16,-239.41 95.93,-229.18 88.94,-229.69"/>
</g>
<!-- c&#45;&gt;d -->
<g id="edge6" class="edge">
<title>c&#45;&gt;d</title>
<path fill="none" stroke="black" d="M64.09,-185C66.7,-185 69.31,-185 71.93,-185"/>
<polygon fill="black" stroke="black" points="64,-181.5 54,-185 64,-188.5 64,-181.5"/>
</g>
<!-- d&#45;&gt;b -->
<g id="edge7" class="edge">
<title>d&#45;&gt;b</title>
<path fill="none" stroke="black" d="M105.59,-212.94C105.95,-221.85 105.7,-231.51 104.84,-239.41"/>
<polygon fill="black" stroke="black" points="109.08,-212.68 104.88,-202.96 102.1,-213.18 109.08,-212.68"/>
</g>
<!-- e -->
<g id="node6" class="node">
<title>e</title>
<ellipse fill="none" stroke="black" cx="63" cy="-113" rx="27" ry="18"/>
<text text-anchor="middle" x="63" y="-109.3" font-family="Times,serif" font-size="14.00">e</text>
</g>
<!-- d&#45;&gt;e -->
<g id="edge8" class="edge">
<title>d&#45;&gt;e</title>
<path fill="none" stroke="black" d="M85.99,-158.7C81.09,-149.18 75.66,-138.61 71.3,-130.15"/>
<polygon fill="black" stroke="black" points="82.96,-160.47 90.65,-167.76 89.19,-157.27 82.96,-160.47"/>
</g>
<!-- f -->
<g id="node7" class="node">
<title>f</title>
<ellipse fill="none" stroke="black" cx="135" cy="-113" rx="27" ry="18"/>
<text text-anchor="middle" x="135" y="-109.3" font-family="Times,serif" font-size="14.00">f</text>
</g>
<!-- d&#45;&gt;f -->
<g id="edge9" class="edge">
<title>d&#45;&gt;f</title>
<path fill="none" stroke="black" d="M112.01,-158.7C116.91,-149.18 122.34,-138.61 126.7,-130.15"/>
<polygon fill="black" stroke="black" points="108.81,-157.27 107.35,-167.76 115.04,-160.47 108.81,-157.27"/>
</g>
<!-- g -->
<g id="node8" class="node">
<title>g</title>
<ellipse fill="none" stroke="black" cx="99" cy="-41" rx="27" ry="18"/>
<text text-anchor="middle" x="99" y="-37.3" font-family="Times,serif" font-size="14.00">g</text>
</g>
<!-- e&#45;&gt;g -->
<g id="edge10" class="edge">
<title>e&#45;&gt;g</title>
<path fill="none" stroke="black" d="M76.01,-86.7C80.91,-77.18 86.34,-66.61 90.7,-58.15"/>
<polygon fill="black" stroke="black" points="72.81,-85.27 71.35,-95.76 79.04,-88.47 72.81,-85.27"/>
</g>
<!-- f&#45;&gt;g -->
<g id="edge11" class="edge">
<title>f&#45;&gt;g</title>
<path fill="none" stroke="black" d="M121.99,-86.7C117.09,-77.18 111.66,-66.61 107.3,-58.15"/>
<polygon fill="black" stroke="black" points="118.96,-88.47 126.65,-95.76 125.19,-85.27 118.96,-88.47"/>
</g>
</g>
</svg>
